{
.appVersion = "1352";
DisplayStrings = (
$,
"á/abreve/abreveacute/abrevedotbelow/abrevegrave/abrevehookabove/abrevetilde â/acircumflexacute/acircumflexdotbelow/acircumflexgrave/acircumflexhookabove/acircumflextilde/adblgrave ä/adotbelow à/ahookabove/ainvertedbreve/amacron/aogonek å/aringacute ã",
"/dotaccentcomb.case/Odotaccentmacron.ss01",
"OÓ/Obreve Ô/Ocircumflexacute/Ocircumflexdotbelow/Ocircumflexgrave/Ocircumflexhookabove/Ocircumflextilde/Odblgrave Ö/Odieresismacron/dotaccentcomb.case/Odotaccentmacron/Odotbelow Ò/Ohookabove O/Ohorn/Ohungarumlaut/Oinvertedbreve/Omacron/Oogonek Õ/Otildemacron",
"/O.ss01/Ohorn.ss01",
"/Uhorn.ss01",
"o/ohorn/ohorntilde",
ABCDEFGHIJKLMNOPQRSTUVWXYZ,
"/dotbelowcomb/Ohorndotbelow.ss01",

glyphs = (
{
glyphname = .notdef;
lastChange = "2021-08-24 08:50:33 +0000";
layers = (
{
background = {
paths = (
{
closed = 1;
nodes = (
"60 0 LINE",
"389 0 LINE",
"389 650 LINE",
"60 650 LINE"
);
},
{
closed = 1;
nodes = (
"315 584 LINE",
"222 374 LINE",
"129 584 LINE"
);
},
{
closed = 1;
nodes = (
"331 537 LINE",
"331 127 LINE",
"241 330 LINE"
);
},
{
closed = 1;
nodes = (
"114 129 LINE",
"114 534 LINE",
"203 330 LINE"
);
},
{
closed = 1;
nodes = (
"319 64 LINE",
"125 64 LINE",
"222 287 LINE"
);
}
);
};
layerId = "245B06BA-2FC8-4E2B-85DB-2741CBBED619";
paths = (
{
closed = 1;
nodes = (
"389 0 LINE",
"389 650 LINE",
"60 650 LINE",
"60 0 LINE"
);
},
{
closed = 1;
nodes = (
"222 287 LINE",
"319 64 LINE",
"125 64 LINE"
);
},
{
closed = 1;
nodes = (
"114 534 LINE",
"203 330 LINE",
"114 129 LINE"
);
},
{
closed = 1;
nodes = (
"241 330 LINE",
"331 537 LINE",
"331 127 LINE"
);
},
{
closed = 1;
nodes = (
"129 584 LINE",
"315 584 LINE",
"222 374 LINE"
);
}
);
width = 449;
}
);
},
{
color = 4;
glyphname = A;
lastChange = "2021-08-24 08:46:40 +0000";
layers = (
{
anchors = (
{
name = bottom;
position = "{415, 0}";
},
{
name = ogonek;
position = "{675, 10}";
},
{
name = top;
position = "{508, 657}";
}
);
layerId = "245B06BA-2FC8-4E2B-85DB-2741CBBED619";
paths = (
{
closed = 1;
nodes = (
"170 -24 OFFCURVE",
"211 -22 OFFCURVE",
"222 -13 CURVE SMOOTH",
"252 11 OFFCURVE",
"262 54 OFFCURVE",
"274 95 CURVE SMOOTH",
"286 132 OFFCURVE",
"286 174 OFFCURVE",
"296 206 CURVE SMOOTH",
"308 244 OFFCURVE",
"324 268 OFFCURVE",
"328 307 CURVE SMOOTH",
"330 320 OFFCURVE",
"335 332 OFFCURVE",
"338 343 CURVE SMOOTH",
"364 432 OFFCURVE",
"389 498 OFFCURVE",
"455 567 CURVE SMOOTH",
"477 590 OFFCURVE",
"498 613 OFFCURVE",
"521 624 CURVE SMOOTH",
"529 628 OFFCURVE",
"532 634 OFFCURVE",
"532 641 CURVE SMOOTH",
"532 652 OFFCURVE",
"523 663 OFFCURVE",
"511 663 CURVE SMOOTH",
"508 663 OFFCURVE",
"505 663 OFFCURVE",
"502 661 CURVE SMOOTH",
"413 616 OFFCURVE",
"390 587 OFFCURVE",
"344 496 CURVE SMOOTH",
"319 449 OFFCURVE",
"314 403 OFFCURVE",
"299 354 CURVE SMOOTH",
"286 308 OFFCURVE",
"292 259 OFFCURVE",
"277 212 CURVE SMOOTH",
"265 180 OFFCURVE",
"250 143 OFFCURVE",
"240 106 CURVE SMOOTH",
"230 73 OFFCURVE",
"212 46 OFFCURVE",
"188 27 CURVE SMOOTH",
"181 22 OFFCURVE",
"162 2 OFFCURVE",
"149 2 CURVE SMOOTH",
"143 2 OFFCURVE",
"139 2 OFFCURVE",
"134 3 CURVE",
"110 13 OFFCURVE",
"113 12 OFFCURVE",
"92 31 CURVE SMOOTH",
"68 53 OFFCURVE",
"67 85 OFFCURVE",
"67 117 CURVE SMOOTH",
"67 175 OFFCURVE",
"63 199 OFFCURVE",
"85 233 CURVE SMOOTH",
"95 249 OFFCURVE",
"114 250 OFFCURVE",
"132 250 CURVE SMOOTH",
"151 250 OFFCURVE",
"169 226 OFFCURVE",
"169 207 CURVE SMOOTH",
"169 183 OFFCURVE",
"159 161 OFFCURVE",
"140 152 CURVE",
"140 151 LINE",
"136 149 OFFCURVE",
"134 146 OFFCURVE",
"134 143 CURVE SMOOTH",
"134 138 OFFCURVE",
"138 133 OFFCURVE",
"144 133 CURVE SMOOTH",
"145 133 OFFCURVE",
"147 133 OFFCURVE",
"148 134 CURVE",
"177 148 OFFCURVE",
"190 178 OFFCURVE",
"189 208 CURVE SMOOTH",
"189 236 OFFCURVE",
"161 271 OFFCURVE",
"132 271 CURVE SMOOTH",
"105 271 OFFCURVE",
"78 270 OFFCURVE",
"64 246 CURVE SMOOTH",
"40 208 OFFCURVE",
"18 188 OFFCURVE",
"18 131 CURVE SMOOTH",
"18 84 OFFCURVE",
"34 38 OFFCURVE",
"69 6 CURVE SMOOTH",
"84 -7 OFFCURVE",
"95 -6 OFFCURVE",
"111 -11 CURVE SMOOTH",
"124 -16 OFFCURVE",
"134 -24 OFFCURVE",
"150 -24 CURVE SMOOTH"
);
},
{
closed = 1;
nodes = (
"706 1 OFFCURVE",
"744 105 OFFCURVE",
"744 149 CURVE SMOOTH",
"744 170 OFFCURVE",
"734 180 OFFCURVE",
"728 180 CURVE SMOOTH",
"722 180 OFFCURVE",
"717 174 OFFCURVE",
"717 164 CURVE SMOOTH",
"717 159 OFFCURVE",
"718 154 OFFCURVE",
"720 149 CURVE SMOOTH",
"722 143 OFFCURVE",
"723 137 OFFCURVE",
"723 131 CURVE SMOOTH",
"723 86 OFFCURVE",
"665 52 OFFCURVE",
"637 52 CURVE",
"631 53 OFFCURVE",
"613 66 OFFCURVE",
"608 72 CURVE SMOOTH",
"573 111 OFFCURVE",
"579 249 OFFCURVE",
"569 300 CURVE SMOOTH",
"567 310 LINE",
"572 311 OFFCURVE",
"578 311 OFFCURVE",
"584 311 CURVE SMOOTH",
"594 311 OFFCURVE",
"615 300 OFFCURVE",
"615 300 CURVE",
"621 289 OFFCURVE",
"631 284 OFFCURVE",
"641 284 CURVE SMOOTH",
"656 284 OFFCURVE",
"672 295 OFFCURVE",
"672 312 CURVE SMOOTH",
"672 316 OFFCURVE",
"672 320 OFFCURVE",
"670 324 CURVE SMOOTH",
"657 354 OFFCURVE",
"610 368 OFFCURVE",
"584 368 CURVE",
"581 369 OFFCURVE",
"578 370 OFFCURVE",
"574 370 CURVE SMOOTH",
"571 370 OFFCURVE",
"568 369 OFFCURVE",
"564 368 CURVE",
"562 382 OFFCURVE",
"562 396 OFFCURVE",
"562 412 CURVE SMOOTH",
"562 478 OFFCURVE",
"557 554 OFFCURVE",
"551 619 CURVE SMOOTH",
"551 626 OFFCURVE",
"546 629 OFFCURVE",
"541 629 CURVE SMOOTH",
"537 629 OFFCURVE",
"532 626 OFFCURVE",
"532 620 CURVE SMOOTH",
"532 619 LINE SMOOTH",
"538 553 OFFCURVE",
"505 478 OFFCURVE",
"505 412 CURVE SMOOTH",
"505 391 OFFCURVE",
"505 373 OFFCURVE",
"506 356 CURVE",
"441 334 OFFCURVE",
"379 289 OFFCURVE",
"337 242 CURVE SMOOTH",
"330 235 OFFCURVE",
"336 226 OFFCURVE",
"343 226 CURVE SMOOTH",
"346 226 OFFCURVE",
"349 227 OFFCURVE",
"351 230 CURVE SMOOTH",
"386 271 OFFCURVE",
"449 293 OFFCURVE",
"510 304 CURVE",
"512 292 LINE SMOOTH",
"524 223 OFFCURVE",
"523 94 OFFCURVE",
"571 39 CURVE SMOOTH",
"581 27 OFFCURVE",
"622 0 OFFCURVE",
"637 0 CURVE SMOOTH"
);
}
);
width = 739;
}
);
note = A;
unicode = 0041;
},
{
glyphname = Aacute;
lastChange = "2021-08-24 05:25:00 +0000";
layers = (
{
background = {
paths = (
{
closed = 1;
nodes = (
"735 194 OFFCURVE",
"709 181 OFFCURVE",
"720 149 CURVE SMOOTH",
"738 95 OFFCURVE",
"669 52 OFFCURVE",
"637 52 CURVE",
"631 53 OFFCURVE",
"613 66 OFFCURVE",
"608 72 CURVE SMOOTH",
"573 111 OFFCURVE",
"576 248 OFFCURVE",
"569 300 CURVE SMOOTH",
"567 310 LINE",
"572 311 OFFCURVE",
"578 311 OFFCURVE",
"584 311 CURVE SMOOTH",
"594 311 OFFCURVE",
"615 300 OFFCURVE",
"615 300 CURVE",
"631 267 OFFCURVE",
"684 288 OFFCURVE",
"670 324 CURVE SMOOTH",
"657 354 OFFCURVE",
"610 368 OFFCURVE",
"584 368 CURVE",
"578 370 OFFCURVE",
"571 370 OFFCURVE",
"564 368 CURVE",
"562 382 OFFCURVE",
"562 396 OFFCURVE",
"562 412 CURVE SMOOTH",
"562 478 OFFCURVE",
"557 554 OFFCURVE",
"551 619 CURVE SMOOTH",
"550 633 OFFCURVE",
"531 632 OFFCURVE",
"532 619 CURVE SMOOTH",
"538 553 OFFCURVE",
"505 478 OFFCURVE",
"505 412 CURVE SMOOTH",
"505 391 OFFCURVE",
"505 373 OFFCURVE",
"506 356 CURVE",
"441 334 OFFCURVE",
"379 289 OFFCURVE",
"337 242 CURVE SMOOTH",
"328 232 OFFCURVE",
"342 220 OFFCURVE",
"351 230 CURVE SMOOTH",
"386 271 OFFCURVE",
"449 293 OFFCURVE",
"510 304 CURVE",
"512 292 LINE SMOOTH",
"525 223 OFFCURVE",
"523 94 OFFCURVE",
"571 39 CURVE SMOOTH",
"581 27 OFFCURVE",
"622 0 OFFCURVE",
"637 0 CURVE SMOOTH",
"713 1 OFFCURVE",
"752 128 OFFCURVE",
"743 161 CURVE SMOOTH"
);
},
{
closed = 1;
nodes = (
"545 636 OFFCURVE",
"526 673 OFFCURVE",
"502 661 CURVE SMOOTH",
"413 616 OFFCURVE",
"390 587 OFFCURVE",
"344 496 CURVE SMOOTH",
"319 449 OFFCURVE",
"314 403 OFFCURVE",
"299 354 CURVE SMOOTH",
"286 308 OFFCURVE",
"292 259 OFFCURVE",
"277 212 CURVE SMOOTH",
"265 180 OFFCURVE",
"250 143 OFFCURVE",
"240 106 CURVE SMOOTH",
"230 73 OFFCURVE",
"212 46 OFFCURVE",
"188 27 CURVE SMOOTH",
"181 22 OFFCURVE",
"162 2 OFFCURVE",
"149 2 CURVE SMOOTH",
"143 2 OFFCURVE",
"139 2 OFFCURVE",
"134 3 CURVE SMOOTH",
"110 13 OFFCURVE",
"113 12 OFFCURVE",
"92 31 CURVE SMOOTH",
"65 56 OFFCURVE",
"67 95 OFFCURVE",
"67 131 CURVE SMOOTH",
"66 179 OFFCURVE",
"65 202 OFFCURVE",
"85 233 CURVE SMOOTH",
"95 249 OFFCURVE",
"114 250 OFFCURVE",
"132 250 CURVE SMOOTH",
"151 250 OFFCURVE",
"169 226 OFFCURVE",
"169 207 CURVE SMOOTH",
"169 183 OFFCURVE",
"159 161 OFFCURVE",
"140 152 CURVE",
"140 151 LINE",
"129 146 OFFCURVE",
"137 129 OFFCURVE",
"148 134 CURVE SMOOTH",
"177 148 OFFCURVE",
"190 178 OFFCURVE",
"189 208 CURVE SMOOTH",
"189 236 OFFCURVE",
"161 271 OFFCURVE",
"132 271 CURVE SMOOTH",
"105 271 OFFCURVE",
"78 270 OFFCURVE",
"64 246 CURVE SMOOTH",
"40 208 OFFCURVE",
"18 188 OFFCURVE",
"18 131 CURVE SMOOTH",
"18 84 OFFCURVE",
"34 38 OFFCURVE",
"69 6 CURVE SMOOTH",
"84 -7 OFFCURVE",
"95 -6 OFFCURVE",
"111 -11 CURVE SMOOTH",
"124 -16 OFFCURVE",
"134 -24 OFFCURVE",
"150 -24 CURVE SMOOTH",
"170 -24 OFFCURVE",
"211 -22 OFFCURVE",
"222 -13 CURVE SMOOTH",
"252 11 OFFCURVE",
"262 54 OFFCURVE",
"274 95 CURVE SMOOTH",
"286 132 OFFCURVE",
"286 174 OFFCURVE",
"296 206 CURVE SMOOTH",
"308 244 OFFCURVE",
"324 268 OFFCURVE",
"328 307 CURVE SMOOTH",
"330 320 OFFCURVE",
"335 332 OFFCURVE",
"338 343 CURVE SMOOTH",
"364 432 OFFCURVE",
"389 498 OFFCURVE",
"455 567 CURVE SMOOTH",
"477 590 OFFCURVE",
"498 613 OFFCURVE",
"521 624 CURVE SMOOTH"
);
},
{
closed = 1;
nodes = (
"586 802 OFFCURVE",
"576 805 OFFCURVE",
"566 801 CURVE SMOOTH",
"526 784 OFFCURVE",
"480 753 OFFCURVE",
"440 738 CURVE SMOOTH",
"424 732 OFFCURVE",
"433 718 OFFCURVE",
"449 724 CURVE SMOOTH",
"491 738 OFFCURVE",
"544 739 OFFCURVE",
"584 757 CURVE SMOOTH",
"604 766 OFFCURVE",
"603 796 OFFCURVE",
"589 801 CURVE SMOOTH"
);
}
);
};
components = (
{
name = A;
},
{
name = acutecomb.case;
transform = "{1, 0, 0, 1, 440, 245}";
}
);
layerId = "245B06BA-2FC8-4E2B-85DB-2741CBBED619";
width = 739;
}
);
note = Aacute;
unicode = 00C1;
},
{
glyphname = Acircumflex;
lastChange = "2021-08-24 05:25:00 +0000";
layers = (
{
background = {
paths = (
{
closed = 1;
nodes = (
"735 194 OFFCURVE",
"709 181 OFFCURVE",
"720 149 CURVE SMOOTH",
"738 95 OFFCURVE",
"669 52 OFFCURVE",
"637 52 CURVE",
"631 53 OFFCURVE",
"613 66 OFFCURVE",
"608 72 CURVE SMOOTH",
"573 111 OFFCURVE",
"576 248 OFFCURVE",
"569 300 CURVE SMOOTH",
"567 310 LINE",
"572 311 OFFCURVE",
"578 311 OFFCURVE",
"584 311 CURVE SMOOTH",
"594 311 OFFCURVE",
"615 300 OFFCURVE",
"615 300 CURVE",
"631 267 OFFCURVE",
"684 288 OFFCURVE",
"670 324 CURVE SMOOTH",
"657 354 OFFCURVE",
"610 368 OFFCURVE",
"584 368 CURVE",
"578 370 OFFCURVE",
"571 370 OFFCURVE",
"564 368 CURVE",
"562 382 OFFCURVE",
"562 396 OFFCURVE",
"562 412 CURVE SMOOTH",
"562 478 OFFCURVE",
"557 554 OFFCURVE",
"551 619 CURVE SMOOTH",
"550 633 OFFCURVE",
"531 632 OFFCURVE",
"532 619 CURVE SMOOTH",
"538 553 OFFCURVE",
"505 478 OFFCURVE",
"505 412 CURVE SMOOTH",
"505 391 OFFCURVE",
"505 373 OFFCURVE",
"506 356 CURVE",
"441 334 OFFCURVE",
"379 289 OFFCURVE",
"337 242 CURVE SMOOTH",
"328 232 OFFCURVE",
"342 220 OFFCURVE",
"351 230 CURVE SMOOTH",
"386 271 OFFCURVE",
"449 293 OFFCURVE",
"510 304 CURVE",
"512 292 LINE SMOOTH",
"525 223 OFFCURVE",
"523 94 OFFCURVE",
"571 39 CURVE SMOOTH",
"581 27 OFFCURVE",
"622 0 OFFCURVE",
"637 0 CURVE SMOOTH",
"713 1 OFFCURVE",
"752 128 OFFCURVE",
"743 161 CURVE SMOOTH"
);
},
{
closed = 1;
nodes = (
"545 636 OFFCURVE",
"526 673 OFFCURVE",
"502 661 CURVE SMOOTH",
"413 616 OFFCURVE",
"390 587 OFFCURVE",
"344 496 CURVE SMOOTH",
"319 449 OFFCURVE",
"314 403 OFFCURVE",
"299 354 CURVE SMOOTH",
"286 308 OFFCURVE",
"292 259 OFFCURVE",
"277 212 CURVE SMOOTH",
"265 180 OFFCURVE",
"250 143 OFFCURVE",
"240 106 CURVE SMOOTH",
"230 73 OFFCURVE",
"212 46 OFFCURVE",
"188 27 CURVE SMOOTH",
"181 22 OFFCURVE",
"162 2 OFFCURVE",
"149 2 CURVE SMOOTH",
"143 2 OFFCURVE",
"139 2 OFFCURVE",
"134 3 CURVE SMOOTH",
"110 13 OFFCURVE",
"113 12 OFFCURVE",
"92 31 CURVE SMOOTH",
"65 56 OFFCURVE",
"67 95 OFFCURVE",
"67 131 CURVE SMOOTH",
"66 179 OFFCURVE",
"65 202 OFFCURVE",
"85 233 CURVE SMOOTH",
"95 249 OFFCURVE",
"114 250 OFFCURVE",
"132 250 CURVE SMOOTH",
"151 250 OFFCURVE",
"169 226 OFFCURVE",
"169 207 CURVE SMOOTH",
"169 183 OFFCURVE",
"159 161 OFFCURVE",
"140 152 CURVE",
"140 151 LINE",
"129 146 OFFCURVE",
"137 129 OFFCURVE",
"148 134 CURVE SMOOTH",
"177 148 OFFCURVE",
"190 178 OFFCURVE",
"189 208 CURVE SMOOTH",
"189 236 OFFCURVE",
"161 271 OFFCURVE",
"132 271 CURVE SMOOTH",
"105 271 OFFCURVE",
"78 270 OFFCURVE",
"64 246 CURVE SMOOTH",
"40 208 OFFCURVE",
"18 188 OFFCURVE",
"18 131 CURVE SMOOTH",
"18 84 OFFCURVE",
"34 38 OFFCURVE",
"69 6 CURVE SMOOTH",
"84 -7 OFFCURVE",
"95 -6 OFFCURVE",
"111 -11 CURVE SMOOTH",
"124 -16 OFFCURVE",
"134 -24 OFFCURVE",
"150 -24 CURVE SMOOTH",
"170 -24 OFFCURVE",
"211 -22 OFFCURVE",
"222 -13 CURVE SMOOTH",
"252 11 OFFCURVE",
"262 54 OFFCURVE",
"274 95 CURVE SMOOTH",
"286 132 OFFCURVE",
"286 174 OFFCURVE",
"296 206 CURVE SMOOTH",
"308 244 OFFCURVE",
"324 268 OFFCURVE",
"328 307 CURVE SMOOTH",
"330 320 OFFCURVE",
"335 332 OFFCURVE",
"338 343 CURVE SMOOTH",
"364 432 OFFCURVE",
"389 498 OFFCURVE",
"455 567 CURVE SMOOTH",
"477 590 OFFCURVE",
"498 613 OFFCURVE",
"521 624 CURVE SMOOTH"
);
},
{
closed = 1;
nodes = (
"601 738 OFFCURVE",
"530 793 OFFCURVE",
"526 793 CURVE SMOOTH",
"501 793 OFFCURVE",
"444 737 OFFCURVE",
"427 720 CURVE SMOOTH",
"412 706 OFFCURVE",
"422 699 OFFCURVE",
"437 710 CURVE SMOOTH",
"451 721 OFFCURVE",
"478 728 OFFCURVE",
"508 748 CURVE SMOOTH",
"519 755 OFFCURVE",
"528 750 OFFCURVE",
"542 741 CURVE SMOOTH",
"563 728 OFFCURVE",
"592 722 OFFCURVE",
"613 711 CURVE SMOOTH",
"629 702 OFFCURVE",
"633 719 OFFCURVE",
"616 729 CURVE SMOOTH"
);
}
);
};
components = (
{
name = A;
},
{
name = circumflexcomb.case;
transform = "{1, 0, 0, 1, 366, 245}";
}
);
layerId = "245B06BA-2FC8-4E2B-85DB-2741CBBED619";
width = 739;
}
);
note = Acircumflex;
unicode = 00C2;
},
{
glyphname = Adieresis;
lastChange = "2021-08-24 05:25:00 +0000";
layers = (
{
background = {
paths = (
{
closed = 1;
nodes = (
"599 766 OFFCURVE",
"578 777 OFFCURVE",
"559 777 CURVE SMOOTH",
"539 777 OFFCURVE",
"519 759 OFFCURVE",
"522 738 CURVE SMOOTH",
"524 719 OFFCURVE",
"539 706 OFFCURVE",
"559 706 CURVE SMOOTH",
"578 706 OFFCURVE",
"599 726 OFFCURVE",
"599 746 CURVE SMOOTH"
);
},
{
closed = 1;
nodes = (
"442 762 OFFCURVE",
"428 778 OFFCURVE",
"409 778 CURVE SMOOTH",
"389 778 OFFCURVE",
"373 762 OFFCURVE",
"371 741 CURVE SMOOTH",
"367 721 OFFCURVE",
"389 704 OFFCURVE",
"409 704 CURVE SMOOTH",
"428 704 OFFCURVE",
"442 721 OFFCURVE",
"442 741 CURVE SMOOTH"
);
},
{
closed = 1;
nodes = (
"735 194 OFFCURVE",
"709 181 OFFCURVE",
"720 149 CURVE SMOOTH",
"738 95 OFFCURVE",
"669 52 OFFCURVE",
"637 52 CURVE",
"631 53 OFFCURVE",
"613 66 OFFCURVE",
"608 72 CURVE SMOOTH",
"573 111 OFFCURVE",
"576 248 OFFCURVE",
"569 300 CURVE SMOOTH",
"567 310 LINE",
"572 311 OFFCURVE",
"578 311 OFFCURVE",
"584 311 CURVE SMOOTH",
"594 311 OFFCURVE",
"615 300 OFFCURVE",
"615 300 CURVE",
"631 267 OFFCURVE",
"684 288 OFFCURVE",
"670 324 CURVE SMOOTH",
"657 354 OFFCURVE",
"610 368 OFFCURVE",
"584 368 CURVE",
"578 370 OFFCURVE",
"571 370 OFFCURVE",
"564 368 CURVE",
"562 382 OFFCURVE",
"562 396 OFFCURVE",
"562 412 CURVE SMOOTH",
"562 478 OFFCURVE",
"557 554 OFFCURVE",
"551 619 CURVE SMOOTH",
"550 633 OFFCURVE",
"531 632 OFFCURVE",
"532 619 CURVE SMOOTH",
"538 553 OFFCURVE",
"505 478 OFFCURVE",
"505 412 CURVE SMOOTH",
"505 391 OFFCURVE",
"505 373 OFFCURVE",
"506 356 CURVE",
"441 334 OFFCURVE",
"379 289 OFFCURVE",
"337 242 CURVE SMOOTH",
"328 232 OFFCURVE",
"342 220 OFFCURVE",
"351 230 CURVE SMOOTH",
"386 271 OFFCURVE",
"449 293 OFFCURVE",
"510 304 CURVE",
"512 292 LINE SMOOTH",
"525 223 OFFCURVE",
"523 94 OFFCURVE",
"571 39 CURVE SMOOTH",
"581 27 OFFCURVE",
"622 0 OFFCURVE",
"637 0 CURVE SMOOTH",
"713 1 OFFCURVE",
"752 128 OFFCURVE",
"743 161 CURVE SMOOTH"
);
},
{
closed = 1;
nodes = (
"545 636 OFFCURVE",
"526 673 OFFCURVE",
"502 661 CURVE SMOOTH",
"413 616 OFFCURVE",
"390 587 OFFCURVE",
"344 496 CURVE SMOOTH",
"319 449 OFFCURVE",
"314 403 OFFCURVE",
"299 354 CURVE SMOOTH",
"286 308 OFFCURVE",
"292 259 OFFCURVE",
"277 212 CURVE SMOOTH",
"265 180 OFFCURVE",
"250 143 OFFCURVE",
"240 106 CURVE SMOOTH",
"230 73 OFFCURVE",
"212 46 OFFCURVE",
"188 27 CURVE SMOOTH",
"181 22 OFFCURVE",
"162 2 OFFCURVE",
"149 2 CURVE SMOOTH",
"143 2 OFFCURVE",
"139 2 OFFCURVE",
"134 3 CURVE SMOOTH",
"110 13 OFFCURVE",
"113 12 OFFCURVE",
"92 31 CURVE SMOOTH",
"65 56 OFFCURVE",
"67 95 OFFCURVE",
"67 131 CURVE SMOOTH",
"66 179 OFFCURVE",
"65 202 OFFCURVE",
"85 233 CURVE SMOOTH",
"95 249 OFFCURVE",
"114 250 OFFCURVE",
"132 250 CURVE SMOOTH",
"151 250 OFFCURVE",
"169 226 OFFCURVE",
"169 207 CURVE SMOOTH",
"169 183 OFFCURVE",
"159 161 OFFCURVE",
"140 152 CURVE",
"140 151 LINE",
"129 146 OFFCURVE",
"137 129 OFFCURVE",
"148 134 CURVE SMOOTH",
"177 148 OFFCURVE",
"190 178 OFFCURVE",
"189 208 CURVE SMOOTH",
"189 236 OFFCURVE",
"161 271 OFFCURVE",
"132 271 CURVE SMOOTH",
"105 271 OFFCURVE",
"78 270 OFFCURVE",
"64 246 CURVE SMOOTH",
"40 208 OFFCURVE",
"18 188 OFFCURVE",
"18 131 CURVE SMOOTH",
"18 84 OFFCURVE",
"34 38 OFFCURVE",
"69 6 CURVE SMOOTH",
"84 -7 OFFCURVE",
"95 -6 OFFCURVE",
"111 -11 CURVE SMOOTH",
"124 -16 OFFCURVE",
"134 -24 OFFCURVE",
"150 -24 CURVE SMOOTH",
"170 -24 OFFCURVE",
"211 -22 OFFCURVE",
"222 -13 CURVE SMOOTH",
"252 11 OFFCURVE",
"262 54 OFFCURVE",
"274 95 CURVE SMOOTH",
"286 132 OFFCURVE",
"286 174 OFFCURVE",
"296 206 CURVE SMOOTH",
"308 244 OFFCURVE",
"324 268 OFFCURVE",
"328 307 CURVE SMOOTH",
"330 320 OFFCURVE",
"335 332 OFFCURVE",
"338 343 CURVE SMOOTH",
"364 432 OFFCURVE",
"389 498 OFFCURVE",
"455 567 CURVE SMOOTH",
"477 590 OFFCURVE",
"498 613 OFFCURVE",
"521 624 CURVE SMOOTH"
);
}
);
};
components = (
{
name = A;
},
{
name = dieresiscomb.case;
transform = "{1, 0, 0, 1, 412, 245}";
}
);
layerId = "245B06BA-2FC8-4E2B-85DB-2741CBBED619";
width = 739;
}
);
note = Adieresis;
unicode = 00C4;
},
{
glyphname = Agrave;
lastChange = "2021-08-24 05:25:00 +0000";
layers = (
{
background = {
paths = (
{
closed = 1;
nodes = (
"735 194 OFFCURVE",
"709 181 OFFCURVE",
"720 149 CURVE SMOOTH",
"738 95 OFFCURVE",
"669 52 OFFCURVE",
"637 52 CURVE",
"631 53 OFFCURVE",
"613 66 OFFCURVE",
"608 72 CURVE SMOOTH",
"573 111 OFFCURVE",
"576 248 OFFCURVE",
"569 300 CURVE SMOOTH",
"567 310 LINE",
"572 311 OFFCURVE",
"578 311 OFFCURVE",
"584 311 CURVE SMOOTH",
"594 311 OFFCURVE",
"615 300 OFFCURVE",
"615 300 CURVE",
"631 267 OFFCURVE",
"684 288 OFFCURVE",
"670 324 CURVE SMOOTH",
"657 354 OFFCURVE",
"610 368 OFFCURVE",
"584 368 CURVE",
"578 370 OFFCURVE",
"571 370 OFFCURVE",
"564 368 CURVE",
"562 382 OFFCURVE",
"562 396 OFFCURVE",
"562 412 CURVE SMOOTH",
"562 478 OFFCURVE",
"557 554 OFFCURVE",
"551 619 CURVE SMOOTH",
"550 633 OFFCURVE",
"531 632 OFFCURVE",
"532 619 CURVE SMOOTH",
"538 553 OFFCURVE",
"505 478 OFFCURVE",
"505 412 CURVE SMOOTH",
"505 391 OFFCURVE",
"505 373 OFFCURVE",
"506 356 CURVE",
"441 334 OFFCURVE",
"379 289 OFFCURVE",
"337 242 CURVE SMOOTH",
"328 232 OFFCURVE",
"342 220 OFFCURVE",
"351 230 CURVE SMOOTH",
"386 271 OFFCURVE",
"449 293 OFFCURVE",
"510 304 CURVE",
"512 292 LINE SMOOTH",
"525 223 OFFCURVE",
"523 94 OFFCURVE",
"571 39 CURVE SMOOTH",
"581 27 OFFCURVE",
"622 0 OFFCURVE",
"637 0 CURVE SMOOTH",
"713 1 OFFCURVE",
"752 128 OFFCURVE",
"743 161 CURVE SMOOTH"
);
},
{
closed = 1;
nodes = (
"545 636 OFFCURVE",
"526 673 OFFCURVE",
"502 661 CURVE SMOOTH",
"413 616 OFFCURVE",
"390 587 OFFCURVE",
"344 496 CURVE SMOOTH",
"319 449 OFFCURVE",
"314 403 OFFCURVE",
"299 354 CURVE SMOOTH",
"286 308 OFFCURVE",
"292 259 OFFCURVE",
"277 212 CURVE SMOOTH",
"265 180 OFFCURVE",
"250 143 OFFCURVE",
"240 106 CURVE SMOOTH",
"230 73 OFFCURVE",
"212 46 OFFCURVE",
"188 27 CURVE SMOOTH",
"181 22 OFFCURVE",
"162 2 OFFCURVE",
"149 2 CURVE SMOOTH",
"143 2 OFFCURVE",
"139 2 OFFCURVE",
"134 3 CURVE SMOOTH",
"110 13 OFFCURVE",
"113 12 OFFCURVE",
"92 31 CURVE SMOOTH",
"65 56 OFFCURVE",
"67 95 OFFCURVE",
"67 131 CURVE SMOOTH",
"66 179 OFFCURVE",
"65 202 OFFCURVE",
"85 233 CURVE SMOOTH",
"95 249 OFFCURVE",
"114 250 OFFCURVE",
"132 250 CURVE SMOOTH",
"151 250 OFFCURVE",
"169 226 OFFCURVE",
"169 207 CURVE SMOOTH",
"169 183 OFFCURVE",
"159 161 OFFCURVE",
"140 152 CURVE",
"140 151 LINE",
"129 146 OFFCURVE",
"137 129 OFFCURVE",
"148 134 CURVE SMOOTH",
"177 148 OFFCURVE",
"190 178 OFFCURVE",
"189 208 CURVE SMOOTH",
"189 236 OFFCURVE",
"161 271 OFFCURVE",
"132 271 CURVE SMOOTH",
"105 271 OFFCURVE",
"78 270 OFFCURVE",
"64 246 CURVE SMOOTH",
"40 208 OFFCURVE",
"18 188 OFFCURVE",
"18 131 CURVE SMOOTH",
"18 84 OFFCURVE",
"34 38 OFFCURVE",
"69 6 CURVE SMOOTH",
"84 -7 OFFCURVE",
"95 -6 OFFCURVE",
"111 -11 CURVE SMOOTH",
"124 -16 OFFCURVE",
"134 -24 OFFCURVE",
"150 -24 CURVE SMOOTH",
"170 -24 OFFCURVE",
"211 -22 OFFCURVE",
"222 -13 CURVE SMOOTH",
"252 11 OFFCURVE",
"262 54 OFFCURVE",
"274 95 CURVE SMOOTH",
"286 132 OFFCURVE",
"286 174 OFFCURVE",
"296 206 CURVE SMOOTH",
"308 244 OFFCURVE",
"324 268 OFFCURVE",
"328 307 CURVE SMOOTH",
"330 320 OFFCURVE",
"335 332 OFFCURVE",
"338 343 CURVE SMOOTH",
"364 432 OFFCURVE",
"389 498 OFFCURVE",
"455 567 CURVE SMOOTH",
"477 590 OFFCURVE",
"498 613 OFFCURVE",
"521 624 CURVE SMOOTH"
);
},
{
closed = 1;
nodes = (
"426 805 OFFCURVE",
"424 775 OFFCURVE",
"445 766 CURVE SMOOTH",
"484 748 OFFCURVE",
"538 747 OFFCURVE",
"579 732 CURVE SMOOTH",
"595 727 OFFCURVE",
"604 741 OFFCURVE",
"588 747 CURVE SMOOTH",
"548 762 OFFCURVE",
"502 793 OFFCURVE",
"463 810 CURVE SMOOTH",
"452 814 OFFCURVE",
"442 811 OFFCURVE",
"439 810 CURVE SMOOTH"
);
}
);
};
components = (
{
name = A;
},
{
name = gravecomb.case;
transform = "{1, 0, 0, 1, 407, 245}";
}
);
layerId = "245B06BA-2FC8-4E2B-85DB-2741CBBED619";
width = 739;
}
);
note = Agrave;
unicode = 00C0;
},
{
glyphname = Aring;
lastChange = "2021-08-24 05:25:00 +0000";
layers = (
{
background = {
paths = (
{
closed = 1;
nodes = (
"568 804 OFFCURVE",
"516 829 OFFCURVE",
"470 824 CURVE SMOOTH",
"467 824 OFFCURVE",
"465 823 OFFCURVE",
"463 823 CURVE SMOOTH",
"460 823 OFFCURVE",
"457 822 OFFCURVE",
"454 820 CURVE SMOOTH",
"431 806 OFFCURVE",
"418 788 OFFCURVE",
"418 760 CURVE SMOOTH",
"418 702 OFFCURVE",
"487 687 OFFCURVE",
"523 687 CURVE SMOOTH",
"559 687 OFFCURVE",
"568 710 OFFCURVE",
"568 740 CURVE SMOOTH"
);
},
{
closed = 1;
nodes = (
"735 194 OFFCURVE",
"709 181 OFFCURVE",
"720 149 CURVE SMOOTH",
"738 95 OFFCURVE",
"669 52 OFFCURVE",
"637 52 CURVE",
"631 53 OFFCURVE",
"613 66 OFFCURVE",
"608 72 CURVE SMOOTH",
"573 111 OFFCURVE",
"576 248 OFFCURVE",
"569 300 CURVE SMOOTH",
"567 310 LINE",
"572 311 OFFCURVE",
"578 311 OFFCURVE",
"584 311 CURVE SMOOTH",
"594 311 OFFCURVE",
"615 300 OFFCURVE",
"615 300 CURVE",
"631 267 OFFCURVE",
"684 288 OFFCURVE",
"670 324 CURVE SMOOTH",
"657 354 OFFCURVE",
"610 368 OFFCURVE",
"584 368 CURVE",
"578 370 OFFCURVE",
"571 370 OFFCURVE",
"564 368 CURVE",
"562 382 OFFCURVE",
"562 396 OFFCURVE",
"562 412 CURVE SMOOTH",
"562 478 OFFCURVE",
"557 554 OFFCURVE",
"551 619 CURVE SMOOTH",
"550 633 OFFCURVE",
"531 632 OFFCURVE",
"532 619 CURVE SMOOTH",
"538 553 OFFCURVE",
"505 478 OFFCURVE",
"505 412 CURVE SMOOTH",
"505 391 OFFCURVE",
"505 373 OFFCURVE",
"506 356 CURVE",
"441 334 OFFCURVE",
"379 289 OFFCURVE",
"337 242 CURVE SMOOTH",
"328 232 OFFCURVE",
"342 220 OFFCURVE",
"351 230 CURVE SMOOTH",
"386 271 OFFCURVE",
"449 293 OFFCURVE",
"510 304 CURVE",
"512 292 LINE SMOOTH",
"525 223 OFFCURVE",
"523 94 OFFCURVE",
"571 39 CURVE SMOOTH",
"581 27 OFFCURVE",
"622 0 OFFCURVE",
"637 0 CURVE SMOOTH",
"713 1 OFFCURVE",
"752 128 OFFCURVE",
"743 161 CURVE SMOOTH"
);
},
{
closed = 1;
nodes = (
"545 636 OFFCURVE",
"526 673 OFFCURVE",
"502 661 CURVE SMOOTH",
"413 616 OFFCURVE",
"390 587 OFFCURVE",
"344 496 CURVE SMOOTH",
"319 449 OFFCURVE",
"314 403 OFFCURVE",
"299 354 CURVE SMOOTH",
"286 308 OFFCURVE",
"292 259 OFFCURVE",
"277 212 CURVE SMOOTH",
"265 180 OFFCURVE",
"250 143 OFFCURVE",
"240 106 CURVE SMOOTH",
"230 73 OFFCURVE",
"212 46 OFFCURVE",
"188 27 CURVE SMOOTH",
"181 22 OFFCURVE",
"162 2 OFFCURVE",
"149 2 CURVE SMOOTH",
"143 2 OFFCURVE",
"139 2 OFFCURVE",
"134 3 CURVE SMOOTH",
"110 13 OFFCURVE",
"113 12 OFFCURVE",
"92 31 CURVE SMOOTH",
"65 56 OFFCURVE",
"67 95 OFFCURVE",
"67 131 CURVE SMOOTH",
"66 179 OFFCURVE",
"65 202 OFFCURVE",
"85 233 CURVE SMOOTH",
"95 249 OFFCURVE",
"114 250 OFFCURVE",
"132 250 CURVE SMOOTH",
"151 250 OFFCURVE",
"169 226 OFFCURVE",
"169 207 CURVE SMOOTH",
"169 183 OFFCURVE",
"159 161 OFFCURVE",
"140 152 CURVE",
"140 151 LINE",
"129 146 OFFCURVE",
"137 129 OFFCURVE",
"148 134 CURVE SMOOTH",
"177 148 OFFCURVE",
"190 178 OFFCURVE",
"189 208 CURVE SMOOTH",
"189 236 OFFCURVE",
"161 271 OFFCURVE",
"132 271 CURVE SMOOTH",
"105 271 OFFCURVE",
"78 270 OFFCURVE",
"64 246 CURVE SMOOTH",
"40 208 OFFCURVE",
"18 188 OFFCURVE",
"18 131 CURVE SMOOTH",
"18 84 OFFCURVE",
"34 38 OFFCURVE",
"69 6 CURVE SMOOTH",
"84 -7 OFFCURVE",
"95 -6 OFFCURVE",
"111 -11 CURVE SMOOTH",
"124 -16 OFFCURVE",
"134 -24 OFFCURVE",
"150 -24 CURVE SMOOTH",
"170 -24 OFFCURVE",
"211 -22 OFFCURVE",
"222 -13 CURVE SMOOTH",
"252 11 OFFCURVE",
"262 54 OFFCURVE",
"274 95 CURVE SMOOTH",
"286 132 OFFCURVE",
"286 174 OFFCURVE",
"296 206 CURVE SMOOTH",
"308 244 OFFCURVE",
"324 268 OFFCURVE",
"328 307 CURVE SMOOTH",
"330 320 OFFCURVE",
"335 332 OFFCURVE",
"338 343 CURVE SMOOTH",
"364 432 OFFCURVE",
"389 498 OFFCURVE",
"455 567 CURVE SMOOTH",
"477 590 OFFCURVE",
"498 613 OFFCURVE",
"521 624 CURVE SMOOTH"
);
},
{
closed = 1;
nodes = (
"534 734 OFFCURVE",
"534 728 OFFCURVE",
"531 721 CURVE",
"530 721 OFFCURVE",
"528 720 OFFCURVE",
"523 720 CURVE SMOOTH",
"484 720 OFFCURVE",
"451 737 OFFCURVE",
"451 760 CURVE SMOOTH",
"451 774 OFFCURVE",
"456 782 OFFCURVE",
"470 791 CURVE",
"473 791 LINE SMOOTH",
"507 792 OFFCURVE",
"534 777 OFFCURVE",
"534 740 CURVE SMOOTH"
);
}
);
};
components = (
{
name = A;
},
{
name = ringcomb.case;
transform = "{1, 0, 0, 1, 427, 245}";
}
);
layerId = "245B06BA-2FC8-4E2B-85DB-2741CBBED619";
width = 739;
}
);
note = Aring;
unicode = 00C5;
},
{
glyphname = Atilde;
lastChange = "2021-08-24 05:25:00 +0000";
layers = (
{
background = {
paths = (
{
closed = 1;
nodes = (
"735 194 OFFCURVE",
"709 181 OFFCURVE",
"720 149 CURVE SMOOTH",
"738 95 OFFCURVE",
"669 52 OFFCURVE",
"637 52 CURVE",
"631 53 OFFCURVE",
"613 66 OFFCURVE",
"608 72 CURVE SMOOTH",
"573 111 OFFCURVE",
"576 248 OFFCURVE",
"569 300 CURVE SMOOTH",
"567 310 LINE",
"572 311 OFFCURVE",
"578 311 OFFCURVE",
"584 311 CURVE SMOOTH",
"594 311 OFFCURVE",
"615 300 OFFCURVE",
"615 300 CURVE",
"631 267 OFFCURVE",
"684 288 OFFCURVE",
"670 324 CURVE SMOOTH",
"657 354 OFFCURVE",
"610 368 OFFCURVE",
"584 368 CURVE",
"578 370 OFFCURVE",
"571 370 OFFCURVE",
"564 368 CURVE",
"562 382 OFFCURVE",
"562 396 OFFCURVE",
"562 412 CURVE SMOOTH",
"562 478 OFFCURVE",
"557 554 OFFCURVE",
"551 619 CURVE SMOOTH",
"550 633 OFFCURVE",
"531 632 OFFCURVE",
"532 619 CURVE SMOOTH",
"538 553 OFFCURVE",
"505 478 OFFCURVE",
"505 412 CURVE SMOOTH",
"505 391 OFFCURVE",
"505 373 OFFCURVE",
"506 356 CURVE",
"441 334 OFFCURVE",
"379 289 OFFCURVE",
"337 242 CURVE SMOOTH",
"328 232 OFFCURVE",
"342 220 OFFCURVE",
"351 230 CURVE SMOOTH",
"386 271 OFFCURVE",
"449 293 OFFCURVE",
"510 304 CURVE",
"512 292 LINE SMOOTH",
"525 223 OFFCURVE",
"523 94 OFFCURVE",
"571 39 CURVE SMOOTH",
"581 27 OFFCURVE",
"622 0 OFFCURVE",
"637 0 CURVE SMOOTH",
"713 1 OFFCURVE",
"752 128 OFFCURVE",
"743 161 CURVE SMOOTH"
);
},
{
closed = 1;
nodes = (
"545 636 OFFCURVE",
"526 673 OFFCURVE",
"502 661 CURVE SMOOTH",
"413 616 OFFCURVE",
"390 587 OFFCURVE",
"344 496 CURVE SMOOTH",
"319 449 OFFCURVE",
"314 403 OFFCURVE",
"299 354 CURVE SMOOTH",
"286 308 OFFCURVE",
"292 259 OFFCURVE",
"277 212 CURVE SMOOTH",
"265 180 OFFCURVE",
"250 143 OFFCURVE",
"240 106 CURVE SMOOTH",
"230 73 OFFCURVE",
"212 46 OFFCURVE",
"188 27 CURVE SMOOTH",
"181 22 OFFCURVE",
"162 2 OFFCURVE",
"149 2 CURVE SMOOTH",
"143 2 OFFCURVE",
"139 2 OFFCURVE",
"134 3 CURVE SMOOTH",
"110 13 OFFCURVE",
"113 12 OFFCURVE",
"92 31 CURVE SMOOTH",
"65 56 OFFCURVE",
"67 95 OFFCURVE",
"67 131 CURVE SMOOTH",
"66 179 OFFCURVE",
"65 202 OFFCURVE",
"85 233 CURVE SMOOTH",
"95 249 OFFCURVE",
"114 250 OFFCURVE",
"132 250 CURVE SMOOTH",
"151 250 OFFCURVE",
"169 226 OFFCURVE",
"169 207 CURVE SMOOTH",
"169 183 OFFCURVE",
"159 161 OFFCURVE",
"140 152 CURVE",
"140 151 LINE",
"129 146 OFFCURVE",
"137 129 OFFCURVE",
"148 134 CURVE SMOOTH",
"177 148 OFFCURVE",
"190 178 OFFCURVE",
"189 208 CURVE SMOOTH",
"189 236 OFFCURVE",
"161 271 OFFCURVE",
"132 271 CURVE SMOOTH",
"105 271 OFFCURVE",
"78 270 OFFCURVE",
"64 246 CURVE SMOOTH",
"40 208 OFFCURVE",
"18 188 OFFCURVE",
"18 131 CURVE SMOOTH",
"18 84 OFFCURVE",
"34 38 OFFCURVE",
"69 6 CURVE SMOOTH",
"84 -7 OFFCURVE",
"95 -6 OFFCURVE",
"111 -11 CURVE SMOOTH",
"124 -16 OFFCURVE",
"134 -24 OFFCURVE",
"150 -24 CURVE SMOOTH",
"170 -24 OFFCURVE",
"211 -22 OFFCURVE",
"222 -13 CURVE SMOOTH",
"252 11 OFFCURVE",
"262 54 OFFCURVE",
"274 95 CURVE SMOOTH",
"286 132 OFFCURVE",
"286 174 OFFCURVE",
"296 206 CURVE SMOOTH",
"308 244 OFFCURVE",
"324 268 OFFCURVE",
"328 307 CURVE SMOOTH",
"330 320 OFFCURVE",
"335 332 OFFCURVE",
"338 343 CURVE SMOOTH",
"364 432 OFFCURVE",
"389 498 OFFCURVE",
"455 567 CURVE SMOOTH",
"477 590 OFFCURVE",
"498 613 OFFCURVE",
"521 624 CURVE SMOOTH"
);
},
{
closed = 1;
nodes = (
"619 790 OFFCURVE",
"597 793 OFFCURVE",
"605 771 CURVE",
"607 750 OFFCURVE",
"587 743 OFFCURVE",
"576 740 CURVE SMOOTH",
"552 736 OFFCURVE",
"501 776 OFFCURVE",
"449 765 CURVE SMOOTH",
"424 759 OFFCURVE",
"411 741 OFFCURVE",
"416 710 CURVE",
"417 700 OFFCURVE",
"428 699 OFFCURVE",
"431 713 CURVE",
"428 731 OFFCURVE",
"440 738 OFFCURVE",
"452 740 CURVE SMOOTH",
"475 745 OFFCURVE",
"534 700 OFFCURVE",
"578 710 CURVE SMOOTH",
"604 716 OFFCURVE",
"625 738 OFFCURVE",
"622 771 CURVE SMOOTH"
);
}
);
};
components = (
{
name = A;
},
{
name = tildecomb.case;
transform = "{1, 0, 0, 1, 384, 245}";
}
);
layerId = "245B06BA-2FC8-4E2B-85DB-2741CBBED619";
width = 739;
}
);
note = Atilde;
unicode = 00C3;
},
{
color = 4;
glyphname = AE;
lastChange = "2021-08-25 02:19:38 +0000";
layers = (
{
anchors = (
{
name = bottom;
position = "{515, 0}";
},
{
name = ogonek;
position = "{775, 10}";
},
{
name = top;
position = "{608, 657}";
},
{
name = topleft;
position = "{626, 757}";
}
);
background = {
paths = (
{
closed = 1;
nodes = (
"704 -67 OFFCURVE",
"820 -40 OFFCURVE",
"857 -25 CURVE SMOOTH",
"939 9 OFFCURVE",
"1000 116 OFFCURVE",
"1000 203 CURVE SMOOTH",
"1000 255 OFFCURVE",
"956 309 OFFCURVE",
"902 309 CURVE SMOOTH",
"832 309 OFFCURVE",
"791 228 OFFCURVE",
"791 167 CURVE SMOOTH",
"791 137 OFFCURVE",
"802 101 OFFCURVE",
"838 101 CURVE SMOOTH",
"874 101 OFFCURVE",
"900 137 OFFCURVE",
"900 170 CURVE SMOOTH",
"900 188 OFFCURVE",
"893 204 OFFCURVE",
"874 204 CURVE SMOOTH",
"868 204 OFFCURVE",
"859 202 OFFCURVE",
"859 194 CURVE SMOOTH",
"859 175 OFFCURVE",
"883 194 OFFCURVE",
"883 170 CURVE SMOOTH",
"883 147 OFFCURVE",
"861 120 OFFCURVE",
"837 120 CURVE SMOOTH",
"818 120 OFFCURVE",
"809 147 OFFCURVE",
"809 162 CURVE SMOOTH",
"809 215 OFFCURVE",
"844 277 OFFCURVE",
"902 277 CURVE SMOOTH",
"937 277 OFFCURVE",
"952 231 OFFCURVE",
"952 202 CURVE SMOOTH",
"952 152 OFFCURVE",
"924 92 OFFCURVE",
"887 59 CURVE SMOOTH",
"855 30 OFFCURVE",
"709 -9 OFFCURVE",
"663 -9 CURVE SMOOTH",
"589 -9 OFFCURVE",
"550 90 OFFCURVE",
"550 151 CURVE SMOOTH",
"550 227 OFFCURVE",
"597 295 OFFCURVE",
"651 344 CURVE",
"670 327 OFFCURVE",
"692 318 OFFCURVE",
"717 318 CURVE SMOOTH",
"764 318 OFFCURVE",
"821 352 OFFCURVE",
"821 403 CURVE SMOOTH",
"821 432 OFFCURVE",
"795 441 OFFCURVE",
"769 441 CURVE SMOOTH",
"727 441 OFFCURVE",
"687 411 OFFCURVE",
"654 384 CURVE",
"640 409 OFFCURVE",
"633 439 OFFCURVE",
"633 468 CURVE SMOOTH",
"633 522 OFFCURVE",
"666 586 OFFCURVE",
"702 625 CURVE SMOOTH",
"729 653 OFFCURVE",
"781 656 OFFCURVE",
"816 656 CURVE SMOOTH",
"867 656 OFFCURVE",
"909 615 OFFCURVE",
"909 564 CURVE SMOOTH",
"909 536 OFFCURVE",
"894 467 OFFCURVE",
"857 467 CURVE SMOOTH",
"837 467 OFFCURVE",
"818 486 OFFCURVE",
"818 506 CURVE SMOOTH",
"818 529 OFFCURVE",
"836 547 OFFCURVE",
"850 561 CURVE",
"853 568 LINE",
"853 573 OFFCURVE",
"849 578 OFFCURVE",
"843 578 CURVE SMOOTH",
"825 578 OFFCURVE",
"799 524 OFFCURVE",
"799 507 CURVE SMOOTH",
"799 476 OFFCURVE",
"827 448 OFFCURVE",
"858 448 CURVE SMOOTH",
"906 448 OFFCURVE",
"952 521 OFFCURVE",
"952 564 CURVE SMOOTH",
"952 648 OFFCURVE",
"902 706 OFFCURVE",
"815 706 CURVE SMOOTH",
"697 706 OFFCURVE",
"607 579 OFFCURVE",
"607 468 CURVE SMOOTH",
"607 433 OFFCURVE",
"615 395 OFFCURVE",
"634 366 CURVE",
"614 348 OFFCURVE",
"594 327 OFFCURVE",
"577 305 CURVE",
"577 320 OFFCURVE",
"559 347 OFFCURVE",
"564 368 CURVE",
"560 391 OFFCURVE",
"560 421 OFFCURVE",
"560 452 CURVE SMOOTH",
"560 515 LINE SMOOTH",
"560 555 OFFCURVE",
"559 593 OFFCURVE",
"551 619 CURVE SMOOTH",
"550 623 OFFCURVE",
"545 629 OFFCURVE",
"541 629 CURVE SMOOTH",
"535 629 OFFCURVE",
"532 625 OFFCURVE",
"532 619 CURVE SMOOTH",
"532 548 OFFCURVE",
"505 482 OFFCURVE",
"505 412 CURVE SMOOTH",
"505 393 OFFCURVE",
"505 375 OFFCURVE",
"506 356 CURVE",
"468 343 OFFCURVE",
"344 273 OFFCURVE",
"334 235 CURVE",
"335 230 OFFCURVE",
"338 226 OFFCURVE",
"344 226 CURVE SMOOTH",
"346 226 OFFCURVE",
"348 227 OFFCURVE",
"351 230 CURVE SMOOTH",
"394 273 OFFCURVE",
"449 293 OFFCURVE",
"510 304 CURVE",
"513 288 OFFCURVE",
"514 158 OFFCURVE",
"519 152 CURVE",
"519 59 OFFCURVE",
"548 -67 OFFCURVE",
"664 -67 CURVE SMOOTH"
);
},
{
closed = 1;
nodes = (
"133 45 OFFCURVE",
"141 53 OFFCURVE",
"141 62 CURVE SMOOTH",
"141 71 OFFCURVE",
"133 78 OFFCURVE",
"124 78 CURVE SMOOTH",
"115 78 OFFCURVE",
"108 71 OFFCURVE",
"108 62 CURVE SMOOTH",
"108 53 OFFCURVE",
"115 45 OFFCURVE",
"124 45 CURVE SMOOTH"
);
},
{
closed = 1;
nodes = (
"195 75 OFFCURVE",
"203 83 OFFCURVE",
"203 92 CURVE SMOOTH",
"203 101 OFFCURVE",
"195 109 OFFCURVE",
"186 109 CURVE SMOOTH",
"177 109 OFFCURVE",
"169 101 OFFCURVE",
"169 92 CURVE SMOOTH",
"169 83 OFFCURVE",
"177 75 OFFCURVE",
"186 75 CURVE SMOOTH"
);
},
{
closed = 1;
nodes = (
"226 147 OFFCURVE",
"234 155 OFFCURVE",
"234 164 CURVE SMOOTH",
"234 172 OFFCURVE",
"226 180 OFFCURVE",
"217 180 CURVE SMOOTH",
"208 180 OFFCURVE",
"200 172 OFFCURVE",
"200 164 CURVE SMOOTH",
"200 155 OFFCURVE",
"208 147 OFFCURVE",
"217 147 CURVE SMOOTH"
);
},
{
closed = 1;
nodes = (
"237 218 OFFCURVE",
"245 226 OFFCURVE",
"245 235 CURVE SMOOTH",
"245 244 OFFCURVE",
"237 252 OFFCURVE",
"228 252 CURVE SMOOTH",
"220 252 OFFCURVE",
"212 244 OFFCURVE",
"212 235 CURVE SMOOTH",
"212 226 OFFCURVE",
"220 218 OFFCURVE",
"228 218 CURVE SMOOTH"
);
},
{
closed = 1;
nodes = (
"248 289 OFFCURVE",
"255 297 OFFCURVE",
"255 306 CURVE SMOOTH",
"255 315 OFFCURVE",
"248 323 OFFCURVE",
"239 323 CURVE SMOOTH",
"230 323 OFFCURVE",
"222 315 OFFCURVE",
"222 306 CURVE SMOOTH",
"222 297 OFFCURVE",
"230 289 OFFCURVE",
"239 289 CURVE SMOOTH"
);
},
{
closed = 1;
nodes = (
"167 -24 OFFCURVE",
"208 -24 OFFCURVE",
"222 -13 CURVE SMOOTH",
"278 29 OFFCURVE",
"277 144 OFFCURVE",
"296 206 CURVE SMOOTH",
"307 241 OFFCURVE",
"323 271 OFFCURVE",
"328 307 CURVE SMOOTH",
"342 398 OFFCURVE",
"392 501 OFFCURVE",
"455 567 CURVE SMOOTH",
"476 589 OFFCURVE",
"495 608 OFFCURVE",
"521 624 CURVE SMOOTH",
"528 628 OFFCURVE",
"532 633 OFFCURVE",
"532 642 CURVE SMOOTH",
"532 653 OFFCURVE",
"523 663 OFFCURVE",
"512 663 CURVE SMOOTH",
"508 663 OFFCURVE",
"505 662 OFFCURVE",
"502 661 CURVE SMOOTH",
"361 592 OFFCURVE",
"338 491 OFFCURVE",
"299 354 CURVE SMOOTH",
"286 307 OFFCURVE",
"292 258 OFFCURVE",
"277 212 CURVE SMOOTH",
"264 176 OFFCURVE",
"251 142 OFFCURVE",
"240 106 CURVE SMOOTH",
"231 75 OFFCURVE",
"214 47 OFFCURVE",
"188 27 CURVE SMOOTH",
"178 19 OFFCURVE",
"162 2 OFFCURVE",
"149 2 CURVE SMOOTH",
"68 2 OFFCURVE",
"67 95 OFFCURVE",
"67 154 CURVE SMOOTH",
"67 204 OFFCURVE",
"72 250 OFFCURVE",
"132 250 CURVE SMOOTH",
"152 250 OFFCURVE",
"169 225 OFFCURVE",
"169 207 CURVE SMOOTH",
"169 186 OFFCURVE",
"160 162 OFFCURVE",
"140 152 CURVE",
"140 151 LINE",
"134 143 LINE",
"134 140 OFFCURVE",
"137 133 OFFCURVE",
"141 133 CURVE SMOOTH",
"172 133 OFFCURVE",
"189 183 OFFCURVE",
"189 208 CURVE SMOOTH",
"189 236 OFFCURVE",
"161 271 OFFCURVE",
"132 271 CURVE SMOOTH",
"106 271 OFFCURVE",
"80 270 OFFCURVE",
"64 246 CURVE SMOOTH",
"37 206 OFFCURVE",
"18 183 OFFCURVE",
"18 131 CURVE SMOOTH",
"18 85 OFFCURVE",
"34 36 OFFCURVE",
"69 6 CURVE SMOOTH",
"83 -7 OFFCURVE",
"95 -6 OFFCURVE",
"111 -11 CURVE SMOOTH",
"124 -16 OFFCURVE",
"136 -24 OFFCURVE",
"150 -24 CURVE SMOOTH"
);
},
{
closed = 1;
nodes = (
"262 354 OFFCURVE",
"270 362 OFFCURVE",
"270 371 CURVE SMOOTH",
"270 380 OFFCURVE",
"262 388 OFFCURVE",
"253 388 CURVE SMOOTH",
"244 388 OFFCURVE",
"236 380 OFFCURVE",
"236 371 CURVE SMOOTH",
"236 362 OFFCURVE",
"244 354 OFFCURVE",
"253 354 CURVE SMOOTH"
);
},
{
closed = 1;
nodes = (
"276 405 OFFCURVE",
"283 413 OFFCURVE",
"283 422 CURVE SMOOTH",
"283 431 OFFCURVE",
"276 439 OFFCURVE",
"267 439 CURVE SMOOTH",
"258 439 OFFCURVE",
"250 431 OFFCURVE",
"250 422 CURVE SMOOTH",
"250 413 OFFCURVE",
"258 405 OFFCURVE",
"267 405 CURVE SMOOTH"
);
},
{
closed = 1;
nodes = (
"301 473 OFFCURVE",
"309 480 OFFCURVE",
"309 489 CURVE SMOOTH",
"309 498 OFFCURVE",
"301 506 OFFCURVE",
"292 506 CURVE SMOOTH",
"283 506 OFFCURVE",
"276 498 OFFCURVE",
"276 489 CURVE SMOOTH",
"276 480 OFFCURVE",
"283 473 OFFCURVE",
"292 473 CURVE SMOOTH"
);
},
{
closed = 1;
nodes = (
"327 533 OFFCURVE",
"335 541 OFFCURVE",
"335 550 CURVE SMOOTH",
"335 559 OFFCURVE",
"327 567 OFFCURVE",
"318 567 CURVE SMOOTH",
"309 567 OFFCURVE",
"301 559 OFFCURVE",
"301 550 CURVE SMOOTH",
"301 541 OFFCURVE",
"309 533 OFFCURVE",
"318 533 CURVE SMOOTH"
);
},
{
closed = 1;
nodes = (
"366 590 OFFCURVE",
"374 598 OFFCURVE",
"374 607 CURVE SMOOTH",
"374 616 OFFCURVE",
"366 624 OFFCURVE",
"357 624 CURVE SMOOTH",
"348 624 OFFCURVE",
"340 616 OFFCURVE",
"340 607 CURVE SMOOTH",
"340 598 OFFCURVE",
"348 590 OFFCURVE",
"357 590 CURVE SMOOTH"
);
},
{
closed = 1;
nodes = (
"423 641 OFFCURVE",
"431 648 OFFCURVE",
"431 657 CURVE SMOOTH",
"431 666 OFFCURVE",
"423 674 OFFCURVE",
"414 674 CURVE SMOOTH",
"405 674 OFFCURVE",
"398 666 OFFCURVE",
"398 657 CURVE SMOOTH",
"398 648 OFFCURVE",
"405 641 OFFCURVE",
"414 641 CURVE SMOOTH"
);
},
{
closed = 1;
nodes = (
"702 349 OFFCURVE",
"687 354 OFFCURVE",
"674 364 CURVE",
"700 384 OFFCURVE",
"736 414 OFFCURVE",
"769 414 CURVE SMOOTH",
"778 414 OFFCURVE",
"790 414 OFFCURVE",
"790 403 CURVE SMOOTH",
"790 370 OFFCURVE",
"746 349 OFFCURVE",
"717 349 CURVE SMOOTH"
);
}
);
};
layerId = "245B06BA-2FC8-4E2B-85DB-2741CBBED619";
paths = (
{
closed = 1;
nodes = (
"170 -24 OFFCURVE",
"211 -22 OFFCURVE",
"222 -13 CURVE SMOOTH",
"252 11 OFFCURVE",
"262 54 OFFCURVE",
"274 95 CURVE SMOOTH",
"286 132 OFFCURVE",
"286 174 OFFCURVE",
"296 206 CURVE SMOOTH",
"308 244 OFFCURVE",
"324 268 OFFCURVE",
"328 307 CURVE SMOOTH",
"330 320 OFFCURVE",
"335 332 OFFCURVE",
"338 343 CURVE SMOOTH",
"364 432 OFFCURVE",
"389 498 OFFCURVE",
"455 567 CURVE SMOOTH",
"477 590 OFFCURVE",
"498 613 OFFCURVE",
"521 624 CURVE SMOOTH",
"529 628 OFFCURVE",
"532 634 OFFCURVE",
"532 641 CURVE SMOOTH",
"532 652 OFFCURVE",
"523 663 OFFCURVE",
"511 663 CURVE SMOOTH",
"508 663 OFFCURVE",
"505 663 OFFCURVE",
"502 661 CURVE SMOOTH",
"413 616 OFFCURVE",
"390 587 OFFCURVE",
"344 496 CURVE SMOOTH",
"319 449 OFFCURVE",
"314 403 OFFCURVE",
"299 354 CURVE SMOOTH",
"286 308 OFFCURVE",
"292 259 OFFCURVE",
"277 212 CURVE SMOOTH",
"265 180 OFFCURVE",
"250 143 OFFCURVE",
"240 106 CURVE SMOOTH",
"230 73 OFFCURVE",
"212 46 OFFCURVE",
"188 27 CURVE SMOOTH",
"181 22 OFFCURVE",
"162 2 OFFCURVE",
"149 2 CURVE SMOOTH",
"143 2 OFFCURVE",
"139 2 OFFCURVE",
"134 3 CURVE",
"110 13 OFFCURVE",
"113 12 OFFCURVE",
"92 31 CURVE SMOOTH",
"68 53 OFFCURVE",
"67 85 OFFCURVE",
"67 117 CURVE SMOOTH",
"67 175 OFFCURVE",
"63 199 OFFCURVE",
"85 233 CURVE SMOOTH",
"95 249 OFFCURVE",
"114 250 OFFCURVE",
"132 250 CURVE SMOOTH",
"151 250 OFFCURVE",
"169 226 OFFCURVE",
"169 207 CURVE SMOOTH",
"169 183 OFFCURVE",
"159 161 OFFCURVE",
"140 152 CURVE",
"140 151 LINE",
"136 149 OFFCURVE",
"134 146 OFFCURVE",
"134 143 CURVE SMOOTH",
"134 138 OFFCURVE",
"138 133 OFFCURVE",
"144 133 CURVE SMOOTH",
"145 133 OFFCURVE",
"147 133 OFFCURVE",
"148 134 CURVE",
"177 148 OFFCURVE",
"190 178 OFFCURVE",
"189 208 CURVE SMOOTH",
"189 236 OFFCURVE",
"161 271 OFFCURVE",
"132 271 CURVE SMOOTH",
"105 271 OFFCURVE",
"78 270 OFFCURVE",
"64 246 CURVE SMOOTH",
"40 208 OFFCURVE",
"18 188 OFFCURVE",
"18 131 CURVE SMOOTH",
"18 84 OFFCURVE",
"34 38 OFFCURVE",
"69 6 CURVE SMOOTH",
"84 -7 OFFCURVE",
"95 -6 OFFCURVE",
"111 -11 CURVE SMOOTH",
"124 -16 OFFCURVE",
"134 -24 OFFCURVE",
"150 -24 CURVE SMOOTH"
);
},
{
closed = 1;
nodes = (
"558 267 LINE",
"565 308 OFFCURVE",
"564 348 OFFCURVE",
"564 368 CURVE",
"562 382 OFFCURVE",
"562 396 OFFCURVE",
"562 412 CURVE SMOOTH",
"562 478 OFFCURVE",
"557 554 OFFCURVE",
"551 619 CURVE SMOOTH",
"551 626 OFFCURVE",
"546 629 OFFCURVE",
"541 629 CURVE SMOOTH",
"537 629 OFFCURVE",
"532 626 OFFCURVE",
"532 620 CURVE SMOOTH",
"532 619 LINE SMOOTH",
"532 553 OFFCURVE",
"505 478 OFFCURVE",
"505 412 CURVE SMOOTH",
"505 391 OFFCURVE",
"505 373 OFFCURVE",
"506 356 CURVE",
"441 334 OFFCURVE",
"379 289 OFFCURVE",
"337 242 CURVE SMOOTH",
"330 235 OFFCURVE",
"336 226 OFFCURVE",
"343 226 CURVE SMOOTH",
"346 226 OFFCURVE",
"349 227 OFFCURVE",
"351 230 CURVE SMOOTH",
"386 271 OFFCURVE",
"449 293 OFFCURVE",
"510 304 CURVE",
"512 292 LINE SMOOTH",
"516 270 OFFCURVE",
"512 178 OFFCURVE",
"519 133 CURVE"
);
},
{
closed = 1;
nodes = (
"706 -67 OFFCURVE",
"822 -37 OFFCURVE",
"855 -25 CURVE SMOOTH",
"879 -15 OFFCURVE",
"898 3 OFFCURVE",
"919 21 CURVE SMOOTH",
"963 62 OFFCURVE",
"998 138 OFFCURVE",
"998 203 CURVE SMOOTH",
"998 259 OFFCURVE",
"951 309 OFFCURVE",
"900 309 CURVE SMOOTH",
"829 309 OFFCURVE",
"788 228 OFFCURVE",
"788 167 CURVE SMOOTH",
"788 130 OFFCURVE",
"803 101 OFFCURVE",
"836 101 CURVE SMOOTH",
"875 101 OFFCURVE",
"899 141 OFFCURVE",
"899 171 CURVE SMOOTH",
"899 191 OFFCURVE",
"888 207 OFFCURVE",
"864 203 CURVE SMOOTH",
"859 202 OFFCURVE",
"857 198 OFFCURVE",
"857 194 CURVE SMOOTH",
"857 189 OFFCURVE",
"861 184 OFFCURVE",
"866 184 CURVE SMOOTH",
"868 184 LINE SMOOTH",
"877 184 OFFCURVE",
"880 179 OFFCURVE",
"880 171 CURVE SMOOTH",
"880 152 OFFCURVE",
"863 120 OFFCURVE",
"836 120 CURVE SMOOTH",
"819 120 OFFCURVE",
"807 139 OFFCURVE",
"807 162 CURVE SMOOTH",
"807 215 OFFCURVE",
"841 277 OFFCURVE",
"899 277 CURVE SMOOTH",
"932 277 OFFCURVE",
"950 236 OFFCURVE",
"950 202 CURVE SMOOTH",
"950 150 OFFCURVE",
"920 91 OFFCURVE",
"885 59 CURVE SMOOTH",
"853 30 OFFCURVE",
"704 -9 OFFCURVE",
"661 -9 CURVE SMOOTH",
"635 -9 OFFCURVE",
"588 22 OFFCURVE",
"577 45 CURVE SMOOTH",
"559 80 OFFCURVE",
"551 112 OFFCURVE",
"551 151 CURVE SMOOTH",
"551 226 OFFCURVE",
"596 293 OFFCURVE",
"649 344 CURVE",
"665 328 OFFCURVE",
"687 318 OFFCURVE",
"715 318 CURVE SMOOTH",
"757 318 OFFCURVE",
"819 348 OFFCURVE",
"819 403 CURVE SMOOTH",
"819 433 OFFCURVE",
"792 441 OFFCURVE",
"767 441 CURVE SMOOTH",
"737 441 OFFCURVE",
"711 427 OFFCURVE",
"692 414 CURVE SMOOTH",
"679 405 OFFCURVE",
"665 395 OFFCURVE",
"652 384 CURVE",
"637 408 OFFCURVE",
"631 440 OFFCURVE",
"631 468 CURVE SMOOTH",
"631 525 OFFCURVE",
"665 585 OFFCURVE",
"700 625 CURVE SMOOTH",
"725 652 OFFCURVE",
"781 656 OFFCURVE",
"814 656 CURVE SMOOTH",
"851 656 OFFCURVE",
"885 637 OFFCURVE",
"895 605 CURVE SMOOTH",
"900 592 OFFCURVE",
"907 579 OFFCURVE",
"907 564 CURVE SMOOTH",
"907 529 OFFCURVE",
"888 467 OFFCURVE",
"855 467 CURVE SMOOTH",
"833 467 OFFCURVE",
"816 486 OFFCURVE",
"816 506 CURVE SMOOTH",
"816 526 OFFCURVE",
"831 545 OFFCURVE",
"848 561 CURVE SMOOTH",
"855 568 OFFCURVE",
"849 578 OFFCURVE",
"841 578 CURVE SMOOTH",
"839 578 OFFCURVE",
"837 577 OFFCURVE",
"835 575 CURVE SMOOTH",
"819 560 OFFCURVE",
"797 536 OFFCURVE",
"797 507 CURVE SMOOTH",
"797 476 OFFCURVE",
"823 448 OFFCURVE",
"856 448 CURVE SMOOTH",
"901 448 OFFCURVE",
"950 516 OFFCURVE",
"950 564 CURVE SMOOTH",
"950 582 OFFCURVE",
"948 601 OFFCURVE",
"942 619 CURVE SMOOTH",
"924 680 OFFCURVE",
"865 706 OFFCURVE",
"813 706 CURVE SMOOTH",
"771 706 OFFCURVE",
"708 679 OFFCURVE",
"678 645 CURVE SMOOTH",
"639 600 OFFCURVE",
"605 532 OFFCURVE",
"605 468 CURVE SMOOTH",
"605 435 OFFCURVE",
"613 395 OFFCURVE",
"632 366 CURVE",
"569 310 OFFCURVE",
"512 235 OFFCURVE",
"517 152 CURVE SMOOTH",
"520 106 OFFCURVE",
"517 67 OFFCURVE",
"537 25 CURVE SMOOTH",
"562 -27 OFFCURVE",
"599 -67 OFFCURVE",
"662 -67 CURVE SMOOTH"
);
},
{
closed = 1;
nodes = (
"698 349 OFFCURVE",
"683 355 OFFCURVE",
"672 364 CURVE",
"696 383 OFFCURVE",
"735 414 OFFCURVE",
"767 414 CURVE SMOOTH",
"776 414 OFFCURVE",
"788 414 OFFCURVE",
"788 403 CURVE SMOOTH",
"788 375 OFFCURVE",
"751 349 OFFCURVE",
"715 349 CURVE SMOOTH"
);
}
);
width = 1033;
}
);
leftMetricsKey = A;
note = AE;
rightMetricsKey = E;
unicode = 00C6;
},
{
color = 4;
glyphname = B;
lastChange = "2021-08-24 08:46:40 +0000";
layers = (
{
layerId = "245B06BA-2FC8-4E2B-85DB-2741CBBED619";
paths = (
{
closed = 1;
nodes = (
"123 -104 OFFCURVE",
"143 -105 OFFCURVE",
"158 -97 CURVE SMOOTH",
"263 -38 OFFCURVE",
"298 99 OFFCURVE",
"305 212 CURVE",
"312 202 OFFCURVE",
"327 196 OFFCURVE",
"346 196 CURVE SMOOTH",
"356 196 OFFCURVE",
"411 226 OFFCURVE",
"419 230 CURVE",
"421 232 LINE",
"452 246 OFFCURVE",
"486 256 OFFCURVE",
"516 279 CURVE",
"533 263 OFFCURVE",
"545 241 OFFCURVE",
"545 218 CURVE",
"547 211 OFFCURVE",
"545 204 OFFCURVE",
"544 197 CURVE SMOOTH",
"538 147 OFFCURVE",
"501 1 OFFCURVE",
"424 1 CURVE SMOOTH",
"410 1 OFFCURVE",
"393 20 OFFCURVE",
"393 35 CURVE SMOOTH",
"393 42 OFFCURVE",
"390 49 OFFCURVE",
"390 54 CURVE SMOOTH",
"390 56 OFFCURVE",
"391 57 OFFCURVE",
"391 58 CURVE",
"394 68 OFFCURVE",
"392 77 OFFCURVE",
"394 85 CURVE SMOOTH",
"397 92 OFFCURVE",
"390 97 OFFCURVE",
"384 97 CURVE SMOOTH",
"380 97 OFFCURVE",
"377 95 OFFCURVE",
"375 91 CURVE",
"373 83 OFFCURVE",
"364 77 OFFCURVE",
"361 68 CURVE SMOOTH",
"358 57 OFFCURVE",
"351 47 OFFCURVE",
"351 32 CURVE SMOOTH",
"351 -6 OFFCURVE",
"390 -58 OFFCURVE",
"424 -58 CURVE SMOOTH",
"538 -57 OFFCURVE",
"599 154 OFFCURVE",
"599 208 CURVE SMOOTH",
"599 246 OFFCURVE",
"580 285 OFFCURVE",
"550 310 CURVE",
"587 351 OFFCURVE",
"618 393 OFFCURVE",
"618 456 CURVE SMOOTH",
"618 515 OFFCURVE",
"564 554 OFFCURVE",
"519 578 CURVE SMOOTH",
"445 615 OFFCURVE",
"385 626 OFFCURVE",
"305 626 CURVE",
"268 623 LINE",
"272 682 OFFCURVE",
"290 734 OFFCURVE",
"338 735 CURVE SMOOTH",
"355 735 OFFCURVE",
"365 720 OFFCURVE",
"366 703 CURVE SMOOTH",
"366 689 OFFCURVE",
"351 676 OFFCURVE",
"340 669 CURVE SMOOTH",
"332 663 OFFCURVE",
"339 652 OFFCURVE",
"347 652 CURVE SMOOTH",
"349 652 OFFCURVE",
"351 652 OFFCURVE",
"353 654 CURVE SMOOTH",
"367 666 OFFCURVE",
"388 681 OFFCURVE",
"388 704 CURVE SMOOTH",
"388 731 OFFCURVE",
"365 755 OFFCURVE",
"338 755 CURVE SMOOTH",
"279 755 OFFCURVE",
"249 690 OFFCURVE",
"236 619 CURVE",
"207 613 OFFCURVE",
"180 605 OFFCURVE",
"152 596 CURVE SMOOTH",
"96 579 OFFCURVE",
"-2 503 OFFCURVE",
"-2 429 CURVE SMOOTH",
"-2 375 OFFCURVE",
"27 337 OFFCURVE",
"83 337 CURVE SMOOTH",
"96 337 OFFCURVE",
"104 343 OFFCURVE",
"118 343 CURVE SMOOTH",
"124 343 OFFCURVE",
"127 347 OFFCURVE",
"127 352 CURVE SMOOTH",
"127 356 OFFCURVE",
"124 361 OFFCURVE",
"118 361 CURVE SMOOTH",
"104 361 OFFCURVE",
"96 358 OFFCURVE",
"83 358 CURVE SMOOTH",
"53 360 OFFCURVE",
"29 403 OFFCURVE",
"29 430 CURVE SMOOTH",
"29 490 OFFCURVE",
"120 541 OFFCURVE",
"166 554 CURVE SMOOTH",
"187 561 OFFCURVE",
"208 566 OFFCURVE",
"230 568 CURVE",
"229 554 OFFCURVE",
"228 540 OFFCURVE",
"228 527 CURVE SMOOTH",
"228 507 OFFCURVE",
"230 489 OFFCURVE",
"232 475 CURVE SMOOTH",
"243 405 OFFCURVE",
"249 328 OFFCURVE",
"249 259 CURVE SMOOTH",
"249 139 OFFCURVE",
"218 4 OFFCURVE",
"130 -46 CURVE SMOOTH",
"123 -50 OFFCURVE",
"118 -59 OFFCURVE",
"112 -59 CURVE SMOOTH",
"84 -59 OFFCURVE",
"66 -43 OFFCURVE",
"57 -19 CURVE SMOOTH",
"50 -3 OFFCURVE",
"43 11 OFFCURVE",
"43 29 CURVE SMOOTH",
"43 42 OFFCURVE",
"42 54 OFFCURVE",
"42 66 CURVE SMOOTH",
"42 79 OFFCURVE",
"43 90 OFFCURVE",
"46 100 CURVE SMOOTH",
"48 107 OFFCURVE",
"42 111 OFFCURVE",
"37 111 CURVE SMOOTH",
"33 111 OFFCURVE",
"29 109 OFFCURVE",
"28 104 CURVE SMOOTH",
"21 83 OFFCURVE",
"15 56 OFFCURVE",
"15 29 CURVE SMOOTH",
"16 -25 OFFCURVE",
"50 -104 OFFCURVE",
"113 -104 CURVE SMOOTH"
);
},
{
closed = 1;
nodes = (
"352 254 OFFCURVE",
"364 264 OFFCURVE",
"372 270 CURVE",
"407 291 OFFCURVE",
"433 296 OFFCURVE",
"474 296 CURVE",
"454 277 OFFCURVE",
"433 260 OFFCURVE",
"411 249 CURVE SMOOTH",
"409 248 LINE SMOOTH",
"402 245 OFFCURVE",
"358 236 OFFCURVE",
"352 240 CURVE",
"351 240 LINE"
);
},
{
closed = 1;
nodes = (
"307 264 LINE SMOOTH",
"307 335 OFFCURVE",
"284 412 OFFCURVE",
"273 483 CURVE SMOOTH",
"270 503 OFFCURVE",
"267 536 OFFCURVE",
"265 572 CURVE",
"279 573 OFFCURVE",
"292 573 OFFCURVE",
"306 573 CURVE SMOOTH",
"328 573 OFFCURVE",
"355 571 OFFCURVE",
"375 568 CURVE SMOOTH",
"421 561 OFFCURVE",
"564 518 OFFCURVE",
"564 459 CURVE SMOOTH",
"564 406 OFFCURVE",
"540 368 OFFCURVE",
"508 335 CURVE",
"498 337 OFFCURVE",
"487 339 OFFCURVE",
"475 339 CURVE SMOOTH",
"423 339 OFFCURVE",
"391 332 OFFCURVE",
"348 304 CURVE SMOOTH",
"336 295 OFFCURVE",
"317 281 OFFCURVE",
"307 263 CURVE"
);
}
);
width = 620;
}
);
note = B;
unicode = 0042;
},
{
color = 4;
glyphname = C;
lastChange = "2021-08-24 08:46:40 +0000";
layers = (
{
anchors = (
{
name = bottom;
position = "{291, -10}";
},
{
name = top;
position = "{314, 675}";
}
);
layerId = "245B06BA-2FC8-4E2B-85DB-2741CBBED619";
paths = (
{
closed = 1;
nodes = (
"309 -25 OFFCURVE",
"358 -16 OFFCURVE",
"399 21 CURVE SMOOTH",
"433 55 OFFCURVE",
"461 111 OFFCURVE",
"463 165 CURVE SMOOTH",
"463 213 OFFCURVE",
"420 261 OFFCURVE",
"370 261 CURVE SMOOTH",
"317 261 OFFCURVE",
"295 214 OFFCURVE",
"295 171 CURVE SMOOTH",
"295 164 OFFCURVE",
"296 158 OFFCURVE",
"297 151 CURVE SMOOTH",
"298 146 OFFCURVE",
"302 144 OFFCURVE",
"306 144 CURVE SMOOTH",
"311 144 OFFCURVE",
"316 147 OFFCURVE",
"316 153 CURVE SMOOTH",
"316 155 LINE SMOOTH",
"315 160 OFFCURVE",
"315 166 OFFCURVE",
"315 171 CURVE SMOOTH",
"315 203 OFFCURVE",
"330 240 OFFCURVE",
"370 240 CURVE SMOOTH",
"403 240 OFFCURVE",
"418 195 OFFCURVE",
"418 164 CURVE SMOOTH",
"418 124 OFFCURVE",
"385 90 OFFCURVE",
"358 65 CURVE SMOOTH",
"334 41 OFFCURVE",
"301 34 OFFCURVE",
"260 34 CURVE SMOOTH",
"140 34 OFFCURVE",
"77 195 OFFCURVE",
"77 323 CURVE SMOOTH",
"77 349 OFFCURVE",
"82 378 OFFCURVE",
"87 403 CURVE SMOOTH",
"110 495 OFFCURVE",
"200 645 OFFCURVE",
"312 645 CURVE SMOOTH",
"343 645 OFFCURVE",
"367 634 OFFCURVE",
"384 613 CURVE SMOOTH",
"399 594 OFFCURVE",
"410 575 OFFCURVE",
"410 553 CURVE SMOOTH",
"409 513 OFFCURVE",
"373 450 OFFCURVE",
"338 450 CURVE SMOOTH",
"325 450 OFFCURVE",
"304 459 OFFCURVE",
"304 473 CURVE SMOOTH",
"304 496 OFFCURVE",
"318 523 OFFCURVE",
"339 532 CURVE",
"340 532 LINE",
"344 534 OFFCURVE",
"346 537 OFFCURVE",
"346 540 CURVE SMOOTH",
"346 546 OFFCURVE",
"342 551 OFFCURVE",
"336 551 CURVE SMOOTH",
"335 551 OFFCURVE",
"334 550 OFFCURVE",
"333 550 CURVE",
"320 544 OFFCURVE",
"301 534 OFFCURVE",
"297 529 CURVE SMOOTH",
"283 512 OFFCURVE",
"278 486 OFFCURVE",
"278 473 CURVE SMOOTH",
"278 448 OFFCURVE",
"316 431 OFFCURVE",
"338 431 CURVE SMOOTH",
"390 431 OFFCURVE",
"428 512 OFFCURVE",
"428 553 CURVE SMOOTH",
"428 606 OFFCURVE",
"368 675 OFFCURVE",
"314 675 CURVE SMOOTH",
"190 675 OFFCURVE",
"57 528 OFFCURVE",
"29 418 CURVE SMOOTH",
"21 386 OFFCURVE",
"19 354 OFFCURVE",
"19 327 CURVE SMOOTH",
"20 203 OFFCURVE",
"81 -24 OFFCURVE",
"262 -25 CURVE SMOOTH"
);
}
);
width = 485;
}
);
note = C;
unicode = 0043;
},
{
glyphname = Ccedilla;
lastChange = "2021-08-24 05:15:51 +0000";
layers = (
{
background = {
paths = (
{
closed = 1;
nodes = (
"399 -84 OFFCURVE",
"327 -54 OFFCURVE",
"246 -54 CURVE SMOOTH",
"235 -54 OFFCURVE",
"223 -55 OFFCURVE",
"211 -57 CURVE",
"214 -45 OFFCURVE",
"216 -31 OFFCURVE",
"218 -19 CURVE",
"232 -22 OFFCURVE",
"246 -25 OFFCURVE",
"262 -25 CURVE SMOOTH",
"309 -25 OFFCURVE",
"358 -16 OFFCURVE",
"399 21 CURVE SMOOTH",
"433 55 OFFCURVE",
"461 111 OFFCURVE",
"463 165 CURVE SMOOTH",
"463 213 OFFCURVE",
"420 261 OFFCURVE",
"370 261 CURVE SMOOTH",
"308 261 OFFCURVE",
"289 197 OFFCURVE",
"297 151 CURVE SMOOTH",
"299 139 OFFCURVE",
"318 142 OFFCURVE",
"316 155 CURVE SMOOTH",
"310 189 OFFCURVE",
"323 240 OFFCURVE",
"370 240 CURVE SMOOTH",
"402 240 OFFCURVE",
"418 197 OFFCURVE",
"418 166 CURVE SMOOTH",
"419 125 OFFCURVE",
"385 90 OFFCURVE",
"358 65 CURVE SMOOTH",
"334 41 OFFCURVE",
"302 34 OFFCURVE",
"262 34 CURVE SMOOTH",
"140 32 OFFCURVE",
"76 197 OFFCURVE",
"77 326 CURVE SMOOTH",
"77 351 OFFCURVE",
"82 379 OFFCURVE",
"87 403 CURVE SMOOTH",
"110 495 OFFCURVE",
"200 645 OFFCURVE",
"312 645 CURVE SMOOTH",
"343 645 OFFCURVE",
"367 634 OFFCURVE",
"384 613 CURVE SMOOTH",
"399 594 OFFCURVE",
"410 575 OFFCURVE",
"410 553 CURVE SMOOTH",
"409 513 OFFCURVE",
"372 449 OFFCURVE",
"337 450 CURVE SMOOTH",
"324 450 OFFCURVE",
"304 459 OFFCURVE",
"304 473 CURVE SMOOTH",
"304 496 OFFCURVE",
"318 523 OFFCURVE",
"339 532 CURVE",
"340 532 LINE",
"352 536 OFFCURVE",
"345 554 OFFCURVE",
"333 550 CURVE SMOOTH",
"320 544 OFFCURVE",
"301 534 OFFCURVE",
"297 529 CURVE SMOOTH",
"283 512 OFFCURVE",
"278 486 OFFCURVE",
"278 473 CURVE SMOOTH",
"278 449 OFFCURVE",
"314 432 OFFCURVE",
"336 431 CURVE SMOOTH",
"389 429 OFFCURVE",
"428 512 OFFCURVE",
"428 553 CURVE SMOOTH",
"428 606 OFFCURVE",
"368 675 OFFCURVE",
"314 675 CURVE SMOOTH",
"190 675 OFFCURVE",
"57 528 OFFCURVE",
"29 418 CURVE SMOOTH",
"21 386 OFFCURVE",
"19 354 OFFCURVE",
"19 327 CURVE SMOOTH",
"20 220 OFFCURVE",
"65 35 OFFCURVE",
"195 -12 CURVE",
"192 -34 OFFCURVE",
"188 -52 OFFCURVE",
"178 -71 CURVE SMOOTH",
"172 -84 OFFCURVE",
"180 -93 OFFCURVE",
"194 -87 CURVE SMOOTH",
"211 -81 OFFCURVE",
"230 -78 OFFCURVE",
"246 -78 CURVE SMOOTH",
"320 -78 OFFCURVE",
"353 -99 OFFCURVE",
"353 -160 CURVE SMOOTH",
"353 -224 OFFCURVE",
"277 -267 OFFCURVE",
"211 -267 CURVE SMOOTH",
"175 -267 OFFCURVE",
"69 -267 OFFCURVE",
"69 -213 CURVE SMOOTH",
"69 -181 OFFCURVE",
"93 -150 OFFCURVE",
"125 -150 CURVE SMOOTH",
"194 -150 OFFCURVE",
"190 -202 OFFCURVE",
"162 -189 CURVE SMOOTH",
"148 -184 OFFCURVE",
"138 -206 OFFCURVE",
"153 -213 CURVE SMOOTH",
"175 -222 OFFCURVE",
"203 -217 OFFCURVE",
"203 -187 CURVE SMOOTH",
"203 -137 OFFCURVE",
"172 -125 OFFCURVE",
"125 -125 CURVE SMOOTH",
"85 -125 OFFCURVE",
"32 -156 OFFCURVE",
"32 -207 CURVE SMOOTH",
"32 -282 OFFCURVE",
"158 -301 OFFCURVE",
"209 -301 CURVE SMOOTH",
"279 -301 OFFCURVE",
"399 -250 OFFCURVE",
"399 -165 CURVE SMOOTH"
);
}
);
};
components = (
{
name = C;
},
{
name = cedillacomb;
transform = "{1, 0, 0, 1, 194, -10}";
}
);
layerId = "245B06BA-2FC8-4E2B-85DB-2741CBBED619";
width = 485;
}
);
note = Ccedilla;
unicode = 00C7;
},
{
color = 4;
glyphname = D;
lastChange = "2021-08-24 08:46:40 +0000";
layers = (
{
anchors = (
{
name = bottom;
position = "{374, 0}";
},
{
name = center;
position = "{334, 296}";
},
{
name = top;
position = "{556, 615}";
}
);
layerId = "245B06BA-2FC8-4E2B-85DB-2741CBBED619";
paths = (
{
closed = 1;
nodes = (
"179 -52 OFFCURVE",
"197 -52 OFFCURVE",
"221 -34 CURVE SMOOTH",
"241 -18 OFFCURVE",
"259 1 OFFCURVE",
"273 24 CURVE",
"303 15 OFFCURVE",
"334 4 OFFCURVE",
"366 4 CURVE SMOOTH",
"493 4 OFFCURVE",
"650 94 OFFCURVE",
"676 160 CURVE SMOOTH",
"701 221 OFFCURVE",
"716 293 OFFCURVE",
"716 365 CURVE SMOOTH",
"716 487 OFFCURVE",
"590 585 OFFCURVE",
"469 605 CURVE SMOOTH",
"446 608 OFFCURVE",
"430 608 OFFCURVE",
"405 608 CURVE SMOOTH",
"360 608 OFFCURVE",
"315 604 OFFCURVE",
"271 595 CURVE",
"269 605 OFFCURVE",
"267 615 OFFCURVE",
"267 627 CURVE SMOOTH",
"267 687 OFFCURVE",
"296 762 OFFCURVE",
"352 763 CURVE SMOOTH",
"374 763 OFFCURVE",
"394 747 OFFCURVE",
"394 723 CURVE SMOOTH",
"394 700 OFFCURVE",
"375 675 OFFCURVE",
"347 671 CURVE",
"342 671 OFFCURVE",
"340 666 OFFCURVE",
"340 662 CURVE SMOOTH",
"340 657 OFFCURVE",
"343 652 OFFCURVE",
"349 652 CURVE SMOOTH",
"351 652 LINE SMOOTH",
"388 656 OFFCURVE",
"413 690 OFFCURVE",
"413 721 CURVE SMOOTH",
"412 757 OFFCURVE",
"385 784 OFFCURVE",
"351 784 CURVE SMOOTH",
"284 784 OFFCURVE",
"244 698 OFFCURVE",
"244 627 CURVE SMOOTH",
"244 613 OFFCURVE",
"243 601 OFFCURVE",
"244 589 CURVE",
"208 580 OFFCURVE",
"174 568 OFFCURVE",
"141 556 CURVE SMOOTH",
"105 542 OFFCURVE",
"26 502 OFFCURVE",
"26 448 CURVE SMOOTH",
"26 420 OFFCURVE",
"47 419 OFFCURVE",
"66 419 CURVE SMOOTH",
"88 420 OFFCURVE",
"106 427 OFFCURVE",
"128 433 CURVE",
"129 433 LINE",
"133 435 OFFCURVE",
"135 438 OFFCURVE",
"135 442 CURVE SMOOTH",
"135 447 OFFCURVE",
"131 452 OFFCURVE",
"126 452 CURVE SMOOTH",
"125 452 OFFCURVE",
"123 452 OFFCURVE",
"122 451 CURVE",
"104 445 OFFCURVE",
"86 438 OFFCURVE",
"66 438 CURVE SMOOTH",
"57 439 OFFCURVE",
"45 436 OFFCURVE",
"45 447 CURVE SMOOTH",
"46 486 OFFCURVE",
"110 523 OFFCURVE",
"149 539 CURVE SMOOTH",
"179 551 OFFCURVE",
"212 559 OFFCURVE",
"245 563 CURVE",
"250 514 OFFCURVE",
"251 460 OFFCURVE",
"261 417 CURVE SMOOTH",
"274 356 OFFCURVE",
"276 295 OFFCURVE",
"276 236 CURVE SMOOTH",
"276 178 OFFCURVE",
"261 120 OFFCURVE",
"235 74 CURVE",
"213 77 OFFCURVE",
"192 80 OFFCURVE",
"174 84 CURVE SMOOTH",
"161 87 OFFCURVE",
"156 93 OFFCURVE",
"145 93 CURVE SMOOTH",
"136 93 OFFCURVE",
"131 87 OFFCURVE",
"131 80 CURVE SMOOTH",
"131 75 OFFCURVE",
"134 70 OFFCURVE",
"141 68 CURVE SMOOTH",
"167 62 OFFCURVE",
"192 50 OFFCURVE",
"215 41 CURVE",
"205 30 OFFCURVE",
"195 20 OFFCURVE",
"185 12 CURVE SMOOTH",
"172 3 OFFCURVE",
"166 -4 OFFCURVE",
"150 -4 CURVE SMOOTH",
"120 -3 OFFCURVE",
"81 18 OFFCURVE",
"71 44 CURVE SMOOTH",
"59 71 OFFCURVE",
"57 92 OFFCURVE",
"57 121 CURVE SMOOTH",
"57 140 OFFCURVE",
"59 162 OFFCURVE",
"63 177 CURVE SMOOTH",
"71 212 OFFCURVE",
"116 307 OFFCURVE",
"158 306 CURVE SMOOTH",
"183 306 OFFCURVE",
"193 275 OFFCURVE",
"193 245 CURVE SMOOTH",
"193 233 OFFCURVE",
"191 221 OFFCURVE",
"188 211 CURVE SMOOTH",
"186 203 OFFCURVE",
"192 198 OFFCURVE",
"198 198 CURVE SMOOTH",
"201 198 OFFCURVE",
"205 200 OFFCURVE",
"206 205 CURVE SMOOTH",
"209 216 OFFCURVE",
"211 229 OFFCURVE",
"211 243 CURVE SMOOTH",
"211 285 OFFCURVE",
"194 329 OFFCURVE",
"160 329 CURVE SMOOTH",
"125 329 OFFCURVE",
"97 297 OFFCURVE",
"78 268 CURVE SMOOTH",
"49 223 OFFCURVE",
"32 175 OFFCURVE",
"32 121 CURVE SMOOTH",
"32 87 OFFCURVE",
"37 64 OFFCURVE",
"48 35 CURVE SMOOTH",
"63 -2 OFFCURVE",
"106 -50 OFFCURVE",
"150 -52 CURVE SMOOTH"
);
},
{
closed = 1;
nodes = (
"311 62 OFFCURVE",
"303 62 OFFCURVE",
"296 63 CURVE",
"296 64 LINE",
"320 116 OFFCURVE",
"334 179 OFFCURVE",
"334 237 CURVE SMOOTH",
"334 296 OFFCURVE",
"333 363 OFFCURVE",
"318 430 CURVE SMOOTH",
"308 474 OFFCURVE",
"283 521 OFFCURVE",
"274 568 CURVE",
"317 572 OFFCURVE",
"361 573 OFFCURVE",
"404 573 CURVE SMOOTH",
"520 573 OFFCURVE",
"669 497 OFFCURVE",
"669 367 CURVE SMOOTH",
"669 308 OFFCURVE",
"656 236 OFFCURVE",
"627 192 CURVE SMOOTH",
"592 138 OFFCURVE",
"470 64 OFFCURVE",
"364 63 CURVE SMOOTH",
"349 63 OFFCURVE",
"334 62 OFFCURVE",
"319 62 CURVE SMOOTH"
);
}
);
width = 748;
}
);
note = D;
unicode = 0044;
},
{
color = 4;
glyphname = E;
lastChange = "2021-08-24 08:46:40 +0000";
layers = (
{
anchors = (
{
name = bottom;
position = "{269, -46}";
},
{
name = ogonek;
position = "{454, 21}";
},
{
name = top;
position = "{348, 706}";
},
{
name = topleft;
position = "{20, 757}";
}
);
layerId = "245B06BA-2FC8-4E2B-85DB-2741CBBED619";
paths = (
{
closed = 1;
nodes = (
"241 -67 OFFCURVE",
"357 -37 OFFCURVE",
"390 -25 CURVE SMOOTH",
"414 -15 OFFCURVE",
"433 3 OFFCURVE",
"454 21 CURVE SMOOTH",
"498 62 OFFCURVE",
"533 138 OFFCURVE",
"533 203 CURVE SMOOTH",
"533 259 OFFCURVE",
"486 309 OFFCURVE",
"435 309 CURVE SMOOTH",
"364 309 OFFCURVE",
"323 228 OFFCURVE",
"323 167 CURVE SMOOTH",
"323 130 OFFCURVE",
"338 101 OFFCURVE",
"371 101 CURVE SMOOTH",
"410 101 OFFCURVE",
"434 141 OFFCURVE",
"434 171 CURVE SMOOTH",
"434 191 OFFCURVE",
"423 207 OFFCURVE",
"399 203 CURVE SMOOTH",
"394 202 OFFCURVE",
"392 198 OFFCURVE",
"392 194 CURVE SMOOTH",
"392 189 OFFCURVE",
"396 184 OFFCURVE",
"401 184 CURVE SMOOTH",
"403 184 LINE SMOOTH",
"412 185 OFFCURVE",
"415 179 OFFCURVE",
"415 171 CURVE SMOOTH",
"415 152 OFFCURVE",
"398 120 OFFCURVE",
"371 120 CURVE SMOOTH",
"354 120 OFFCURVE",
"342 139 OFFCURVE",
"342 162 CURVE SMOOTH",
"342 215 OFFCURVE",
"376 277 OFFCURVE",
"434 277 CURVE SMOOTH",
"467 277 OFFCURVE",
"485 236 OFFCURVE",
"485 202 CURVE SMOOTH",
"485 150 OFFCURVE",
"455 91 OFFCURVE",
"420 59 CURVE SMOOTH",
"388 30 OFFCURVE",
"239 -9 OFFCURVE",
"196 -9 CURVE SMOOTH",
"170 -9 OFFCURVE",
"123 22 OFFCURVE",
"112 45 CURVE SMOOTH",
"94 81 OFFCURVE",
"83 112 OFFCURVE",
"83 151 CURVE SMOOTH",
"83 226 OFFCURVE",
"129 293 OFFCURVE",
"184 344 CURVE",
"200 328 OFFCURVE",
"222 318 OFFCURVE",
"250 318 CURVE SMOOTH",
"292 318 OFFCURVE",
"354 348 OFFCURVE",
"354 403 CURVE SMOOTH",
"354 433 OFFCURVE",
"327 441 OFFCURVE",
"302 441 CURVE SMOOTH",
"272 441 OFFCURVE",
"246 427 OFFCURVE",
"227 414 CURVE SMOOTH",
"214 405 OFFCURVE",
"200 395 OFFCURVE",
"187 384 CURVE",
"172 408 OFFCURVE",
"166 440 OFFCURVE",
"166 468 CURVE SMOOTH",
"166 525 OFFCURVE",
"200 585 OFFCURVE",
"235 625 CURVE SMOOTH",
"260 652 OFFCURVE",
"316 656 OFFCURVE",
"349 656 CURVE SMOOTH",
"386 656 OFFCURVE",
"420 637 OFFCURVE",
"430 605 CURVE SMOOTH",
"435 592 OFFCURVE",
"442 579 OFFCURVE",
"442 564 CURVE SMOOTH",
"442 529 OFFCURVE",
"423 467 OFFCURVE",
"390 467 CURVE SMOOTH",
"368 467 OFFCURVE",
"351 486 OFFCURVE",
"351 506 CURVE SMOOTH",
"351 526 OFFCURVE",
"366 545 OFFCURVE",
"383 561 CURVE SMOOTH",
"390 568 OFFCURVE",
"384 578 OFFCURVE",
"376 578 CURVE SMOOTH",
"374 578 OFFCURVE",
"372 577 OFFCURVE",
"370 575 CURVE SMOOTH",
"354 560 OFFCURVE",
"332 536 OFFCURVE",
"332 507 CURVE SMOOTH",
"332 476 OFFCURVE",
"358 448 OFFCURVE",
"391 448 CURVE SMOOTH",
"436 448 OFFCURVE",
"485 516 OFFCURVE",
"485 564 CURVE SMOOTH",
"485 582 OFFCURVE",
"483 601 OFFCURVE",
"477 619 CURVE SMOOTH",
"459 680 OFFCURVE",
"400 706 OFFCURVE",
"348 706 CURVE SMOOTH",
"306 706 OFFCURVE",
"243 679 OFFCURVE",
"213 645 CURVE SMOOTH",
"174 600 OFFCURVE",
"140 532 OFFCURVE",
"140 468 CURVE SMOOTH",
"140 435 OFFCURVE",
"148 395 OFFCURVE",
"167 366 CURVE",
"104 310 OFFCURVE",
"52 235 OFFCURVE",
"52 152 CURVE SMOOTH",
"52 106 OFFCURVE",
"52 67 OFFCURVE",
"72 25 CURVE SMOOTH",
"97 -27 OFFCURVE",
"134 -67 OFFCURVE",
"197 -67 CURVE SMOOTH"
);
},
{
closed = 1;
nodes = (
"233 349 OFFCURVE",
"218 355 OFFCURVE",
"207 364 CURVE",
"231 383 OFFCURVE",
"270 414 OFFCURVE",
"302 414 CURVE SMOOTH",
"311 414 OFFCURVE",
"323 414 OFFCURVE",
"323 403 CURVE SMOOTH",
"323 375 OFFCURVE",
"286 349 OFFCURVE",
"250 349 CURVE SMOOTH"
);
}
);
width = 568;
}
);
note = E;
unicode = 0045;
},
{
glyphname = Eacute;
lastChange = "2021-08-24 05:17:31 +0000";
layers = (
{
background = {
paths = (
{
closed = 1;
nodes = (
"533 259 OFFCURVE",
"486 309 OFFCURVE",
"435 309 CURVE SMOOTH",
"321 309 OFFCURVE",
"284 100 OFFCURVE",
"371 101 CURVE SMOOTH",
"437 101 OFFCURVE",
"458 213 OFFCURVE",
"399 203 CURVE SMOOTH",
"388 200 OFFCURVE",
"391 181 OFFCURVE",
"403 184 CURVE SMOOTH",
"430 188 OFFCURVE",
"410 119 OFFCURVE",
"370 120 CURVE SMOOTH",
"354 120 OFFCURVE",
"342 139 OFFCURVE",
"342 162 CURVE SMOOTH",
"342 215 OFFCURVE",
"377 278 OFFCURVE",
"435 277 CURVE SMOOTH",
"467 277 OFFCURVE",
"485 236 OFFCURVE",
"485 202 CURVE SMOOTH",
"485 150 OFFCURVE",
"455 91 OFFCURVE",
"420 59 CURVE SMOOTH",
"388 30 OFFCURVE",
"239 -9 OFFCURVE",
"196 -9 CURVE SMOOTH",
"170 -9 OFFCURVE",
"123 22 OFFCURVE",
"112 45 CURVE SMOOTH",
"94 81 OFFCURVE",
"83 112 OFFCURVE",
"83 151 CURVE SMOOTH",
"83 226 OFFCURVE",
"129 293 OFFCURVE",
"184 344 CURVE",
"200 328 OFFCURVE",
"222 318 OFFCURVE",
"250 318 CURVE SMOOTH",
"292 318 OFFCURVE",
"354 348 OFFCURVE",
"354 403 CURVE SMOOTH",
"354 433 OFFCURVE",
"327 441 OFFCURVE",
"302 441 CURVE SMOOTH",
"272 441 OFFCURVE",
"246 427 OFFCURVE",
"227 414 CURVE SMOOTH",
"214 405 OFFCURVE",
"200 395 OFFCURVE",
"187 384 CURVE",
"172 408 OFFCURVE",
"166 440 OFFCURVE",
"166 468 CURVE SMOOTH",
"166 525 OFFCURVE",
"200 585 OFFCURVE",
"235 625 CURVE SMOOTH",
"260 652 OFFCURVE",
"316 656 OFFCURVE",
"349 656 CURVE SMOOTH",
"386 656 OFFCURVE",
"420 637 OFFCURVE",
"430 605 CURVE SMOOTH",
"435 592 OFFCURVE",
"442 579 OFFCURVE",
"442 564 CURVE SMOOTH",
"442 529 OFFCURVE",
"423 467 OFFCURVE",
"390 467 CURVE SMOOTH",
"368 467 OFFCURVE",
"351 486 OFFCURVE",
"351 506 CURVE SMOOTH",
"351 526 OFFCURVE",
"366 545 OFFCURVE",
"383 561 CURVE SMOOTH",
"392 570 OFFCURVE",
"379 584 OFFCURVE",
"370 575 CURVE SMOOTH",
"354 560 OFFCURVE",
"332 536 OFFCURVE",
"332 507 CURVE SMOOTH",
"332 476 OFFCURVE",
"358 448 OFFCURVE",
"391 448 CURVE SMOOTH",
"436 448 OFFCURVE",
"485 516 OFFCURVE",
"485 564 CURVE SMOOTH",
"485 582 OFFCURVE",
"483 601 OFFCURVE",
"477 619 CURVE SMOOTH",
"459 680 OFFCURVE",
"400 706 OFFCURVE",
"348 706 CURVE SMOOTH",
"306 706 OFFCURVE",
"243 679 OFFCURVE",
"213 645 CURVE SMOOTH",
"174 600 OFFCURVE",
"140 532 OFFCURVE",
"140 468 CURVE SMOOTH",
"140 435 OFFCURVE",
"148 395 OFFCURVE",
"167 366 CURVE",
"104 310 OFFCURVE",
"52 235 OFFCURVE",
"52 152 CURVE SMOOTH",
"52 106 OFFCURVE",
"52 67 OFFCURVE",
"72 25 CURVE SMOOTH",
"97 -27 OFFCURVE",
"134 -67 OFFCURVE",
"197 -67 CURVE SMOOTH",
"241 -67 OFFCURVE",
"357 -37 OFFCURVE",
"390 -25 CURVE SMOOTH",
"414 -15 OFFCURVE",
"433 3 OFFCURVE",
"454 21 CURVE SMOOTH",
"498 62 OFFCURVE",
"533 138 OFFCURVE",
"533 203 CURVE SMOOTH"
);
},
{
closed = 1;
nodes = (
"323 375 OFFCURVE",
"286 349 OFFCURVE",
"250 349 CURVE SMOOTH",
"233 349 OFFCURVE",
"218 355 OFFCURVE",
"207 364 CURVE",
"231 383 OFFCURVE",
"270 414 OFFCURVE",
"302 414 CURVE SMOOTH",
"311 414 OFFCURVE",
"323 414 OFFCURVE",
"323 403 CURVE SMOOTH"
);
},
{
closed = 1;
nodes = (
"428 830 OFFCURVE",
"418 833 OFFCURVE",
"408 829 CURVE SMOOTH",
"368 812 OFFCURVE",
"323 781 OFFCURVE",
"282 766 CURVE SMOOTH",
"267 760 OFFCURVE",
"276 746 OFFCURVE",
"291 752 CURVE SMOOTH",
"333 766 OFFCURVE",
"386 767 OFFCURVE",
"426 785 CURVE SMOOTH",
"446 794 OFFCURVE",
"445 824 OFFCURVE",
"431 829 CURVE SMOOTH"
);
}
);
};
components = (
{
name = E;
},
{
name = acutecomb.case;
transform = "{1, 0, 0, 1, 280, 294}";
}
);
layerId = "245B06BA-2FC8-4E2B-85DB-2741CBBED619";
width = 568;
}
);
note = Eacute;
unicode = 00C9;
},
{
glyphname = Ecircumflex;
lastChange = "2021-08-24 05:25:06 +0000";
layers = (
{
background = {
paths = (
{
closed = 1;
nodes = (
"533 259 OFFCURVE",
"486 309 OFFCURVE",
"435 309 CURVE SMOOTH",
"321 309 OFFCURVE",
"284 100 OFFCURVE",
"371 101 CURVE SMOOTH",
"437 101 OFFCURVE",
"458 213 OFFCURVE",
"399 203 CURVE SMOOTH",
"388 200 OFFCURVE",
"391 181 OFFCURVE",
"403 184 CURVE SMOOTH",
"430 188 OFFCURVE",
"410 119 OFFCURVE",
"370 120 CURVE SMOOTH",
"354 120 OFFCURVE",
"342 139 OFFCURVE",
"342 162 CURVE SMOOTH",
"342 215 OFFCURVE",
"377 278 OFFCURVE",
"435 277 CURVE SMOOTH",
"467 277 OFFCURVE",
"485 236 OFFCURVE",
"485 202 CURVE SMOOTH",
"485 150 OFFCURVE",
"455 91 OFFCURVE",
"420 59 CURVE SMOOTH",
"388 30 OFFCURVE",
"239 -9 OFFCURVE",
"196 -9 CURVE SMOOTH",
"170 -9 OFFCURVE",
"123 22 OFFCURVE",
"112 45 CURVE SMOOTH",
"94 81 OFFCURVE",
"83 112 OFFCURVE",
"83 151 CURVE SMOOTH",
"83 226 OFFCURVE",
"129 293 OFFCURVE",
"184 344 CURVE",
"200 328 OFFCURVE",
"222 318 OFFCURVE",
"250 318 CURVE SMOOTH",
"292 318 OFFCURVE",
"354 348 OFFCURVE",
"354 403 CURVE SMOOTH",
"354 433 OFFCURVE",
"327 441 OFFCURVE",
"302 441 CURVE SMOOTH",
"272 441 OFFCURVE",
"246 427 OFFCURVE",
"227 414 CURVE SMOOTH",
"214 405 OFFCURVE",
"200 395 OFFCURVE",
"187 384 CURVE",
"172 408 OFFCURVE",
"166 440 OFFCURVE",
"166 468 CURVE SMOOTH",
"166 525 OFFCURVE",
"200 585 OFFCURVE",
"235 625 CURVE SMOOTH",
"260 652 OFFCURVE",
"316 656 OFFCURVE",
"349 656 CURVE SMOOTH",
"386 656 OFFCURVE",
"420 637 OFFCURVE",
"430 605 CURVE SMOOTH",
"435 592 OFFCURVE",
"442 579 OFFCURVE",
"442 564 CURVE SMOOTH",
"442 529 OFFCURVE",
"423 467 OFFCURVE",
"390 467 CURVE SMOOTH",
"368 467 OFFCURVE",
"351 486 OFFCURVE",
"351 506 CURVE SMOOTH",
"351 526 OFFCURVE",
"366 545 OFFCURVE",
"383 561 CURVE SMOOTH",
"392 570 OFFCURVE",
"379 584 OFFCURVE",
"370 575 CURVE SMOOTH",
"354 560 OFFCURVE",
"332 536 OFFCURVE",
"332 507 CURVE SMOOTH",
"332 476 OFFCURVE",
"358 448 OFFCURVE",
"391 448 CURVE SMOOTH",
"436 448 OFFCURVE",
"485 516 OFFCURVE",
"485 564 CURVE SMOOTH",
"485 582 OFFCURVE",
"483 601 OFFCURVE",
"477 619 CURVE SMOOTH",
"459 680 OFFCURVE",
"400 706 OFFCURVE",
"348 706 CURVE SMOOTH",
"306 706 OFFCURVE",
"243 679 OFFCURVE",
"213 645 CURVE SMOOTH",
"174 600 OFFCURVE",
"140 532 OFFCURVE",
"140 468 CURVE SMOOTH",
"140 435 OFFCURVE",
"148 395 OFFCURVE",
"167 366 CURVE",
"104 310 OFFCURVE",
"52 235 OFFCURVE",
"52 152 CURVE SMOOTH",
"52 106 OFFCURVE",
"52 67 OFFCURVE",
"72 25 CURVE SMOOTH",
"97 -27 OFFCURVE",
"134 -67 OFFCURVE",
"197 -67 CURVE SMOOTH",
"241 -67 OFFCURVE",
"357 -37 OFFCURVE",
"390 -25 CURVE SMOOTH",
"414 -15 OFFCURVE",
"433 3 OFFCURVE",
"454 21 CURVE SMOOTH",
"498 62 OFFCURVE",
"533 138 OFFCURVE",
"533 203 CURVE SMOOTH"
);
},
{
closed = 1;
nodes = (
"323 375 OFFCURVE",
"286 349 OFFCURVE",
"250 349 CURVE SMOOTH",
"233 349 OFFCURVE",
"218 355 OFFCURVE",
"207 364 CURVE",
"231 383 OFFCURVE",
"270 414 OFFCURVE",
"302 414 CURVE SMOOTH",
"311 414 OFFCURVE",
"323 414 OFFCURVE",
"323 403 CURVE SMOOTH"
);
},
{
closed = 1;
nodes = (
"436 780 OFFCURVE",
"364 834 OFFCURVE",
"361 834 CURVE SMOOTH",
"335 834 OFFCURVE",
"278 778 OFFCURVE",
"261 762 CURVE SMOOTH",
"246 747 OFFCURVE",
"256 740 OFFCURVE",
"271 752 CURVE SMOOTH",
"286 763 OFFCURVE",
"312 769 OFFCURVE",
"343 790 CURVE SMOOTH",
"353 796 OFFCURVE",
"362 792 OFFCURVE",
"376 783 CURVE SMOOTH",
"398 769 OFFCURVE",
"427 764 OFFCURVE",
"447 753 CURVE SMOOTH",
"464 744 OFFCURVE",
"467 760 OFFCURVE",
"450 771 CURVE SMOOTH"
);
}
);
};
components = (
{
name = E;
},
{
name = circumflexcomb.case;
transform = "{1, 0, 0, 1, 206, 294}";
}
);
layerId = "245B06BA-2FC8-4E2B-85DB-2741CBBED619";
width = 568;
}
);
note = Ecircumflex;
unicode = 00CA;
},
{
glyphname = Edieresis;
lastChange = "2021-08-24 05:25:06 +0000";
layers = (
{
background = {
paths = (
{
closed = 1;
nodes = (
"467 801 OFFCURVE",
"446 812 OFFCURVE",
"427 812 CURVE SMOOTH",
"407 812 OFFCURVE",
"386 794 OFFCURVE",
"390 773 CURVE SMOOTH",
"392 754 OFFCURVE",
"407 740 OFFCURVE",
"427 740 CURVE SMOOTH",
"446 740 OFFCURVE",
"467 762 OFFCURVE",
"467 781 CURVE SMOOTH"
);
},
{
closed = 1;
nodes = (
"310 796 OFFCURVE",
"296 813 OFFCURVE",
"277 813 CURVE SMOOTH",
"256 813 OFFCURVE",
"241 796 OFFCURVE",
"239 776 CURVE SMOOTH",
"235 756 OFFCURVE",
"256 739 OFFCURVE",
"277 739 CURVE SMOOTH",
"296 739 OFFCURVE",
"310 757 OFFCURVE",
"310 776 CURVE SMOOTH"
);
},
{
closed = 1;
nodes = (
"533 259 OFFCURVE",
"486 309 OFFCURVE",
"435 309 CURVE SMOOTH",
"321 309 OFFCURVE",
"284 100 OFFCURVE",
"371 101 CURVE SMOOTH",
"437 101 OFFCURVE",
"458 213 OFFCURVE",
"399 203 CURVE SMOOTH",
"388 200 OFFCURVE",
"391 181 OFFCURVE",
"403 184 CURVE SMOOTH",
"430 188 OFFCURVE",
"410 119 OFFCURVE",
"370 120 CURVE SMOOTH",
"354 120 OFFCURVE",
"342 139 OFFCURVE",
"342 162 CURVE SMOOTH",
"342 215 OFFCURVE",
"377 278 OFFCURVE",
"435 277 CURVE SMOOTH",
"467 277 OFFCURVE",
"485 236 OFFCURVE",
"485 202 CURVE SMOOTH",
"485 150 OFFCURVE",
"455 91 OFFCURVE",
"420 59 CURVE SMOOTH",
"388 30 OFFCURVE",
"239 -9 OFFCURVE",
"196 -9 CURVE SMOOTH",
"170 -9 OFFCURVE",
"123 22 OFFCURVE",
"112 45 CURVE SMOOTH",
"94 81 OFFCURVE",
"83 112 OFFCURVE",
"83 151 CURVE SMOOTH",
"83 226 OFFCURVE",
"129 293 OFFCURVE",
"184 344 CURVE",
"200 328 OFFCURVE",
"222 318 OFFCURVE",
"250 318 CURVE SMOOTH",
"292 318 OFFCURVE",
"354 348 OFFCURVE",
"354 403 CURVE SMOOTH",
"354 433 OFFCURVE",
"327 441 OFFCURVE",
"302 441 CURVE SMOOTH",
"272 441 OFFCURVE",
"246 427 OFFCURVE",
"227 414 CURVE SMOOTH",
"214 405 OFFCURVE",
"200 395 OFFCURVE",
"187 384 CURVE",
"172 408 OFFCURVE",
"166 440 OFFCURVE",
"166 468 CURVE SMOOTH",
"166 525 OFFCURVE",
"200 585 OFFCURVE",
"235 625 CURVE SMOOTH",
"260 652 OFFCURVE",
"316 656 OFFCURVE",
"349 656 CURVE SMOOTH",
"386 656 OFFCURVE",
"420 637 OFFCURVE",
"430 605 CURVE SMOOTH",
"435 592 OFFCURVE",
"442 579 OFFCURVE",
"442 564 CURVE SMOOTH",
"442 529 OFFCURVE",
"423 467 OFFCURVE",
"390 467 CURVE SMOOTH",
"368 467 OFFCURVE",
"351 486 OFFCURVE",
"351 506 CURVE SMOOTH",
"351 526 OFFCURVE",
"366 545 OFFCURVE",
"383 561 CURVE SMOOTH",
"392 570 OFFCURVE",
"379 584 OFFCURVE",
"370 575 CURVE SMOOTH",
"354 560 OFFCURVE",
"332 536 OFFCURVE",
"332 507 CURVE SMOOTH",
"332 476 OFFCURVE",
"358 448 OFFCURVE",
"391 448 CURVE SMOOTH",
"436 448 OFFCURVE",
"485 516 OFFCURVE",
"485 564 CURVE SMOOTH",
"485 582 OFFCURVE",
"483 601 OFFCURVE",
"477 619 CURVE SMOOTH",
"459 680 OFFCURVE",
"400 706 OFFCURVE",
"348 706 CURVE SMOOTH",
"306 706 OFFCURVE",
"243 679 OFFCURVE",
"213 645 CURVE SMOOTH",
"174 600 OFFCURVE",
"140 532 OFFCURVE",
"140 468 CURVE SMOOTH",
"140 435 OFFCURVE",
"148 395 OFFCURVE",
"167 366 CURVE",
"104 310 OFFCURVE",
"52 235 OFFCURVE",
"52 152 CURVE SMOOTH",
"52 106 OFFCURVE",
"52 67 OFFCURVE",
"72 25 CURVE SMOOTH",
"97 -27 OFFCURVE",
"134 -67 OFFCURVE",
"197 -67 CURVE SMOOTH",
"241 -67 OFFCURVE",
"357 -37 OFFCURVE",
"390 -25 CURVE SMOOTH",
"414 -15 OFFCURVE",
"433 3 OFFCURVE",
"454 21 CURVE SMOOTH",
"498 62 OFFCURVE",
"533 138 OFFCURVE",
"533 203 CURVE SMOOTH"
);
},
{
closed = 1;
nodes = (
"323 375 OFFCURVE",
"286 349 OFFCURVE",
"250 349 CURVE SMOOTH",
"233 349 OFFCURVE",
"218 355 OFFCURVE",
"207 364 CURVE",
"231 383 OFFCURVE",
"270 414 OFFCURVE",
"302 414 CURVE SMOOTH",
"311 414 OFFCURVE",
"323 414 OFFCURVE",
"323 403 CURVE SMOOTH"
);
}
);
};
components = (
{
name = E;
},
{
name = dieresiscomb.case;
transform = "{1, 0, 0, 1, 252, 294}";
}
);
layerId = "245B06BA-2FC8-4E2B-85DB-2741CBBED619";
width = 568;
}
);
note = Edieresis;
unicode = 00CB;
},
{
glyphname = Egrave;
lastChange = "2021-08-24 05:25:06 +0000";
layers = (
{
background = {
paths = (
{
closed = 1;
nodes = (
"533 259 OFFCURVE",
"486 309 OFFCURVE",
"435 309 CURVE SMOOTH",
"321 309 OFFCURVE",
"284 100 OFFCURVE",
"371 101 CURVE SMOOTH",
"437 101 OFFCURVE",
"458 213 OFFCURVE",
"399 203 CURVE SMOOTH",
"388 200 OFFCURVE",
"391 181 OFFCURVE",
"403 184 CURVE SMOOTH",
"430 188 OFFCURVE",
"410 119 OFFCURVE",
"370 120 CURVE SMOOTH",
"354 120 OFFCURVE",
"342 139 OFFCURVE",
"342 162 CURVE SMOOTH",
"342 215 OFFCURVE",
"377 278 OFFCURVE",
"435 277 CURVE SMOOTH",
"467 277 OFFCURVE",
"485 236 OFFCURVE",
"485 202 CURVE SMOOTH",
"485 150 OFFCURVE",
"455 91 OFFCURVE",
"420 59 CURVE SMOOTH",
"388 30 OFFCURVE",
"239 -9 OFFCURVE",
"196 -9 CURVE SMOOTH",
"170 -9 OFFCURVE",
"123 22 OFFCURVE",
"112 45 CURVE SMOOTH",
"94 81 OFFCURVE",
"83 112 OFFCURVE",
"83 151 CURVE SMOOTH",
"83 226 OFFCURVE",
"129 293 OFFCURVE",
"184 344 CURVE",
"200 328 OFFCURVE",
"222 318 OFFCURVE",
"250 318 CURVE SMOOTH",
"292 318 OFFCURVE",
"354 348 OFFCURVE",
"354 403 CURVE SMOOTH",
"354 433 OFFCURVE",
"327 441 OFFCURVE",
"302 441 CURVE SMOOTH",
"272 441 OFFCURVE",
"246 427 OFFCURVE",
"227 414 CURVE SMOOTH",
"214 405 OFFCURVE",
"200 395 OFFCURVE",
"187 384 CURVE",
"172 408 OFFCURVE",
"166 440 OFFCURVE",
"166 468 CURVE SMOOTH",
"166 525 OFFCURVE",
"200 585 OFFCURVE",
"235 625 CURVE SMOOTH",
"260 652 OFFCURVE",
"316 656 OFFCURVE",
"349 656 CURVE SMOOTH",
"386 656 OFFCURVE",
"420 637 OFFCURVE",
"430 605 CURVE SMOOTH",
"435 592 OFFCURVE",
"442 579 OFFCURVE",
"442 564 CURVE SMOOTH",
"442 529 OFFCURVE",
"423 467 OFFCURVE",
"390 467 CURVE SMOOTH",
"368 467 OFFCURVE",
"351 486 OFFCURVE",
"351 506 CURVE SMOOTH",
"351 526 OFFCURVE",
"366 545 OFFCURVE",
"383 561 CURVE SMOOTH",
"392 570 OFFCURVE",
"379 584 OFFCURVE",
"370 575 CURVE SMOOTH",
"354 560 OFFCURVE",
"332 536 OFFCURVE",
"332 507 CURVE SMOOTH",
"332 476 OFFCURVE",
"358 448 OFFCURVE",
"391 448 CURVE SMOOTH",
"436 448 OFFCURVE",
"485 516 OFFCURVE",
"485 564 CURVE SMOOTH",
"485 582 OFFCURVE",
"483 601 OFFCURVE",
"477 619 CURVE SMOOTH",
"459 680 OFFCURVE",
"400 706 OFFCURVE",
"348 706 CURVE SMOOTH",
"306 706 OFFCURVE",
"243 679 OFFCURVE",
"213 645 CURVE SMOOTH",
"174 600 OFFCURVE",
"140 532 OFFCURVE",
"140 468 CURVE SMOOTH",
"140 435 OFFCURVE",
"148 395 OFFCURVE",
"167 366 CURVE",
"104 310 OFFCURVE",
"52 235 OFFCURVE",
"52 152 CURVE SMOOTH",
"52 106 OFFCURVE",
"52 67 OFFCURVE",
"72 25 CURVE SMOOTH",
"97 -27 OFFCURVE",
"134 -67 OFFCURVE",
"197 -67 CURVE SMOOTH",
"241 -67 OFFCURVE",
"357 -37 OFFCURVE",
"390 -25 CURVE SMOOTH",
"414 -15 OFFCURVE",
"433 3 OFFCURVE",
"454 21 CURVE SMOOTH",
"498 62 OFFCURVE",
"533 138 OFFCURVE",
"533 203 CURVE SMOOTH"
);
},
{
closed = 1;
nodes = (
"323 375 OFFCURVE",
"286 349 OFFCURVE",
"250 349 CURVE SMOOTH",
"233 349 OFFCURVE",
"218 355 OFFCURVE",
"207 364 CURVE",
"231 383 OFFCURVE",
"270 414 OFFCURVE",
"302 414 CURVE SMOOTH",
"311 414 OFFCURVE",
"323 414 OFFCURVE",
"323 403 CURVE SMOOTH"
);
},
{
closed = 1;
nodes = (
"250 827 OFFCURVE",
"249 796 OFFCURVE",
"269 787 CURVE SMOOTH",
"308 769 OFFCURVE",
"362 768 OFFCURVE",
"403 754 CURVE SMOOTH",
"419 748 OFFCURVE",
"428 763 OFFCURVE",
"412 768 CURVE SMOOTH",
"372 783 OFFCURVE",
"326 814 OFFCURVE",
"287 831 CURVE SMOOTH",
"277 836 OFFCURVE",
"267 832 OFFCURVE",
"263 831 CURVE SMOOTH"
);
}
);
};
components = (
{
name = E;
},
{
name = gravecomb.case;
transform = "{1, 0, 0, 1, 247, 294}";
}
);
layerId = "245B06BA-2FC8-4E2B-85DB-2741CBBED619";
width = 568;
}
);
note = Egrave;
unicode = 00C8;
},
{
glyphname = Eogonek;
lastChange = "2021-08-24 05:25:06 +0000";
layers = (
{
background = {
paths = (
{
closed = 1;
nodes = (
"428 340 OFFCURVE",
"389 383 OFFCURVE",
"345 383 CURVE SMOOTH",
"251 383 OFFCURVE",
"218 206 OFFCURVE",
"292 207 CURVE SMOOTH",
"347 207 OFFCURVE",
"365 301 OFFCURVE",
"316 293 CURVE",
"307 291 OFFCURVE",
"309 276 OFFCURVE",
"319 278 CURVE SMOOTH",
"342 281 OFFCURVE",
"325 222 OFFCURVE",
"290 223 CURVE SMOOTH",
"278 223 OFFCURVE",
"267 240 OFFCURVE",
"267 260 CURVE SMOOTH",
"267 304 OFFCURVE",
"297 356 OFFCURVE",
"345 356 CURVE SMOOTH",
"373 355 OFFCURVE",
"389 321 OFFCURVE",
"389 292 CURVE SMOOTH",
"389 249 OFFCURVE",
"362 198 OFFCURVE",
"333 172 CURVE SMOOTH",
"307 148 OFFCURVE",
"180 114 OFFCURVE",
"144 114 CURVE SMOOTH",
"122 114 OFFCURVE",
"84 141 OFFCURVE",
"73 159 CURVE SMOOTH",
"58 190 OFFCURVE",
"49 217 OFFCURVE",
"49 250 CURVE SMOOTH",
"49 314 OFFCURVE",
"87 370 OFFCURVE",
"134 412 CURVE",
"149 399 OFFCURVE",
"166 391 OFFCURVE",
"189 391 CURVE SMOOTH",
"225 391 OFFCURVE",
"278 417 OFFCURVE",
"278 463 CURVE SMOOTH",
"278 488 OFFCURVE",
"254 495 OFFCURVE",
"233 495 CURVE SMOOTH",
"208 495 OFFCURVE",
"187 483 OFFCURVE",
"171 472 CURVE SMOOTH",
"159 465 OFFCURVE",
"149 456 OFFCURVE",
"137 447 CURVE",
"124 467 OFFCURVE",
"120 495 OFFCURVE",
"120 517 CURVE SMOOTH",
"120 567 OFFCURVE",
"148 617 OFFCURVE",
"178 650 CURVE SMOOTH",
"197 673 OFFCURVE",
"245 676 OFFCURVE",
"273 676 CURVE SMOOTH",
"305 676 OFFCURVE",
"333 661 OFFCURVE",
"342 633 CURVE SMOOTH",
"345 623 OFFCURVE",
"352 612 OFFCURVE",
"352 599 CURVE SMOOTH",
"352 569 OFFCURVE",
"336 517 OFFCURVE",
"308 517 CURVE SMOOTH",
"289 517 OFFCURVE",
"274 533 OFFCURVE",
"274 550 CURVE SMOOTH",
"274 567 OFFCURVE",
"288 582 OFFCURVE",
"302 597 CURVE SMOOTH",
"310 604 OFFCURVE",
"298 616 OFFCURVE",
"290 607 CURVE SMOOTH",
"278 596 OFFCURVE",
"259 576 OFFCURVE",
"259 550 CURVE SMOOTH",
"259 524 OFFCURVE",
"281 502 OFFCURVE",
"309 502 CURVE SMOOTH",
"346 502 OFFCURVE",
"389 559 OFFCURVE",
"389 599 CURVE SMOOTH",
"389 614 OFFCURVE",
"386 631 OFFCURVE",
"382 646 CURVE SMOOTH",
"366 697 OFFCURVE",
"316 718 OFFCURVE",
"273 718 CURVE SMOOTH",
"237 718 OFFCURVE",
"185 696 OFFCURVE",
"159 668 CURVE SMOOTH",
"124 631 OFFCURVE",
"97 571 OFFCURVE",
"97 517 CURVE SMOOTH",
"97 489 OFFCURVE",
"103 456 OFFCURVE",
"120 432 CURVE",
"66 384 OFFCURVE",
"22 320 OFFCURVE",
"22 251 CURVE SMOOTH",
"22 212 OFFCURVE",
"22 178 OFFCURVE",
"40 142 CURVE SMOOTH",
"62 100 OFFCURVE",
"93 65 OFFCURVE",
"146 65 CURVE SMOOTH",
"181 65 OFFCURVE",
"280 91 OFFCURVE",
"308 101 CURVE SMOOTH",
"329 109 OFFCURVE",
"345 125 OFFCURVE",
"362 140 CURVE SMOOTH",
"399 175 OFFCURVE",
"428 239 OFFCURVE",
"428 293 CURVE SMOOTH"
);
},
{
closed = 1;
nodes = (
"251 439 OFFCURVE",
"221 418 OFFCURVE",
"189 418 CURVE SMOOTH",
"175 418 OFFCURVE",
"164 421 OFFCURVE",
"153 429 CURVE",
"174 446 OFFCURVE",
"207 472 OFFCURVE",
"233 472 CURVE SMOOTH",
"242 472 OFFCURVE",
"251 472 OFFCURVE",
"251 463 CURVE SMOOTH"
);
},
{
closed = 1;
nodes = (
"290 -57 OFFCURVE",
"286 -54 OFFCURVE",
"278 -54 CURVE SMOOTH",
"277 -54 OFFCURVE",
"265 -58 OFFCURVE",
"244 -66 CURVE SMOOTH",
"223 -74 OFFCURVE",
"206 -80 OFFCURVE",
"194 -80 CURVE SMOOTH",
"160 -80 OFFCURVE",
"143 -64 OFFCURVE",
"143 -34 CURVE SMOOTH",
"143 -3 OFFCURVE",
"156 29 OFFCURVE",
"181 65 CURVE",
"178 68 LINE",
"161 67 OFFCURVE",
"144 49 OFFCURVE",
"129 13 CURVE SMOOTH",
"114 -19 OFFCURVE",
"108 -45 OFFCURVE",
"108 -64 CURVE SMOOTH",
"108 -95 OFFCURVE",
"128 -111 OFFCURVE",
"169 -111 CURVE SMOOTH",
"184 -111 OFFCURVE",
"206 -106 OFFCURVE",
"236 -96 CURVE SMOOTH",
"272 -84 OFFCURVE",
"290 -74 OFFCURVE",
"290 -64 CURVE SMOOTH"
);
}
);
};
components = (
{
name = E;
},
{
name = ogonekcomb;
transform = "{1, 0, 0, 1, 365, 15}";
}
);
layerId = "245B06BA-2FC8-4E2B-85DB-2741CBBED619";
width = 568;
}
);
unicode = 0118;
},
{
color = 4;
glyphname = F;
lastChange = "2021-08-24 08:46:40 +0000";
layers = (
{
layerId = "245B06BA-2FC8-4E2B-85DB-2741CBBED619";
paths = (
{
closed = 1;
nodes = (
"345 -55 OFFCURVE",
"367 -38 OFFCURVE",
"391 -15 CURVE SMOOTH",
"447 43 OFFCURVE",
"495 86 OFFCURVE",
"517 167 CURVE SMOOTH",
"521 184 OFFCURVE",
"522 201 OFFCURVE",
"522 219 CURVE SMOOTH",
"522 251 LINE SMOOTH",
"522 304 OFFCURVE",
"515 345 OFFCURVE",
"515 393 CURVE",
"516 393 LINE SMOOTH",
"528 390 OFFCURVE",
"540 389 OFFCURVE",
"551 389 CURVE SMOOTH",
"606 389 OFFCURVE",
"649 421 OFFCURVE",
"665 442 CURVE SMOOTH",
"670 449 OFFCURVE",
"663 453 OFFCURVE",
"655 453 CURVE SMOOTH",
"651 453 OFFCURVE",
"646 452 OFFCURVE",
"643 449 CURVE SMOOTH",
"614 423 OFFCURVE",
"590 424 OFFCURVE",
"572 421 CURVE SMOOTH",
"554 419 OFFCURVE",
"534 424 OFFCURVE",
"515 431 CURVE",
"516 461 OFFCURVE",
"515 489 OFFCURVE",
"515 517 CURVE",
"550 495 OFFCURVE",
"588 483 OFFCURVE",
"632 483 CURVE SMOOTH",
"684 483 OFFCURVE",
"743 534 OFFCURVE",
"743 589 CURVE SMOOTH",
"741 633 OFFCURVE",
"711 660 OFFCURVE",
"677 660 CURVE SMOOTH",
"667 660 OFFCURVE",
"657 658 OFFCURVE",
"647 653 CURVE SMOOTH",
"644 651 OFFCURVE",
"642 647 OFFCURVE",
"642 644 CURVE SMOOTH",
"642 639 OFFCURVE",
"646 634 OFFCURVE",
"651 634 CURVE SMOOTH",
"653 634 OFFCURVE",
"654 634 OFFCURVE",
"656 635 CURVE SMOOTH",
"662 639 OFFCURVE",
"669 640 OFFCURVE",
"675 640 CURVE SMOOTH",
"698 640 OFFCURVE",
"719 619 OFFCURVE",
"719 589 CURVE SMOOTH",
"718 548 OFFCURVE",
"671 512 OFFCURVE",
"632 512 CURVE SMOOTH",
"588 512 OFFCURVE",
"550 540 OFFCURVE",
"514 572 CURVE",
"515 614 OFFCURVE",
"517 643 OFFCURVE",
"542 676 CURVE SMOOTH",
"547 684 OFFCURVE",
"540 692 OFFCURVE",
"533 692 CURVE SMOOTH",
"530 692 OFFCURVE",
"527 691 OFFCURVE",
"525 688 CURVE SMOOTH",
"503 657 OFFCURVE",
"489 633 OFFCURVE",
"485 599 CURVE",
"460 624 OFFCURVE",
"435 647 OFFCURVE",
"408 661 CURVE SMOOTH",
"372 680 OFFCURVE",
"312 698 OFFCURVE",
"271 698 CURVE SMOOTH",
"207 698 OFFCURVE",
"134 670 OFFCURVE",
"91 632 CURVE SMOOTH",
"51 597 OFFCURVE",
"30 528 OFFCURVE",
"30 481 CURVE SMOOTH",
"30 445 OFFCURVE",
"41 421 OFFCURVE",
"58 392 CURVE SMOOTH",
"74 364 OFFCURVE",
"88 342 OFFCURVE",
"126 342 CURVE SMOOTH",
"195 342 OFFCURVE",
"259 409 OFFCURVE",
"259 474 CURVE SMOOTH",
"259 513 OFFCURVE",
"251 556 OFFCURVE",
"196 556 CURVE SMOOTH",
"190 556 OFFCURVE",
"187 551 OFFCURVE",
"187 546 CURVE SMOOTH",
"187 541 OFFCURVE",
"190 536 OFFCURVE",
"196 536 CURVE SMOOTH",
"232 536 OFFCURVE",
"240 513 OFFCURVE",
"240 475 CURVE SMOOTH",
"239 420 OFFCURVE",
"183 366 OFFCURVE",
"123 365 CURVE SMOOTH",
"105 365 OFFCURVE",
"96 375 OFFCURVE",
"88 389 CURVE SMOOTH",
"65 424 OFFCURVE",
"55 452 OFFCURVE",
"55 476 CURVE SMOOTH",
"55 515 OFFCURVE",
"81 546 OFFCURVE",
"129 588 CURVE SMOOTH",
"161 617 OFFCURVE",
"221 640 OFFCURVE",
"270 640 CURVE SMOOTH",
"300 640 OFFCURVE",
"351 625 OFFCURVE",
"381 609 CURVE SMOOTH",
"418 590 OFFCURVE",
"451 566 OFFCURVE",
"484 540 CURVE",
"483 507 OFFCURVE",
"480 476 OFFCURVE",
"478 441 CURVE",
"475 442 OFFCURVE",
"472 442 OFFCURVE",
"468 442 CURVE SMOOTH",
"455 444 OFFCURVE",
"448 445 OFFCURVE",
"435 445 CURVE SMOOTH",
"405 445 OFFCURVE",
"381 423 OFFCURVE",
"360 407 CURVE",
"354 400 OFFCURVE",
"359 390 OFFCURVE",
"367 390 CURVE SMOOTH",
"369 390 OFFCURVE",
"371 390 OFFCURVE",
"373 392 CURVE SMOOTH",
"388 405 OFFCURVE",
"409 412 OFFCURVE",
"430 412 CURVE SMOOTH",
"442 412 OFFCURVE",
"449 411 OFFCURVE",
"460 410 CURVE SMOOTH",
"466 410 OFFCURVE",
"472 409 OFFCURVE",
"477 407 CURVE",
"476 353 OFFCURVE",
"482 308 OFFCURVE",
"482 251 CURVE SMOOTH",
"482 225 OFFCURVE",
"467 204 OFFCURVE",
"460 181 CURVE SMOOTH",
"446 129 OFFCURVE",
"414 91 OFFCURVE",
"368 46 CURVE SMOOTH",
"353 30 OFFCURVE",
"334 3 OFFCURVE",
"309 3 CURVE SMOOTH",
"290 3 OFFCURVE",
"228 40 OFFCURVE",
"220 59 CURVE SMOOTH",
"205 88 OFFCURVE",
"193 122 OFFCURVE",
"193 158 CURVE SMOOTH",
"193 202 OFFCURVE",
"214 255 OFFCURVE",
"236 288 CURVE SMOOTH",
"243 297 OFFCURVE",
"246 306 OFFCURVE",
"252 312 CURVE",
"272 340 OFFCURVE",
"295 354 OFFCURVE",
"330 354 CURVE SMOOTH",
"364 354 OFFCURVE",
"383 300 OFFCURVE",
"383 269 CURVE SMOOTH",
"382 222 OFFCURVE",
"366 149 OFFCURVE",
"316 149 CURVE SMOOTH",
"284 149 OFFCURVE",
"276 172 OFFCURVE",
"274 203 CURVE SMOOTH",
"274 228 OFFCURVE",
"296 261 OFFCURVE",
"319 261 CURVE SMOOTH",
"327 261 OFFCURVE",
"334 244 OFFCURVE",
"336 239 CURVE SMOOTH",
"338 235 OFFCURVE",
"341 233 OFFCURVE",
"345 233 CURVE SMOOTH",
"349 233 OFFCURVE",
"354 237 OFFCURVE",
"354 242 CURVE SMOOTH",
"354 243 OFFCURVE",
"354 245 OFFCURVE",
"353 246 CURVE",
"346 262 OFFCURVE",
"340 282 OFFCURVE",
"319 282 CURVE SMOOTH",
"287 282 OFFCURVE",
"251 239 OFFCURVE",
"251 202 CURVE SMOOTH",
"250 159 OFFCURVE",
"269 127 OFFCURVE",
"317 127 CURVE SMOOTH",
"379 127 OFFCURVE",
"405 211 OFFCURVE",
"405 269 CURVE SMOOTH",
"405 309 OFFCURVE",
"373 374 OFFCURVE",
"330 374 CURVE SMOOTH",
"302 374 OFFCURVE",
"284 367 OFFCURVE",
"256 347 CURVE SMOOTH",
"208 312 OFFCURVE",
"152 209 OFFCURVE",
"152 159 CURVE SMOOTH",
"152 125 LINE SMOOTH",
"152 92 OFFCURVE",
"154 60 OFFCURVE",
"167 34 CURVE SMOOTH",
"186 -6 OFFCURVE",
"268 -55 OFFCURVE",
"309 -55 CURVE SMOOTH"
);
}
);
width = 640;
}
);
note = F;
unicode = 0046;
},
{
color = 4;
glyphname = G;
lastChange = "2021-08-24 08:46:40 +0000";
layers = (
{
anchors = (
{
name = bottom;
position = "{328, -244}";
},
{
name = top;
position = "{340, 631}";
}
);
layerId = "245B06BA-2FC8-4E2B-85DB-2741CBBED619";
paths = (
{
closed = 1;
nodes = (
"338 -270 OFFCURVE",
"348 -267 OFFCURVE",
"364 -259 CURVE SMOOTH",
"455 -213 OFFCURVE",
"468 -80 OFFCURVE",
"468 22 CURVE SMOOTH",
"468 38 OFFCURVE",
"468 47 OFFCURVE",
"467 63 CURVE SMOOTH",
"467 75 OFFCURVE",
"465 88 OFFCURVE",
"461 103 CURVE",
"486 134 OFFCURVE",
"503 171 OFFCURVE",
"503 208 CURVE SMOOTH",
"503 242 OFFCURVE",
"482 304 OFFCURVE",
"439 304 CURVE",
"431 302 OFFCURVE",
"424 299 OFFCURVE",
"420 295 CURVE SMOOTH",
"409 283 OFFCURVE",
"405 264 OFFCURVE",
"405 241 CURVE SMOOTH",
"405 206 OFFCURVE",
"415 165 OFFCURVE",
"421 140 CURVE",
"399 111 OFFCURVE",
"365 87 OFFCURVE",
"335 75 CURVE SMOOTH",
"310 66 OFFCURVE",
"289 62 OFFCURVE",
"259 62 CURVE SMOOTH",
"212 62 OFFCURVE",
"184 65 OFFCURVE",
"149 86 CURVE SMOOTH",
"96 120 OFFCURVE",
"67 185 OFFCURVE",
"67 245 CURVE SMOOTH",
"67 344 OFFCURVE",
"104 404 OFFCURVE",
"160 483 CURVE SMOOTH",
"203 544 OFFCURVE",
"265 596 OFFCURVE",
"342 596 CURVE SMOOTH",
"407 596 OFFCURVE",
"504 581 OFFCURVE",
"504 507 CURVE SMOOTH",
"504 499 OFFCURVE",
"503 491 OFFCURVE",
"501 482 CURVE SMOOTH",
"484 413 OFFCURVE",
"441 389 OFFCURVE",
"401 389 CURVE SMOOTH",
"362 389 OFFCURVE",
"327 413 OFFCURVE",
"327 440 CURVE SMOOTH",
"327 467 OFFCURVE",
"360 497 OFFCURVE",
"384 497 CURVE SMOOTH",
"394 497 OFFCURVE",
"403 492 OFFCURVE",
"407 479 CURVE SMOOTH",
"409 474 OFFCURVE",
"412 472 OFFCURVE",
"416 472 CURVE SMOOTH",
"422 472 OFFCURVE",
"427 476 OFFCURVE",
"427 482 CURVE SMOOTH",
"427 483 OFFCURVE",
"426 484 OFFCURVE",
"426 485 CURVE",
"417 512 OFFCURVE",
"406 528 OFFCURVE",
"381 528 CURVE SMOOTH",
"355 528 OFFCURVE",
"319 508 OFFCURVE",
"309 485 CURVE SMOOTH",
"304 470 OFFCURVE",
"301 456 OFFCURVE",
"301 440 CURVE SMOOTH",
"301 391 OFFCURVE",
"361 368 OFFCURVE",
"407 368 CURVE SMOOTH",
"477 368 OFFCURVE",
"533 436 OFFCURVE",
"533 504 CURVE SMOOTH",
"533 568 OFFCURVE",
"482 631 OFFCURVE",
"342 631 CURVE SMOOTH",
"255 631 OFFCURVE",
"180 574 OFFCURVE",
"130 503 CURVE SMOOTH",
"69 418 OFFCURVE",
"18 355 OFFCURVE",
"18 248 CURVE SMOOTH",
"18 170 OFFCURVE",
"49 83 OFFCURVE",
"119 38 CURVE SMOOTH",
"167 8 OFFCURVE",
"208 3 OFFCURVE",
"260 3 CURVE SMOOTH",
"297 3 OFFCURVE",
"325 9 OFFCURVE",
"355 21 CURVE SMOOTH",
"382 32 OFFCURVE",
"410 50 OFFCURVE",
"435 73 CURVE",
"436 56 OFFCURVE",
"437 39 OFFCURVE",
"437 21 CURVE SMOOTH",
"437 -38 OFFCURVE",
"427 -224 OFFCURVE",
"321 -224 CURVE SMOOTH",
"297 -224 OFFCURVE",
"287 -203 OFFCURVE",
"287 -180 CURVE SMOOTH",
"287 -148 OFFCURVE",
"304 -111 OFFCURVE",
"337 -111 CURVE SMOOTH",
"346 -111 OFFCURVE",
"349 -118 OFFCURVE",
"349 -127 CURVE SMOOTH",
"349 -135 OFFCURVE",
"346 -145 OFFCURVE",
"345 -151 CURVE SMOOTH",
"343 -158 OFFCURVE",
"349 -162 OFFCURVE",
"354 -162 CURVE SMOOTH",
"358 -162 OFFCURVE",
"362 -160 OFFCURVE",
"363 -155 CURVE SMOOTH",
"366 -144 OFFCURVE",
"369 -128 OFFCURVE",
"369 -113 CURVE SMOOTH",
"369 -88 OFFCURVE",
"361 -65 OFFCURVE",
"335 -65 CURVE SMOOTH",
"278 -66 OFFCURVE",
"239 -123 OFFCURVE",
"239 -181 CURVE SMOOTH",
"239 -202 OFFCURVE",
"242 -222 OFFCURVE",
"255 -240 CURVE SMOOTH",
"268 -258 OFFCURVE",
"299 -270 OFFCURVE",
"321 -270 CURVE SMOOTH"
);
},
{
closed = 1;
nodes = (
"441 203 OFFCURVE",
"438 221 OFFCURVE",
"438 238 CURVE SMOOTH",
"438 249 OFFCURVE",
"439 259 OFFCURVE",
"442 268 CURVE",
"444 269 LINE",
"459 263 OFFCURVE",
"463 227 OFFCURVE",
"463 211 CURVE SMOOTH",
"464 202 OFFCURVE",
"447 192 OFFCURVE",
"445 184 CURVE"
);
}
);
width = 551;
}
);
note = G;
unicode = 0047;
},
{
color = 4;
glyphname = H;
lastChange = "2021-08-24 08:46:40 +0000";
layers = (
{
anchors = (
{
name = bottom;
position = "{372, 0}";
},
{
name = center;
position = "{320, 379}";
},
{
name = top;
position = "{427, 627}";
},
{
name = topleft;
position = "{20, 757}";
}
);
layerId = "245B06BA-2FC8-4E2B-85DB-2741CBBED619";
paths = (
{
closed = 1;
nodes = (
"618 -77 OFFCURVE",
"631 -65 OFFCURVE",
"631 -50 CURVE SMOOTH",
"631 -44 OFFCURVE",
"628 -38 OFFCURVE",
"623 -32 CURVE",
"609 -19 OFFCURVE",
"605 -1 OFFCURVE",
"599 19 CURVE SMOOTH",
"577 104 OFFCURVE",
"559 177 OFFCURVE",
"559 276 CURVE SMOOTH",
"559 304 LINE",
"585 320 OFFCURVE",
"606 343 OFFCURVE",
"623 373 CURVE SMOOTH",
"627 380 OFFCURVE",
"621 387 OFFCURVE",
"615 387 CURVE SMOOTH",
"611 387 OFFCURVE",
"608 386 OFFCURVE",
"606 382 CURVE SMOOTH",
"596 364 OFFCURVE",
"580 352 OFFCURVE",
"561 343 CURVE",
"563 352 OFFCURVE",
"564 361 OFFCURVE",
"566 371 CURVE SMOOTH",
"567 383 OFFCURVE",
"566 402 OFFCURVE",
"566 423 CURVE SMOOTH",
"566 493 OFFCURVE",
"571 593 OFFCURVE",
"631 605 CURVE SMOOTH",
"636 606 OFFCURVE",
"638 610 OFFCURVE",
"638 614 CURVE SMOOTH",
"638 620 OFFCURVE",
"635 625 OFFCURVE",
"629 625 CURVE SMOOTH",
"627 625 LINE",
"531 607 OFFCURVE",
"540 444 OFFCURVE",
"533 373 CURVE SMOOTH",
"529 330 LINE",
"504 323 OFFCURVE",
"476 318 OFFCURVE",
"450 312 CURVE SMOOTH",
"438 310 OFFCURVE",
"427 306 OFFCURVE",
"414 306 CURVE SMOOTH",
"374 307 OFFCURVE",
"342 307 OFFCURVE",
"305 307 CURVE",
"311 370 LINE",
"315 417 LINE SMOOTH",
"316 428 OFFCURVE",
"316 437 OFFCURVE",
"316 446 CURVE SMOOTH",
"316 474 OFFCURVE",
"312 498 OFFCURVE",
"307 531 CURVE SMOOTH",
"300 570 OFFCURVE",
"239 651 OFFCURVE",
"194 651 CURVE SMOOTH",
"179 651 OFFCURVE",
"169 643 OFFCURVE",
"156 637 CURVE SMOOTH",
"106 617 OFFCURVE",
"50 557 OFFCURVE",
"50 506 CURVE SMOOTH",
"50 458 OFFCURVE",
"59 392 OFFCURVE",
"124 391 CURVE SMOOTH",
"152 391 OFFCURVE",
"175 401 OFFCURVE",
"186 426 CURVE SMOOTH",
"188 430 OFFCURVE",
"188 434 OFFCURVE",
"188 439 CURVE SMOOTH",
"188 449 LINE SMOOTH",
"187 467 OFFCURVE",
"181 472 OFFCURVE",
"171 485 CURVE SMOOTH",
"166 493 OFFCURVE",
"155 487 OFFCURVE",
"155 480 CURVE SMOOTH",
"155 478 OFFCURVE",
"155 476 OFFCURVE",
"157 474 CURVE SMOOTH",
"165 464 OFFCURVE",
"167 461 OFFCURVE",
"167 449 CURVE",
"166 445 OFFCURVE",
"160 442 OFFCURVE",
"158 438 CURVE SMOOTH",
"153 424 OFFCURVE",
"140 420 OFFCURVE",
"125 420 CURVE SMOOTH",
"78 421 OFFCURVE",
"80 473 OFFCURVE",
"80 507 CURVE SMOOTH",
"80 557 OFFCURVE",
"139 626 OFFCURVE",
"194 626 CURVE SMOOTH",
"226 626 OFFCURVE",
"245 550 OFFCURVE",
"250 522 CURVE SMOOTH",
"255 482 OFFCURVE",
"252 457 OFFCURVE",
"256 417 CURVE SMOOTH",
"261 370 LINE SMOOTH",
"264 346 OFFCURVE",
"263 325 OFFCURVE",
"263 304 CURVE",
"231 297 OFFCURVE",
"208 277 OFFCURVE",
"199 239 CURVE SMOOTH",
"197 231 OFFCURVE",
"203 227 OFFCURVE",
"209 227 CURVE SMOOTH",
"213 227 OFFCURVE",
"217 229 OFFCURVE",
"218 234 CURVE SMOOTH",
"224 261 OFFCURVE",
"241 274 OFFCURVE",
"263 279 CURVE",
"261 248 OFFCURVE",
"256 218 OFFCURVE",
"250 188 CURVE SMOOTH",
"235 122 OFFCURVE",
"213 27 OFFCURVE",
"151 -12 CURVE",
"147 -17 OFFCURVE",
"139 -25 OFFCURVE",
"131 -25 CURVE SMOOTH",
"106 -25 OFFCURVE",
"72 -2 OFFCURVE",
"60 16 CURVE SMOOTH",
"44 43 OFFCURVE",
"34 66 OFFCURVE",
"34 100 CURVE SMOOTH",
"35 160 OFFCURVE",
"71 231 OFFCURVE",
"127 232 CURVE SMOOTH",
"141 232 OFFCURVE",
"155 216 OFFCURVE",
"155 200 CURVE SMOOTH",
"153 172 OFFCURVE",
"136 137 OFFCURVE",
"118 137 CURVE SMOOTH",
"106 138 OFFCURVE",
"103 146 OFFCURVE",
"103 156 CURVE SMOOTH",
"103 160 OFFCURVE",
"104 165 OFFCURVE",
"104 169 CURVE SMOOTH",
"104 174 OFFCURVE",
"99 177 OFFCURVE",
"94 177 CURVE SMOOTH",
"90 177 OFFCURVE",
"85 175 OFFCURVE",
"85 169 CURVE SMOOTH",
"84 146 OFFCURVE",
"85 119 OFFCURVE",
"120 119 CURVE SMOOTH",
"155 119 OFFCURVE",
"174 171 OFFCURVE",
"174 197 CURVE SMOOTH",
"174 221 OFFCURVE",
"156 251 OFFCURVE",
"126 251 CURVE SMOOTH",
"55 251 OFFCURVE",
"15 166 OFFCURVE",
"15 104 CURVE SMOOTH",
"15 64 OFFCURVE",
"24 35 OFFCURVE",
"44 3 CURVE SMOOTH",
"58 -20 OFFCURVE",
"97 -65 OFFCURVE",
"130 -65 CURVE SMOOTH",
"141 -65 OFFCURVE",
"150 -64 OFFCURVE",
"158 -60 CURVE SMOOTH",
"249 -19 OFFCURVE",
"264 94 OFFCURVE",
"283 180 CURVE SMOOTH",
"290 214 OFFCURVE",
"296 246 OFFCURVE",
"300 280 CURVE",
"340 276 OFFCURVE",
"372 253 OFFCURVE",
"414 253 CURVE",
"440 256 LINE SMOOTH",
"470 259 OFFCURVE",
"500 271 OFFCURVE",
"525 283 CURVE",
"525 231 LINE SMOOTH",
"525 136 OFFCURVE",
"529 -13 OFFCURVE",
"585 -69 CURVE SMOOTH",
"591 -75 OFFCURVE",
"597 -77 OFFCURVE",
"604 -77 CURVE SMOOTH"
);
}
);
width = 640;
}
);
note = H;
unicode = 0048;
},
{
color = 4;
glyphname = I;
lastChange = "2021-08-24 08:46:40 +0000";
layers = (
{
anchors = (
{
name = bottom;
position = "{129, -46}";
},
{
name = ogonek;
position = "{152, -42}";
},
{
name = top;
position = "{273, 705}";
},
{
name = topleft;
position = "{20, 757}";
}
);
layerId = "245B06BA-2FC8-4E2B-85DB-2741CBBED619";
paths = (
{
closed = 1;
nodes = (
"199 -58 OFFCURVE",
"269 20 OFFCURVE",
"287 85 CURVE SMOOTH",
"304 146 OFFCURVE",
"321 200 OFFCURVE",
"321 269 CURVE SMOOTH",
"321 298 OFFCURVE",
"320 311 OFFCURVE",
"319 336 CURVE SMOOTH",
"318 373 OFFCURVE",
"310 393 OFFCURVE",
"308 431 CURVE SMOOTH",
"305 487 OFFCURVE",
"290 548 OFFCURVE",
"284 607 CURVE SMOOTH",
"282 635 OFFCURVE",
"280 662 OFFCURVE",
"281 689 CURVE",
"280 700 LINE",
"281 708 OFFCURVE",
"265 706 OFFCURVE",
"263 696 CURVE SMOOTH",
"259 683 OFFCURVE",
"243 660 OFFCURVE",
"209 647 CURVE SMOOTH",
"175 634 OFFCURVE",
"129 586 OFFCURVE",
"129 542 CURVE SMOOTH",
"129 508 OFFCURVE",
"140 478 OFFCURVE",
"177 478 CURVE SMOOTH",
"209 478 OFFCURVE",
"222 512 OFFCURVE",
"222 544 CURVE SMOOTH",
"222 549 OFFCURVE",
"222 554 OFFCURVE",
"221 558 CURVE",
"221 563 OFFCURVE",
"216 566 OFFCURVE",
"211 566 CURVE SMOOTH",
"207 566 OFFCURVE",
"202 563 OFFCURVE",
"202 558 CURVE SMOOTH",
"202 556 LINE SMOOTH",
"203 551 OFFCURVE",
"203 545 OFFCURVE",
"203 540 CURVE SMOOTH",
"203 519 OFFCURVE",
"197 498 OFFCURVE",
"176 498 CURVE SMOOTH",
"158 498 OFFCURVE",
"153 530 OFFCURVE",
"153 541 CURVE SMOOTH",
"153 573 OFFCURVE",
"189 617 OFFCURVE",
"217 627 CURVE SMOOTH",
"237 635 OFFCURVE",
"250 640 OFFCURVE",
"259 647 CURVE",
"258 634 OFFCURVE",
"259 620 OFFCURVE",
"260 607 CURVE SMOOTH",
"262 585 OFFCURVE",
"263 563 OFFCURVE",
"263 541 CURVE SMOOTH",
"263 519 OFFCURVE",
"262 497 OFFCURVE",
"262 475 CURVE SMOOTH",
"262 460 OFFCURVE",
"262 444 OFFCURVE",
"263 429 CURVE SMOOTH",
"267 379 OFFCURVE",
"271 329 OFFCURVE",
"271 280 CURVE SMOOTH",
"270 211 OFFCURVE",
"262 156 OFFCURVE",
"246 96 CURVE SMOOTH",
"232 45 OFFCURVE",
"186 -27 OFFCURVE",
"133 -27 CURVE SMOOTH",
"125 -27 OFFCURVE",
"93 -15 OFFCURVE",
"88 -9 CURVE SMOOTH",
"62 21 OFFCURVE",
"53 68 OFFCURVE",
"53 106 CURVE SMOOTH",
"53 154 OFFCURVE",
"84 255 OFFCURVE",
"144 255 CURVE SMOOTH",
"179 255 OFFCURVE",
"186 221 OFFCURVE",
"186 188 CURVE",
"185 181 OFFCURVE",
"185 176 OFFCURVE",
"185 170 CURVE SMOOTH",
"184 150 OFFCURVE",
"164 88 OFFCURVE",
"140 87 CURVE SMOOTH",
"124 87 OFFCURVE",
"120 108 OFFCURVE",
"120 122 CURVE SMOOTH",
"120 129 OFFCURVE",
"121 132 OFFCURVE",
"122 136 CURVE SMOOTH",
"125 143 OFFCURVE",
"126 149 OFFCURVE",
"126 153 CURVE SMOOTH",
"126 161 OFFCURVE",
"122 164 OFFCURVE",
"117 164 CURVE SMOOTH",
"110 164 OFFCURVE",
"103 159 OFFCURVE",
"102 153 CURVE SMOOTH",
"101 142 OFFCURVE",
"95 137 OFFCURVE",
"95 123 CURVE SMOOTH",
"95 95 OFFCURVE",
"111 59 OFFCURVE",
"141 60 CURVE SMOOTH",
"168 60 OFFCURVE",
"202 125 OFFCURVE",
"206 149 CURVE SMOOTH",
"208 157 OFFCURVE",
"208 167 OFFCURVE",
"208 175 CURVE SMOOTH",
"208 193 LINE SMOOTH",
"208 237 OFFCURVE",
"193 278 OFFCURVE",
"146 278 CURVE SMOOTH",
"122 278 OFFCURVE",
"103 267 OFFCURVE",
"87 249 CURVE SMOOTH",
"53 207 OFFCURVE",
"32 159 OFFCURVE",
"32 108 CURVE SMOOTH",
"32 71 OFFCURVE",
"44 2 OFFCURVE",
"69 -26 CURVE SMOOTH",
"76 -35 OFFCURVE",
"121 -58 OFFCURVE",
"133 -58 CURVE SMOOTH"
);
}
);
width = 353;
}
);
note = I;
unicode = 0049;
},
{
glyphname = Iacute;
lastChange = "2021-08-24 05:19:12 +0000";
layers = (
{
background = {
paths = (
{
closed = 1;
nodes = (
"321 302 OFFCURVE",
"320 314 OFFCURVE",
"319 336 CURVE SMOOTH",
"318 373 OFFCURVE",
"310 393 OFFCURVE",
"308 431 CURVE SMOOTH",
"305 487 OFFCURVE",
"290 548 OFFCURVE",
"284 607 CURVE SMOOTH",
"282 635 OFFCURVE",
"280 662 OFFCURVE",
"281 689 CURVE",
"280 700 LINE",
"281 708 OFFCURVE",
"265 706 OFFCURVE",
"263 696 CURVE SMOOTH",
"259 683 OFFCURVE",
"243 660 OFFCURVE",
"209 647 CURVE SMOOTH",
"175 634 OFFCURVE",
"128 585 OFFCURVE",
"129 541 CURVE SMOOTH",
"129 507 OFFCURVE",
"140 478 OFFCURVE",
"177 478 CURVE SMOOTH",
"214 478 OFFCURVE",
"225 523 OFFCURVE",
"221 558 CURVE SMOOTH",
"220 570 OFFCURVE",
"200 568 OFFCURVE",
"202 556 CURVE SMOOTH",
"205 532 OFFCURVE",
"203 498 OFFCURVE",
"176 498 CURVE SMOOTH",
"159 498 OFFCURVE",
"153 528 OFFCURVE",
"153 540 CURVE SMOOTH",
"152 572 OFFCURVE",
"189 617 OFFCURVE",
"217 627 CURVE SMOOTH",
"237 635 OFFCURVE",
"250 640 OFFCURVE",
"259 647 CURVE",
"258 634 OFFCURVE",
"259 620 OFFCURVE",
"260 607 CURVE SMOOTH",
"265 547 OFFCURVE",
"260 485 OFFCURVE",
"263 429 CURVE SMOOTH",
"267 379 OFFCURVE",
"271 329 OFFCURVE",
"271 280 CURVE SMOOTH",
"270 211 OFFCURVE",
"262 156 OFFCURVE",
"246 96 CURVE SMOOTH",
"232 45 OFFCURVE",
"186 -27 OFFCURVE",
"133 -27 CURVE SMOOTH",
"125 -27 OFFCURVE",
"93 -15 OFFCURVE",
"88 -9 CURVE SMOOTH",
"62 20 OFFCURVE",
"53 66 OFFCURVE",
"53 104 CURVE SMOOTH",
"52 151 OFFCURVE",
"83 255 OFFCURVE",
"144 255 CURVE SMOOTH",
"179 255 OFFCURVE",
"186 221 OFFCURVE",
"186 188 CURVE",
"185 181 OFFCURVE",
"185 176 OFFCURVE",
"185 170 CURVE SMOOTH",
"184 150 OFFCURVE",
"164 88 OFFCURVE",
"140 87 CURVE SMOOTH",
"124 87 OFFCURVE",
"120 108 OFFCURVE",
"120 122 CURVE SMOOTH",
"120 129 OFFCURVE",
"121 132 OFFCURVE",
"122 136 CURVE SMOOTH",
"137 174 OFFCURVE",
"104 166 OFFCURVE",
"102 153 CURVE SMOOTH",
"101 142 OFFCURVE",
"95 137 OFFCURVE",
"95 123 CURVE SMOOTH",
"95 95 OFFCURVE",
"111 59 OFFCURVE",
"141 60 CURVE SMOOTH",
"168 60 OFFCURVE",
"202 125 OFFCURVE",
"206 149 CURVE SMOOTH",
"209 162 OFFCURVE",
"208 176 OFFCURVE",
"208 189 CURVE SMOOTH",
"209 234 OFFCURVE",
"194 278 OFFCURVE",
"146 278 CURVE SMOOTH",
"122 278 OFFCURVE",
"103 267 OFFCURVE",
"87 249 CURVE SMOOTH",
"52 206 OFFCURVE",
"31 157 OFFCURVE",
"32 104 CURVE SMOOTH",
"32 67 OFFCURVE",
"45 1 OFFCURVE",
"69 -26 CURVE SMOOTH",
"76 -35 OFFCURVE",
"121 -58 OFFCURVE",
"133 -58 CURVE SMOOTH",
"199 -58 OFFCURVE",
"269 20 OFFCURVE",
"287 85 CURVE SMOOTH",
"305 149 OFFCURVE",
"323 206 OFFCURVE",
"321 280 CURVE SMOOTH"
);
},
{
closed = 1;
nodes = (
"312 816 OFFCURVE",
"302 820 OFFCURVE",
"292 815 CURVE SMOOTH",
"253 799 OFFCURVE",
"207 767 OFFCURVE",
"167 753 CURVE SMOOTH",
"151 747 OFFCURVE",
"160 732 OFFCURVE",
"176 738 CURVE SMOOTH",
"217 753 OFFCURVE",
"271 754 OFFCURVE",
"310 772 CURVE SMOOTH",
"330 781 OFFCURVE",
"329 811 OFFCURVE",
"316 815 CURVE SMOOTH"
);
}
);
};
components = (
{
name = I;
},
{
name = acutecomb.case;
transform = "{1, 0, 0, 1, 205, 293}";
}
);
layerId = "245B06BA-2FC8-4E2B-85DB-2741CBBED619";
width = 353;
}
);
note = Iacute;
unicode = 00CD;
},
{
glyphname = Icircumflex;
lastChange = "2021-08-24 05:19:12 +0000";
layers = (
{
background = {
paths = (
{
closed = 1;
nodes = (
"321 302 OFFCURVE",
"320 314 OFFCURVE",
"319 336 CURVE SMOOTH",
"318 373 OFFCURVE",
"310 393 OFFCURVE",
"308 431 CURVE SMOOTH",
"305 487 OFFCURVE",
"290 548 OFFCURVE",
"284 607 CURVE SMOOTH",
"282 635 OFFCURVE",
"280 662 OFFCURVE",
"281 689 CURVE",
"280 700 LINE",
"281 708 OFFCURVE",
"265 706 OFFCURVE",
"263 696 CURVE SMOOTH",
"259 683 OFFCURVE",
"243 660 OFFCURVE",
"209 647 CURVE SMOOTH",
"175 634 OFFCURVE",
"128 585 OFFCURVE",
"129 541 CURVE SMOOTH",
"129 507 OFFCURVE",
"140 478 OFFCURVE",
"177 478 CURVE SMOOTH",
"214 478 OFFCURVE",
"225 523 OFFCURVE",
"221 558 CURVE SMOOTH",
"220 570 OFFCURVE",
"200 568 OFFCURVE",
"202 556 CURVE SMOOTH",
"205 532 OFFCURVE",
"203 498 OFFCURVE",
"176 498 CURVE SMOOTH",
"159 498 OFFCURVE",
"153 528 OFFCURVE",
"153 540 CURVE SMOOTH",
"152 572 OFFCURVE",
"189 617 OFFCURVE",
"217 627 CURVE SMOOTH",
"237 635 OFFCURVE",
"250 640 OFFCURVE",
"259 647 CURVE",
"258 634 OFFCURVE",
"259 620 OFFCURVE",
"260 607 CURVE SMOOTH",
"265 547 OFFCURVE",
"260 485 OFFCURVE",
"263 429 CURVE SMOOTH",
"267 379 OFFCURVE",
"271 329 OFFCURVE",
"271 280 CURVE SMOOTH",
"270 211 OFFCURVE",
"262 156 OFFCURVE",
"246 96 CURVE SMOOTH",
"232 45 OFFCURVE",
"186 -27 OFFCURVE",
"133 -27 CURVE SMOOTH",
"125 -27 OFFCURVE",
"93 -15 OFFCURVE",
"88 -9 CURVE SMOOTH",
"62 20 OFFCURVE",
"53 66 OFFCURVE",
"53 104 CURVE SMOOTH",
"52 151 OFFCURVE",
"83 255 OFFCURVE",
"144 255 CURVE SMOOTH",
"179 255 OFFCURVE",
"186 221 OFFCURVE",
"186 188 CURVE",
"185 181 OFFCURVE",
"185 176 OFFCURVE",
"185 170 CURVE SMOOTH",
"184 150 OFFCURVE",
"164 88 OFFCURVE",
"140 87 CURVE SMOOTH",
"124 87 OFFCURVE",
"120 108 OFFCURVE",
"120 122 CURVE SMOOTH",
"120 129 OFFCURVE",
"121 132 OFFCURVE",
"122 136 CURVE SMOOTH",
"137 174 OFFCURVE",
"104 166 OFFCURVE",
"102 153 CURVE SMOOTH",
"101 142 OFFCURVE",
"95 137 OFFCURVE",
"95 123 CURVE SMOOTH",
"95 95 OFFCURVE",
"111 59 OFFCURVE",
"141 60 CURVE SMOOTH",
"168 60 OFFCURVE",
"202 125 OFFCURVE",
"206 149 CURVE SMOOTH",
"209 162 OFFCURVE",
"208 176 OFFCURVE",
"208 189 CURVE SMOOTH",
"209 234 OFFCURVE",
"194 278 OFFCURVE",
"146 278 CURVE SMOOTH",
"122 278 OFFCURVE",
"103 267 OFFCURVE",
"87 249 CURVE SMOOTH",
"52 206 OFFCURVE",
"31 157 OFFCURVE",
"32 104 CURVE SMOOTH",
"32 67 OFFCURVE",
"45 1 OFFCURVE",
"69 -26 CURVE SMOOTH",
"76 -35 OFFCURVE",
"121 -58 OFFCURVE",
"133 -58 CURVE SMOOTH",
"199 -58 OFFCURVE",
"269 20 OFFCURVE",
"287 85 CURVE SMOOTH",
"305 149 OFFCURVE",
"323 206 OFFCURVE",
"321 280 CURVE SMOOTH"
);
},
{
closed = 1;
nodes = (
"349 759 OFFCURVE",
"278 814 OFFCURVE",
"274 814 CURVE SMOOTH",
"249 814 OFFCURVE",
"192 758 OFFCURVE",
"175 741 CURVE SMOOTH",
"160 727 OFFCURVE",
"170 720 OFFCURVE",
"185 731 CURVE SMOOTH",
"199 743 OFFCURVE",
"226 749 OFFCURVE",
"256 769 CURVE SMOOTH",
"267 776 OFFCURVE",
"276 772 OFFCURVE",
"290 763 CURVE SMOOTH",
"311 749 OFFCURVE",
"340 744 OFFCURVE",
"361 732 CURVE SMOOTH",
"377 724 OFFCURVE",
"381 740 OFFCURVE",
"364 750 CURVE SMOOTH"
);
}
);
};
components = (
{
name = I;
},
{
name = circumflexcomb.case;
transform = "{1, 0, 0, 1, 131, 293}";
}
);
layerId = "245B06BA-2FC8-4E2B-85DB-2741CBBED619";
width = 353;
}
);
note = Icircumflex;
unicode = 00CE;
},
{
glyphname = Idieresis;
lastChange = "2021-08-24 05:19:12 +0000";
layers = (
{
background = {
paths = (
{
closed = 1;
nodes = (
"364 788 OFFCURVE",
"343 801 OFFCURVE",
"324 801 CURVE SMOOTH",
"304 801 OFFCURVE",
"283 783 OFFCURVE",
"287 762 CURVE SMOOTH",
"289 741 OFFCURVE",
"304 729 OFFCURVE",
"324 729 CURVE SMOOTH",
"343 729 OFFCURVE",
"364 749 OFFCURVE",
"364 769 CURVE SMOOTH"
);
},
{
closed = 1;
nodes = (
"207 784 OFFCURVE",
"193 802 OFFCURVE",
"174 802 CURVE SMOOTH",
"153 802 OFFCURVE",
"138 784 OFFCURVE",
"136 765 CURVE SMOOTH",
"132 745 OFFCURVE",
"153 728 OFFCURVE",
"174 728 CURVE SMOOTH",
"193 728 OFFCURVE",
"207 745 OFFCURVE",
"207 765 CURVE SMOOTH"
);
},
{
closed = 1;
nodes = (
"321 302 OFFCURVE",
"320 314 OFFCURVE",
"319 336 CURVE SMOOTH",
"318 373 OFFCURVE",
"310 393 OFFCURVE",
"308 431 CURVE SMOOTH",
"305 487 OFFCURVE",
"290 548 OFFCURVE",
"284 607 CURVE SMOOTH",
"282 635 OFFCURVE",
"280 662 OFFCURVE",
"281 689 CURVE",
"280 700 LINE",
"281 708 OFFCURVE",
"265 706 OFFCURVE",
"263 696 CURVE SMOOTH",
"259 683 OFFCURVE",
"243 660 OFFCURVE",
"209 647 CURVE SMOOTH",
"175 634 OFFCURVE",
"128 585 OFFCURVE",
"129 541 CURVE SMOOTH",
"129 507 OFFCURVE",
"140 478 OFFCURVE",
"177 478 CURVE SMOOTH",
"214 478 OFFCURVE",
"225 523 OFFCURVE",
"221 558 CURVE SMOOTH",
"220 570 OFFCURVE",
"200 568 OFFCURVE",
"202 556 CURVE SMOOTH",
"205 532 OFFCURVE",
"203 498 OFFCURVE",
"176 498 CURVE SMOOTH",
"159 498 OFFCURVE",
"153 528 OFFCURVE",
"153 540 CURVE SMOOTH",
"152 572 OFFCURVE",
"189 617 OFFCURVE",
"217 627 CURVE SMOOTH",
"237 635 OFFCURVE",
"250 640 OFFCURVE",
"259 647 CURVE",
"258 634 OFFCURVE",
"259 620 OFFCURVE",
"260 607 CURVE SMOOTH",
"265 547 OFFCURVE",
"260 485 OFFCURVE",
"263 429 CURVE SMOOTH",
"267 379 OFFCURVE",
"271 329 OFFCURVE",
"271 280 CURVE SMOOTH",
"270 211 OFFCURVE",
"262 156 OFFCURVE",
"246 96 CURVE SMOOTH",
"232 45 OFFCURVE",
"186 -27 OFFCURVE",
"133 -27 CURVE SMOOTH",
"125 -27 OFFCURVE",
"93 -15 OFFCURVE",
"88 -9 CURVE SMOOTH",
"62 20 OFFCURVE",
"53 66 OFFCURVE",
"53 104 CURVE SMOOTH",
"52 151 OFFCURVE",
"83 255 OFFCURVE",
"144 255 CURVE SMOOTH",
"179 255 OFFCURVE",
"186 221 OFFCURVE",
"186 188 CURVE",
"185 181 OFFCURVE",
"185 176 OFFCURVE",
"185 170 CURVE SMOOTH",
"184 150 OFFCURVE",
"164 88 OFFCURVE",
"140 87 CURVE SMOOTH",
"124 87 OFFCURVE",
"120 108 OFFCURVE",
"120 122 CURVE SMOOTH",
"120 129 OFFCURVE",
"121 132 OFFCURVE",
"122 136 CURVE SMOOTH",
"137 174 OFFCURVE",
"104 166 OFFCURVE",
"102 153 CURVE SMOOTH",
"101 142 OFFCURVE",
"95 137 OFFCURVE",
"95 123 CURVE SMOOTH",
"95 95 OFFCURVE",
"111 59 OFFCURVE",
"141 60 CURVE SMOOTH",
"168 60 OFFCURVE",
"202 125 OFFCURVE",
"206 149 CURVE SMOOTH",
"209 162 OFFCURVE",
"208 176 OFFCURVE",
"208 189 CURVE SMOOTH",
"209 234 OFFCURVE",
"194 278 OFFCURVE",
"146 278 CURVE SMOOTH",
"122 278 OFFCURVE",
"103 267 OFFCURVE",
"87 249 CURVE SMOOTH",
"52 206 OFFCURVE",
"31 157 OFFCURVE",
"32 104 CURVE SMOOTH",
"32 67 OFFCURVE",
"45 1 OFFCURVE",
"69 -26 CURVE SMOOTH",
"76 -35 OFFCURVE",
"121 -58 OFFCURVE",
"133 -58 CURVE SMOOTH",
"199 -58 OFFCURVE",
"269 20 OFFCURVE",
"287 85 CURVE SMOOTH",
"305 149 OFFCURVE",
"323 206 OFFCURVE",
"321 280 CURVE SMOOTH"
);
}
);
};
components = (
{
name = I;
},
{
name = dieresiscomb.case;
transform = "{1, 0, 0, 1, 177, 293}";
}
);
layerId = "245B06BA-2FC8-4E2B-85DB-2741CBBED619";
width = 353;
}
);
note = Idieresis;
unicode = 00CF;
},
{
glyphname = Igrave;
lastChange = "2021-08-24 05:19:12 +0000";
layers = (
{
background = {
paths = (
{
closed = 1;
nodes = (
"321 302 OFFCURVE",
"320 314 OFFCURVE",
"319 336 CURVE SMOOTH",
"318 373 OFFCURVE",
"310 393 OFFCURVE",
"308 431 CURVE SMOOTH",
"305 487 OFFCURVE",
"290 548 OFFCURVE",
"284 607 CURVE SMOOTH",
"282 635 OFFCURVE",
"280 662 OFFCURVE",
"281 689 CURVE",
"280 700 LINE",
"281 708 OFFCURVE",
"265 706 OFFCURVE",
"263 696 CURVE SMOOTH",
"259 683 OFFCURVE",
"243 660 OFFCURVE",
"209 647 CURVE SMOOTH",
"175 634 OFFCURVE",
"128 585 OFFCURVE",
"129 541 CURVE SMOOTH",
"129 507 OFFCURVE",
"140 478 OFFCURVE",
"177 478 CURVE SMOOTH",
"214 478 OFFCURVE",
"225 523 OFFCURVE",
"221 558 CURVE SMOOTH",
"220 570 OFFCURVE",
"200 568 OFFCURVE",
"202 556 CURVE SMOOTH",
"205 532 OFFCURVE",
"203 498 OFFCURVE",
"176 498 CURVE SMOOTH",
"159 498 OFFCURVE",
"153 528 OFFCURVE",
"153 540 CURVE SMOOTH",
"152 572 OFFCURVE",
"189 617 OFFCURVE",
"217 627 CURVE SMOOTH",
"237 635 OFFCURVE",
"250 640 OFFCURVE",
"259 647 CURVE",
"258 634 OFFCURVE",
"259 620 OFFCURVE",
"260 607 CURVE SMOOTH",
"265 547 OFFCURVE",
"260 485 OFFCURVE",
"263 429 CURVE SMOOTH",
"267 379 OFFCURVE",
"271 329 OFFCURVE",
"271 280 CURVE SMOOTH",
"270 211 OFFCURVE",
"262 156 OFFCURVE",
"246 96 CURVE SMOOTH",
"232 45 OFFCURVE",
"186 -27 OFFCURVE",
"133 -27 CURVE SMOOTH",
"125 -27 OFFCURVE",
"93 -15 OFFCURVE",
"88 -9 CURVE SMOOTH",
"62 20 OFFCURVE",
"53 66 OFFCURVE",
"53 104 CURVE SMOOTH",
"52 151 OFFCURVE",
"83 255 OFFCURVE",
"144 255 CURVE SMOOTH",
"179 255 OFFCURVE",
"186 221 OFFCURVE",
"186 188 CURVE",
"185 181 OFFCURVE",
"185 176 OFFCURVE",
"185 170 CURVE SMOOTH",
"184 150 OFFCURVE",
"164 88 OFFCURVE",
"140 87 CURVE SMOOTH",
"124 87 OFFCURVE",
"120 108 OFFCURVE",
"120 122 CURVE SMOOTH",
"120 129 OFFCURVE",
"121 132 OFFCURVE",
"122 136 CURVE SMOOTH",
"137 174 OFFCURVE",
"104 166 OFFCURVE",
"102 153 CURVE SMOOTH",
"101 142 OFFCURVE",
"95 137 OFFCURVE",
"95 123 CURVE SMOOTH",
"95 95 OFFCURVE",
"111 59 OFFCURVE",
"141 60 CURVE SMOOTH",
"168 60 OFFCURVE",
"202 125 OFFCURVE",
"206 149 CURVE SMOOTH",
"209 162 OFFCURVE",
"208 176 OFFCURVE",
"208 189 CURVE SMOOTH",
"209 234 OFFCURVE",
"194 278 OFFCURVE",
"146 278 CURVE SMOOTH",
"122 278 OFFCURVE",
"103 267 OFFCURVE",
"87 249 CURVE SMOOTH",
"52 206 OFFCURVE",
"31 157 OFFCURVE",
"32 104 CURVE SMOOTH",
"32 67 OFFCURVE",
"45 1 OFFCURVE",
"69 -26 CURVE SMOOTH",
"76 -35 OFFCURVE",
"121 -58 OFFCURVE",
"133 -58 CURVE SMOOTH",
"199 -58 OFFCURVE",
"269 20 OFFCURVE",
"287 85 CURVE SMOOTH",
"305 149 OFFCURVE",
"323 206 OFFCURVE",
"321 280 CURVE SMOOTH"
);
},
{
closed = 1;
nodes = (
"167 805 OFFCURVE",
"166 775 OFFCURVE",
"186 766 CURVE SMOOTH",
"225 748 OFFCURVE",
"279 747 OFFCURVE",
"320 732 CURVE SMOOTH",
"336 727 OFFCURVE",
"345 741 OFFCURVE",
"329 747 CURVE SMOOTH",
"289 762 OFFCURVE",
"243 793 OFFCURVE",
"204 810 CURVE SMOOTH",
"194 814 OFFCURVE",
"184 811 OFFCURVE",
"180 810 CURVE SMOOTH"
);
}
);
};
components = (
{
name = I;
},
{
name = gravecomb.case;
transform = "{1, 0, 0, 1, 172, 293}";
}
);
layerId = "245B06BA-2FC8-4E2B-85DB-2741CBBED619";
width = 353;
}
);
note = Igrave;
unicode = 00CC;
},
{
color = 4;
glyphname = J;
lastChange = "2021-08-24 08:46:40 +0000";
layers = (
{
anchors = (
{
name = bottom;
position = "{186, 0}";
},
{
name = top;
position = "{277, 671}";
}
);
layerId = "245B06BA-2FC8-4E2B-85DB-2741CBBED619";
paths = (
{
closed = 1;
nodes = (
"172 -55 OFFCURVE",
"193 -41 OFFCURVE",
"209 -25 CURVE SMOOTH",
"223 -11 LINE SMOOTH",
"263 29 OFFCURVE",
"286 104 OFFCURVE",
"287 166 CURVE SMOOTH",
"287 189 OFFCURVE",
"298 212 OFFCURVE",
"298 237 CURVE SMOOTH",
"298 253 OFFCURVE",
"296 264 OFFCURVE",
"296 282 CURVE SMOOTH",
"293 353 OFFCURVE",
"291 393 OFFCURVE",
"291 445 CURVE SMOOTH",
"291 472 OFFCURVE",
"292 501 OFFCURVE",
"293 538 CURVE SMOOTH",
"295 558 OFFCURVE",
"295 579 OFFCURVE",
"299 597 CURVE",
"304 596 OFFCURVE",
"308 596 OFFCURVE",
"312 596 CURVE SMOOTH",
"346 596 OFFCURVE",
"366 618 OFFCURVE",
"386 638 CURVE SMOOTH",
"398 650 OFFCURVE",
"396 664 OFFCURVE",
"396 681 CURVE SMOOTH",
"396 686 OFFCURVE",
"392 689 OFFCURVE",
"388 689 CURVE SMOOTH",
"383 689 OFFCURVE",
"379 686 OFFCURVE",
"379 680 CURVE SMOOTH",
"379 640 OFFCURVE",
"349 642 OFFCURVE",
"318 642 CURVE",
"316 646 OFFCURVE",
"310 646 OFFCURVE",
"306 644 CURVE SMOOTH",
"304 643 LINE",
"164 643 LINE SMOOTH",
"136 643 OFFCURVE",
"115 642 OFFCURVE",
"92 626 CURVE SMOOTH",
"77 616 OFFCURVE",
"68 606 OFFCURVE",
"68 585 CURVE SMOOTH",
"68 573 OFFCURVE",
"75 568 OFFCURVE",
"81 558 CURVE SMOOTH",
"83 555 OFFCURVE",
"85 553 OFFCURVE",
"88 553 CURVE SMOOTH",
"93 553 OFFCURVE",
"98 557 OFFCURVE",
"98 562 CURVE SMOOTH",
"98 564 OFFCURVE",
"98 565 OFFCURVE",
"97 567 CURVE SMOOTH",
"94 572 OFFCURVE",
"88 580 OFFCURVE",
"88 588 CURVE SMOOTH",
"88 598 OFFCURVE",
"96 600 OFFCURVE",
"104 606 CURVE SMOOTH",
"123 618 OFFCURVE",
"140 617 OFFCURVE",
"164 617 CURVE SMOOTH",
"199 617 OFFCURVE",
"232 607 OFFCURVE",
"265 600 CURVE",
"253 584 OFFCURVE",
"244 563 OFFCURVE",
"243 541 CURVE SMOOTH",
"243 528 OFFCURVE",
"242 516 OFFCURVE",
"242 504 CURVE SMOOTH",
"242 417 OFFCURVE",
"254 375 OFFCURVE",
"258 280 CURVE SMOOTH",
"258 263 OFFCURVE",
"264 252 OFFCURVE",
"264 236 CURVE SMOOTH",
"264 212 OFFCURVE",
"267 189 OFFCURVE",
"267 166 CURVE SMOOTH",
"265 112 OFFCURVE",
"226 56 OFFCURVE",
"190 22 CURVE SMOOTH",
"183 16 OFFCURVE",
"159 -9 OFFCURVE",
"148 -9 CURVE SMOOTH",
"77 -9 OFFCURVE",
"28 95 OFFCURVE",
"21 153 CURVE SMOOTH",
"15 216 OFFCURVE",
"41 320 OFFCURVE",
"108 320 CURVE SMOOTH",
"157 320 OFFCURVE",
"175 250 OFFCURVE",
"175 213 CURVE SMOOTH",
"174 166 OFFCURVE",
"165 115 OFFCURVE",
"115 115 CURVE",
"112 116 OFFCURVE",
"110 119 OFFCURVE",
"108 121 CURVE SMOOTH",
"97 130 OFFCURVE",
"88 151 OFFCURVE",
"88 165 CURVE SMOOTH",
"88 192 OFFCURVE",
"104 211 OFFCURVE",
"125 208 CURVE SMOOTH",
"133 207 OFFCURVE",
"137 213 OFFCURVE",
"137 220 CURVE SMOOTH",
"137 225 OFFCURVE",
"134 231 OFFCURVE",
"128 231 CURVE SMOOTH",
"91 235 OFFCURVE",
"57 211 OFFCURVE",
"57 166 CURVE SMOOTH",
"57 146 OFFCURVE",
"57 134 OFFCURVE",
"69 115 CURVE SMOOTH",
"81 99 OFFCURVE",
"93 84 OFFCURVE",
"115 84 CURVE SMOOTH",
"183 85 OFFCURVE",
"202 149 OFFCURVE",
"200 214 CURVE SMOOTH",
"200 260 OFFCURVE",
"168 342 OFFCURVE",
"106 342 CURVE SMOOTH",
"37 342 OFFCURVE",
"-2 245 OFFCURVE",
"-2 172 CURVE SMOOTH",
"-2 164 OFFCURVE",
"-2 157 OFFCURVE",
"-1 150 CURVE SMOOTH",
"7 78 OFFCURVE",
"60 -55 OFFCURVE",
"148 -55 CURVE SMOOTH"
);
}
);
width = 372;
}
);
note = J;
unicode = 004A;
},
{
color = 4;
glyphname = K;
lastChange = "2021-08-24 08:46:40 +0000";
layers = (
{
anchors = (
{
name = bottom;
position = "{323, 0}";
},
{
name = top;
position = "{323, 720}";
}
);
layerId = "245B06BA-2FC8-4E2B-85DB-2741CBBED619";
paths = (
{
closed = 1;
nodes = (
"575 -49 OFFCURVE",
"592 -36 OFFCURVE",
"607 -20 CURVE SMOOTH",
"619 -6 OFFCURVE",
"626 13 OFFCURVE",
"634 29 CURVE SMOOTH",
"644 49 OFFCURVE",
"646 64 OFFCURVE",
"646 87 CURVE SMOOTH",
"646 132 OFFCURVE",
"620 178 OFFCURVE",
"576 178 CURVE SMOOTH",
"535 178 OFFCURVE",
"513 149 OFFCURVE",
"513 114 CURVE SMOOTH",
"513 86 OFFCURVE",
"535 59 OFFCURVE",
"562 59 CURVE SMOOTH",
"586 59 OFFCURVE",
"601 94 OFFCURVE",
"601 98 CURVE SMOOTH",
"601 104 OFFCURVE",
"597 108 OFFCURVE",
"592 108 CURVE SMOOTH",
"589 108 OFFCURVE",
"585 106 OFFCURVE",
"584 101 CURVE",
"581 94 OFFCURVE",
"573 81 OFFCURVE",
"562 81 CURVE SMOOTH",
"548 82 OFFCURVE",
"538 99 OFFCURVE",
"538 115 CURVE SMOOTH",
"538 137 OFFCURVE",
"550 156 OFFCURVE",
"576 156 CURVE SMOOTH",
"609 156 OFFCURVE",
"626 120 OFFCURVE",
"627 85 CURVE SMOOTH",
"627 66 OFFCURVE",
"618 55 OFFCURVE",
"610 40 CURVE SMOOTH",
"596 12 OFFCURVE",
"581 -11 OFFCURVE",
"547 -11 CURVE SMOOTH",
"507 -11 OFFCURVE",
"478 31 OFFCURVE",
"457 58 CURVE SMOOTH",
"428 95 OFFCURVE",
"407 132 OFFCURVE",
"396 175 CURVE SMOOTH",
"386 215 OFFCURVE",
"376 255 OFFCURVE",
"364 298 CURVE",
"383 319 OFFCURVE",
"400 346 OFFCURVE",
"408 362 CURVE SMOOTH",
"457 452 OFFCURVE",
"476 556 OFFCURVE",
"529 645 CURVE SMOOTH",
"547 674 OFFCURVE",
"560 717 OFFCURVE",
"597 717 CURVE SMOOTH",
"615 717 OFFCURVE",
"628 708 OFFCURVE",
"631 691 CURVE",
"632 689 OFFCURVE",
"635 682 OFFCURVE",
"635 680 CURVE SMOOTH",
"636 666 OFFCURVE",
"629 657 OFFCURVE",
"623 646 CURVE SMOOTH",
"618 638 OFFCURVE",
"625 631 OFFCURVE",
"632 631 CURVE SMOOTH",
"635 631 OFFCURVE",
"638 633 OFFCURVE",
"640 636 CURVE",
"647 652 OFFCURVE",
"657 661 OFFCURVE",
"657 680 CURVE",
"656 684 OFFCURVE",
"657 690 OFFCURVE",
"656 696 CURVE SMOOTH",
"652 728 OFFCURVE",
"632 747 OFFCURVE",
"599 747 CURVE SMOOTH",
"457 746 OFFCURVE",
"438 548 OFFCURVE",
"401 447 CURVE SMOOTH",
"394 428 OFFCURVE",
"375 373 OFFCURVE",
"352 338 CURVE",
"342 364 OFFCURVE",
"325 389 OFFCURVE",
"297 389 CURVE SMOOTH",
"288 389 OFFCURVE",
"280 382 OFFCURVE",
"274 376 CURVE SMOOTH",
"263 364 OFFCURVE",
"244 334 OFFCURVE",
"244 318 CURVE SMOOTH",
"244 305 OFFCURVE",
"254 264 OFFCURVE",
"279 264 CURVE SMOOTH",
"292 264 OFFCURVE",
"298 268 OFFCURVE",
"315 268 CURVE SMOOTH",
"326 268 OFFCURVE",
"337 273 OFFCURVE",
"348 282 CURVE",
"356 243 OFFCURVE",
"361 199 OFFCURVE",
"368 168 CURVE SMOOTH",
"380 120 OFFCURVE",
"390 73 OFFCURVE",
"422 32 CURVE SMOOTH",
"450 -3 OFFCURVE",
"496 -49 OFFCURVE",
"545 -49 CURVE SMOOTH"
);
},
{
closed = 1;
nodes = (
"188 -69 OFFCURVE",
"228 171 OFFCURVE",
"232 227 CURVE SMOOTH",
"236 298 OFFCURVE",
"248 340 OFFCURVE",
"248 414 CURVE SMOOTH",
"248 441 OFFCURVE",
"249 468 OFFCURVE",
"249 495 CURVE SMOOTH",
"249 508 OFFCURVE",
"249 522 OFFCURVE",
"248 535 CURVE SMOOTH",
"245 595 OFFCURVE",
"226 699 OFFCURVE",
"147 699 CURVE SMOOTH",
"85 699 OFFCURVE",
"28 604 OFFCURVE",
"28 548 CURVE SMOOTH",
"28 525 OFFCURVE",
"43 500 OFFCURVE",
"56 485 CURVE SMOOTH",
"63 477 OFFCURVE",
"74 474 OFFCURVE",
"85 474 CURVE SMOOTH",
"112 474 OFFCURVE",
"142 494 OFFCURVE",
"143 529 CURVE SMOOTH",
"143 543 OFFCURVE",
"139 553 OFFCURVE",
"132 566 CURVE",
"132 567 LINE SMOOTH",
"131 571 OFFCURVE",
"128 572 OFFCURVE",
"125 572 CURVE SMOOTH",
"120 572 OFFCURVE",
"114 568 OFFCURVE",
"114 562 CURVE SMOOTH",
"114 561 OFFCURVE",
"114 559 OFFCURVE",
"115 558 CURVE",
"120 549 OFFCURVE",
"125 540 OFFCURVE",
"125 529 CURVE SMOOTH",
"124 509 OFFCURVE",
"106 497 OFFCURVE",
"91 497 CURVE SMOOTH",
"84 497 OFFCURVE",
"78 499 OFFCURVE",
"74 504 CURVE SMOOTH",
"65 514 OFFCURVE",
"53 532 OFFCURVE",
"53 548 CURVE SMOOTH",
"53 592 OFFCURVE",
"99 668 OFFCURVE",
"146 668 CURVE SMOOTH",
"165 668 OFFCURVE",
"170 642 OFFCURVE",
"177 631 CURVE SMOOTH",
"198 595 OFFCURVE",
"202 547 OFFCURVE",
"202 500 CURVE SMOOTH",
"202 469 OFFCURVE",
"200 440 OFFCURVE",
"200 414 CURVE SMOOTH",
"200 343 OFFCURVE",
"198 300 OFFCURVE",
"194 230 CURVE SMOOTH",
"192 187 OFFCURVE",
"171 -43 OFFCURVE",
"99 -43 CURVE SMOOTH",
"60 -43 OFFCURVE",
"36 17 OFFCURVE",
"36 51 CURVE SMOOTH",
"36 81 OFFCURVE",
"48 120 OFFCURVE",
"73 128 CURVE SMOOTH",
"78 130 OFFCURVE",
"82 128 OFFCURVE",
"88 128 CURVE SMOOTH",
"105 127 OFFCURVE",
"111 114 OFFCURVE",
"111 99 CURVE SMOOTH",
"111 89 OFFCURVE",
"109 79 OFFCURVE",
"105 71 CURVE SMOOTH",
"102 64 OFFCURVE",
"108 58 OFFCURVE",
"114 58 CURVE SMOOTH",
"117 58 OFFCURVE",
"120 59 OFFCURVE",
"122 63 CURVE SMOOTH",
"128 74 OFFCURVE",
"131 87 OFFCURVE",
"131 100 CURVE SMOOTH",
"131 126 OFFCURVE",
"118 151 OFFCURVE",
"87 151 CURVE SMOOTH",
"40 150 OFFCURVE",
"17 95 OFFCURVE",
"17 55 CURVE SMOOTH",
"17 14 OFFCURVE",
"48 -69 OFFCURVE",
"100 -69 CURVE SMOOTH"
);
},
{
closed = 1;
nodes = (
"276 307 OFFCURVE",
"279 316 OFFCURVE",
"279 318 CURVE SMOOTH",
"279 325 OFFCURVE",
"277 331 OFFCURVE",
"277 338 CURVE SMOOTH",
"277 341 OFFCURVE",
"277 345 OFFCURVE",
"279 348 CURVE SMOOTH",
"282 354 OFFCURVE",
"293 370 OFFCURVE",
"300 370 CURVE SMOOTH",
"309 371 OFFCURVE",
"318 364 OFFCURVE",
"326 351 CURVE",
"330 342 OFFCURVE",
"335 332 OFFCURVE",
"338 320 CURVE",
"339 320 LINE",
"332 312 OFFCURVE",
"324 308 OFFCURVE",
"316 308 CURVE SMOOTH",
"299 308 OFFCURVE",
"293 307 OFFCURVE",
"280 307 CURVE SMOOTH"
);
}
);
width = 645;
}
);
note = K;
unicode = 004B;
},
{
color = 4;
glyphname = L;
lastChange = "2021-08-24 08:46:40 +0000";
layers = (
{
anchors = (
{
name = bottom;
position = "{322, 0}";
},
{
name = center;
position = "{322, 379}";
},
{
name = top;
position = "{322, 757}";
},
{
name = topright;
position = "{486, 757}";
}
);
layerId = "245B06BA-2FC8-4E2B-85DB-2741CBBED619";
paths = (
{
closed = 1;
nodes = (
"475 -58 OFFCURVE",
"496 -54 OFFCURVE",
"505 -50 CURVE",
"574 -27 OFFCURVE",
"624 55 OFFCURVE",
"624 126 CURVE SMOOTH",
"624 187 OFFCURVE",
"590 268 OFFCURVE",
"540 296 CURVE SMOOTH",
"517 309 OFFCURVE",
"497 309 OFFCURVE",
"475 309 CURVE SMOOTH",
"411 309 OFFCURVE",
"373 237 OFFCURVE",
"373 180 CURVE SMOOTH",
"373 146 OFFCURVE",
"402 86 OFFCURVE",
"449 86 CURVE SMOOTH",
"500 87 OFFCURVE",
"523 124 OFFCURVE",
"524 171 CURVE SMOOTH",
"524 178 OFFCURVE",
"519 182 OFFCURVE",
"513 182 CURVE SMOOTH",
"508 182 OFFCURVE",
"502 178 OFFCURVE",
"502 170 CURVE SMOOTH",
"501 139 OFFCURVE",
"483 116 OFFCURVE",
"447 115 CURVE SMOOTH",
"426 115 OFFCURVE",
"402 151 OFFCURVE",
"402 180 CURVE SMOOTH",
"402 224 OFFCURVE",
"425 282 OFFCURVE",
"474 282 CURVE SMOOTH",
"497 282 OFFCURVE",
"511 281 OFFCURVE",
"526 272 CURVE SMOOTH",
"568 250 OFFCURVE",
"577 176 OFFCURVE",
"577 126 CURVE SMOOTH",
"577 63 OFFCURVE",
"523 -9 OFFCURVE",
"457 -9 CURVE SMOOTH",
"411 -9 OFFCURVE",
"379 8 OFFCURVE",
"349 31 CURVE SMOOTH",
"323 52 OFFCURVE",
"298 75 OFFCURVE",
"271 95 CURVE",
"286 131 OFFCURVE",
"295 169 OFFCURVE",
"295 211 CURVE SMOOTH",
"295 272 OFFCURVE",
"289 289 OFFCURVE",
"280 351 CURVE",
"394 361 OFFCURVE",
"450 488 OFFCURVE",
"450 590 CURVE SMOOTH",
"450 636 OFFCURVE",
"449 700 OFFCURVE",
"412 731 CURVE SMOOTH",
"396 744 OFFCURVE",
"367 757 OFFCURVE",
"351 757 CURVE SMOOTH",
"329 757 OFFCURVE",
"300 730 OFFCURVE",
"287 712 CURVE SMOOTH",
"245 654 OFFCURVE",
"232 583 OFFCURVE",
"232 508 CURVE SMOOTH",
"232 466 OFFCURVE",
"236 423 OFFCURVE",
"241 380 CURVE",
"206 391 OFFCURVE",
"185 419 OFFCURVE",
"164 447 CURVE",
"165 447 LINE",
"163 450 OFFCURVE",
"160 451 OFFCURVE",
"158 451 CURVE SMOOTH",
"152 451 OFFCURVE",
"147 447 OFFCURVE",
"147 442 CURVE SMOOTH",
"147 440 OFFCURVE",
"147 438 OFFCURVE",
"149 436 CURVE SMOOTH",
"161 420 OFFCURVE",
"170 401 OFFCURVE",
"184 386 CURVE SMOOTH",
"198 370 OFFCURVE",
"220 357 OFFCURVE",
"243 352 CURVE",
"251 287 OFFCURVE",
"256 268 OFFCURVE",
"256 211 CURVE SMOOTH",
"256 181 OFFCURVE",
"250 149 OFFCURVE",
"239 118 CURVE",
"202 140 OFFCURVE",
"148 179 OFFCURVE",
"107 179 CURVE SMOOTH",
"62 179 OFFCURVE",
"13 129 OFFCURVE",
"13 83 CURVE SMOOTH",
"13 12 OFFCURVE",
"91 -44 OFFCURVE",
"158 -44 CURVE SMOOTH",
"187 -44 OFFCURVE",
"202 -27 OFFCURVE",
"215 -6 CURVE SMOOTH",
"227 15 OFFCURVE",
"240 35 OFFCURVE",
"251 55 CURVE",
"314 6 OFFCURVE",
"357 -58 OFFCURVE",
"455 -58 CURVE SMOOTH"
);
},
{
closed = 1;
nodes = (
"106 -6 OFFCURVE",
"40 28 OFFCURVE",
"40 83 CURVE SMOOTH",
"40 123 OFFCURVE",
"67 150 OFFCURVE",
"109 151 CURVE SMOOTH",
"136 151 OFFCURVE",
"195 93 OFFCURVE",
"220 77 CURVE",
"221 77 LINE",
"213 60 OFFCURVE",
"204 46 OFFCURVE",
"195 34 CURVE SMOOTH",
"187 21 OFFCURVE",
"175 -6 OFFCURVE",
"158 -6 CURVE SMOOTH"
);
},
{
closed = 1;
nodes = (
"273 417 OFFCURVE",
"268 457 OFFCURVE",
"268 497 CURVE SMOOTH",
"268 517 OFFCURVE",
"269 538 OFFCURVE",
"272 558 CURVE SMOOTH",
"279 609 OFFCURVE",
"295 643 OFFCURVE",
"326 684 CURVE SMOOTH",
"332 692 OFFCURVE",
"343 703 OFFCURVE",
"351 703 CURVE SMOOTH",
"358 703 OFFCURVE",
"370 694 OFFCURVE",
"376 689 CURVE SMOOTH",
"403 666 OFFCURVE",
"410 623 OFFCURVE",
"410 590 CURVE SMOOTH",
"410 525 OFFCURVE",
"393 459 OFFCURVE",
"352 414 CURVE SMOOTH",
"334 395 OFFCURVE",
"304 381 OFFCURVE",
"278 377 CURVE"
);
}
);
width = 643;
}
);
note = L;
unicode = 004C;
},
{
glyphname = Lslash;
lastChange = "2021-08-25 02:13:33 +0000";
layers = (
{
anchors = (
{
name = bottom;
position = "{322, 0}";
},
{
name = center;
position = "{322, 379}";
},
{
name = top;
position = "{322, 757}";
},
{
name = topright;
position = "{486, 757}";
}
);
background = {
paths = (
{
closed = 1;
nodes = (
"624 189 OFFCURVE",
"589 268 OFFCURVE",
"540 296 CURVE SMOOTH",
"517 309 OFFCURVE",
"497 309 OFFCURVE",
"475 309 CURVE SMOOTH",
"410 309 OFFCURVE",
"372 235 OFFCURVE",
"373 178 CURVE SMOOTH",
"373 143 OFFCURVE",
"403 86 OFFCURVE",
"449 86 CURVE SMOOTH",
"500 87 OFFCURVE",
"523 124 OFFCURVE",
"524 171 CURVE SMOOTH",
"524 186 OFFCURVE",
"502 186 OFFCURVE",
"502 170 CURVE SMOOTH",
"501 139 OFFCURVE",
"483 116 OFFCURVE",
"447 115 CURVE SMOOTH",
"427 115 OFFCURVE",
"402 149 OFFCURVE",
"402 177 CURVE SMOOTH",
"401 222 OFFCURVE",
"424 282 OFFCURVE",
"474 282 CURVE SMOOTH",
"497 282 OFFCURVE",
"511 281 OFFCURVE",
"526 272 CURVE SMOOTH",
"567 250 OFFCURVE",
"577 178 OFFCURVE",
"577 128 CURVE SMOOTH",
"578 64 OFFCURVE",
"524 -9 OFFCURVE",
"457 -9 CURVE SMOOTH",
"411 -9 OFFCURVE",
"379 8 OFFCURVE",
"349 31 CURVE SMOOTH",
"323 52 OFFCURVE",
"298 75 OFFCURVE",
"271 95 CURVE",
"286 131 OFFCURVE",
"295 169 OFFCURVE",
"295 211 CURVE SMOOTH",
"295 272 OFFCURVE",
"289 289 OFFCURVE",
"280 351 CURVE",
"394 361 OFFCURVE",
"450 488 OFFCURVE",
"450 590 CURVE SMOOTH",
"450 636 OFFCURVE",
"449 700 OFFCURVE",
"412 731 CURVE SMOOTH",
"396 744 OFFCURVE",
"367 757 OFFCURVE",
"351 757 CURVE SMOOTH",
"329 757 OFFCURVE",
"300 730 OFFCURVE",
"287 712 CURVE SMOOTH",
"221 622 OFFCURVE",
"226 500 OFFCURVE",
"241 380 CURVE",
"206 391 OFFCURVE",
"185 419 OFFCURVE",
"164 447 CURVE",
"165 447 LINE",
"157 457 OFFCURVE",
"141 446 OFFCURVE",
"149 436 CURVE SMOOTH",
"161 420 OFFCURVE",
"170 401 OFFCURVE",
"184 386 CURVE SMOOTH",
"198 370 OFFCURVE",
"220 357 OFFCURVE",
"243 352 CURVE",
"251 287 OFFCURVE",
"256 268 OFFCURVE",
"256 211 CURVE SMOOTH",
"256 181 OFFCURVE",
"250 149 OFFCURVE",
"239 118 CURVE",
"202 140 OFFCURVE",
"149 179 OFFCURVE",
"108 179 CURVE SMOOTH",
"63 180 OFFCURVE",
"13 129 OFFCURVE",
"13 83 CURVE SMOOTH",
"13 12 OFFCURVE",
"91 -44 OFFCURVE",
"158 -44 CURVE SMOOTH",
"187 -44 OFFCURVE",
"202 -27 OFFCURVE",
"215 -6 CURVE SMOOTH",
"227 15 OFFCURVE",
"240 35 OFFCURVE",
"251 55 CURVE",
"314 6 OFFCURVE",
"357 -58 OFFCURVE",
"455 -58 CURVE SMOOTH",
"475 -58 OFFCURVE",
"496 -54 OFFCURVE",
"505 -50 CURVE SMOOTH",
"575 -27 OFFCURVE",
"625 57 OFFCURVE",
"624 128 CURVE SMOOTH"
);
},
{
closed = 1;
nodes = (
"410 525 OFFCURVE",
"393 459 OFFCURVE",
"352 414 CURVE SMOOTH",
"334 395 OFFCURVE",
"304 381 OFFCURVE",
"278 377 CURVE",
"270 437 OFFCURVE",
"264 497 OFFCURVE",
"272 558 CURVE SMOOTH",
"279 609 OFFCURVE",
"295 643 OFFCURVE",
"326 684 CURVE SMOOTH",
"332 692 OFFCURVE",
"343 703 OFFCURVE",
"351 703 CURVE SMOOTH",
"358 703 OFFCURVE",
"370 694 OFFCURVE",
"376 689 CURVE SMOOTH",
"403 666 OFFCURVE",
"410 623 OFFCURVE",
"410 590 CURVE SMOOTH"
);
},
{
closed = 1;
nodes = (
"221 77 LINE",
"213 60 OFFCURVE",
"204 46 OFFCURVE",
"195 34 CURVE SMOOTH",
"187 21 OFFCURVE",
"175 -6 OFFCURVE",
"158 -6 CURVE SMOOTH",
"106 -6 OFFCURVE",
"40 28 OFFCURVE",
"40 83 CURVE SMOOTH",
"40 123 OFFCURVE",
"67 150 OFFCURVE",
"109 151 CURVE SMOOTH",
"136 151 OFFCURVE",
"195 93 OFFCURVE",
"220 77 CURVE"
);
},
{
closed = 1;
nodes = (
"180 567 OFFCURVE",
"168 554 OFFCURVE",
"168 540 CURVE SMOOTH",
"168 526 OFFCURVE",
"180 514 OFFCURVE",
"195 514 CURVE SMOOTH",
"208 514 OFFCURVE",
"221 526 OFFCURVE",
"221 541 CURVE SMOOTH",
"220 554 OFFCURVE",
"207 567 OFFCURVE",
"194 567 CURVE SMOOTH"
);
},
{
closed = 1;
nodes = (
"225 650 OFFCURVE",
"213 661 OFFCURVE",
"198 661 CURVE SMOOTH",
"185 661 OFFCURVE",
"172 650 OFFCURVE",
"172 635 CURVE SMOOTH",
"172 620 OFFCURVE",
"185 609 OFFCURVE",
"199 609 CURVE SMOOTH",
"213 609 OFFCURVE",
"225 620 OFFCURVE",
"225 635 CURVE SMOOTH"
);
},
{
closed = 1;
nodes = (
"371 259 OFFCURVE",
"358 267 OFFCURVE",
"351 261 CURVE SMOOTH",
"342 255 OFFCURVE",
"314 249 OFFCURVE",
"297 244 CURVE SMOOTH",
"292 243 OFFCURVE",
"279 242 OFFCURVE",
"272 241 CURVE SMOOTH",
"263 240 OFFCURVE",
"259 237 OFFCURVE",
"250 235 CURVE SMOOTH",
"244 234 OFFCURVE",
"234 233 OFFCURVE",
"225 232 CURVE SMOOTH",
"212 230 OFFCURVE",
"196 234 OFFCURVE",
"180 231 CURVE SMOOTH",
"158 226 OFFCURVE",
"152 213 OFFCURVE",
"141 200 CURVE SMOOTH",
"131 189 OFFCURVE",
"150 179 OFFCURVE",
"159 188 CURVE SMOOTH",
"168 197 OFFCURVE",
"176 202 OFFCURVE",
"188 204 CURVE SMOOTH",
"196 205 OFFCURVE",
"202 206 OFFCURVE",
"207 206 CURVE SMOOTH",
"222 206 OFFCURVE",
"243 208 OFFCURVE",
"258 213 CURVE SMOOTH",
"265 215 OFFCURVE",
"271 216 OFFCURVE",
"279 218 CURVE SMOOTH",
"286 221 OFFCURVE",
"299 221 OFFCURVE",
"302 221 CURVE SMOOTH",
"324 221 OFFCURVE",
"352 243 OFFCURVE",
"363 252 CURVE SMOOTH"
);
},
{
closed = 1;
nodes = (
"475 -58 OFFCURVE",
"496 -54 OFFCURVE",
"505 -50 CURVE",
"574 -27 OFFCURVE",
"624 55 OFFCURVE",
"624 126 CURVE SMOOTH",
"624 187 OFFCURVE",
"590 268 OFFCURVE",
"540 296 CURVE SMOOTH",
"517 309 OFFCURVE",
"497 309 OFFCURVE",
"475 309 CURVE SMOOTH",
"411 309 OFFCURVE",
"373 237 OFFCURVE",
"373 180 CURVE SMOOTH",
"373 146 OFFCURVE",
"402 86 OFFCURVE",
"449 86 CURVE SMOOTH",
"500 87 OFFCURVE",
"523 124 OFFCURVE",
"524 171 CURVE SMOOTH",
"524 178 OFFCURVE",
"519 182 OFFCURVE",
"513 182 CURVE SMOOTH",
"508 182 OFFCURVE",
"502 178 OFFCURVE",
"502 170 CURVE SMOOTH",
"501 139 OFFCURVE",
"483 116 OFFCURVE",
"447 115 CURVE SMOOTH",
"426 115 OFFCURVE",
"402 151 OFFCURVE",
"402 180 CURVE SMOOTH",
"402 224 OFFCURVE",
"425 282 OFFCURVE",
"474 282 CURVE SMOOTH",
"497 282 OFFCURVE",
"511 281 OFFCURVE",
"526 272 CURVE SMOOTH",
"568 250 OFFCURVE",
"577 176 OFFCURVE",
"577 126 CURVE SMOOTH",
"577 63 OFFCURVE",
"523 -9 OFFCURVE",
"457 -9 CURVE SMOOTH",
"411 -9 OFFCURVE",
"379 8 OFFCURVE",
"349 31 CURVE SMOOTH",
"323 52 OFFCURVE",
"298 75 OFFCURVE",
"271 95 CURVE",
"286 131 OFFCURVE",
"295 169 OFFCURVE",
"295 211 CURVE SMOOTH",
"295 272 OFFCURVE",
"289 289 OFFCURVE",
"280 351 CURVE",
"394 361 OFFCURVE",
"450 488 OFFCURVE",
"450 590 CURVE SMOOTH",
"450 636 OFFCURVE",
"449 700 OFFCURVE",
"412 731 CURVE SMOOTH",
"396 744 OFFCURVE",
"367 757 OFFCURVE",
"351 757 CURVE SMOOTH",
"329 757 OFFCURVE",
"300 730 OFFCURVE",
"287 712 CURVE SMOOTH",
"245 654 OFFCURVE",
"232 583 OFFCURVE",
"232 508 CURVE SMOOTH",
"232 466 OFFCURVE",
"236 423 OFFCURVE",
"241 380 CURVE",
"206 391 OFFCURVE",
"185 419 OFFCURVE",
"164 447 CURVE",
"165 447 LINE",
"163 450 OFFCURVE",
"160 451 OFFCURVE",
"158 451 CURVE SMOOTH",
"152 451 OFFCURVE",
"147 447 OFFCURVE",
"147 442 CURVE SMOOTH",
"147 440 OFFCURVE",
"147 438 OFFCURVE",
"149 436 CURVE SMOOTH",
"161 420 OFFCURVE",
"170 401 OFFCURVE",
"184 386 CURVE SMOOTH",
"198 370 OFFCURVE",
"220 357 OFFCURVE",
"243 352 CURVE",
"251 287 OFFCURVE",
"256 268 OFFCURVE",
"256 211 CURVE SMOOTH",
"256 181 OFFCURVE",
"250 149 OFFCURVE",
"239 118 CURVE",
"202 140 OFFCURVE",
"148 179 OFFCURVE",
"107 179 CURVE SMOOTH",
"62 179 OFFCURVE",
"13 129 OFFCURVE",
"13 83 CURVE SMOOTH",
"13 12 OFFCURVE",
"91 -44 OFFCURVE",
"158 -44 CURVE SMOOTH",
"187 -44 OFFCURVE",
"202 -27 OFFCURVE",
"215 -6 CURVE SMOOTH",
"227 15 OFFCURVE",
"240 35 OFFCURVE",
"251 55 CURVE",
"314 6 OFFCURVE",
"357 -58 OFFCURVE",
"455 -58 CURVE SMOOTH"
);
},
{
closed = 1;
nodes = (
"106 -6 OFFCURVE",
"40 28 OFFCURVE",
"40 83 CURVE SMOOTH",
"40 123 OFFCURVE",
"67 150 OFFCURVE",
"109 151 CURVE SMOOTH",
"136 151 OFFCURVE",
"195 93 OFFCURVE",
"220 77 CURVE",
"221 77 LINE",
"213 60 OFFCURVE",
"204 46 OFFCURVE",
"195 34 CURVE SMOOTH",
"187 21 OFFCURVE",
"175 -6 OFFCURVE",
"158 -6 CURVE SMOOTH"
);
},
{
closed = 1;
nodes = (
"153 185 OFFCURVE",
"157 186 OFFCURVE",
"159 188 CURVE SMOOTH",
"168 197 OFFCURVE",
"176 202 OFFCURVE",
"188 204 CURVE SMOOTH",
"196 205 OFFCURVE",
"202 206 OFFCURVE",
"207 206 CURVE SMOOTH",
"222 206 OFFCURVE",
"243 208 OFFCURVE",
"258 213 CURVE SMOOTH",
"265 215 OFFCURVE",
"271 216 OFFCURVE",
"279 218 CURVE SMOOTH",
"286 221 OFFCURVE",
"299 221 OFFCURVE",
"302 221 CURVE SMOOTH",
"324 221 OFFCURVE",
"352 243 OFFCURVE",
"363 252 CURVE SMOOTH",
"369 257 OFFCURVE",
"363 263 OFFCURVE",
"357 263 CURVE SMOOTH",
"355 263 OFFCURVE",
"353 262 OFFCURVE",
"351 261 CURVE SMOOTH",
"342 255 OFFCURVE",
"314 249 OFFCURVE",
"297 244 CURVE SMOOTH",
"292 243 OFFCURVE",
"279 242 OFFCURVE",
"272 241 CURVE SMOOTH",
"263 240 OFFCURVE",
"259 237 OFFCURVE",
"250 235 CURVE SMOOTH",
"225 232 LINE SMOOTH",
"216 231 OFFCURVE",
"205 232 OFFCURVE",
"194 232 CURVE SMOOTH",
"160 232 OFFCURVE",
"154 215 OFFCURVE",
"141 200 CURVE SMOOTH",
"134 192 OFFCURVE",
"142 185 OFFCURVE",
"150 185 CURVE SMOOTH"
);
},
{
closed = 1;
nodes = (
"208 514 OFFCURVE",
"221 526 OFFCURVE",
"221 541 CURVE SMOOTH",
"220 554 OFFCURVE",
"207 567 OFFCURVE",
"194 567 CURVE SMOOTH",
"180 567 OFFCURVE",
"168 554 OFFCURVE",
"168 540 CURVE SMOOTH",
"168 526 OFFCURVE",
"180 514 OFFCURVE",
"195 514 CURVE SMOOTH"
);
},
{
closed = 1;
nodes = (
"213 609 OFFCURVE",
"225 620 OFFCURVE",
"225 635 CURVE SMOOTH",
"225 650 OFFCURVE",
"213 661 OFFCURVE",
"198 661 CURVE SMOOTH",
"185 661 OFFCURVE",
"172 650 OFFCURVE",
"172 635 CURVE SMOOTH",
"172 620 OFFCURVE",
"185 609 OFFCURVE",
"199 609 CURVE SMOOTH"
);
},
{
closed = 1;
nodes = (
"273 417 OFFCURVE",
"268 457 OFFCURVE",
"268 497 CURVE SMOOTH",
"268 517 OFFCURVE",
"269 538 OFFCURVE",
"272 558 CURVE SMOOTH",
"279 609 OFFCURVE",
"295 643 OFFCURVE",
"326 684 CURVE SMOOTH",
"332 692 OFFCURVE",
"343 703 OFFCURVE",
"351 703 CURVE SMOOTH",
"358 703 OFFCURVE",
"370 694 OFFCURVE",
"376 689 CURVE SMOOTH",
"403 666 OFFCURVE",
"410 623 OFFCURVE",
"410 590 CURVE SMOOTH",
"410 525 OFFCURVE",
"393 459 OFFCURVE",
"352 414 CURVE SMOOTH",
"334 395 OFFCURVE",
"304 381 OFFCURVE",
"278 377 CURVE"
);
}
);
};
layerId = "245B06BA-2FC8-4E2B-85DB-2741CBBED619";
paths = (
{
closed = 1;
nodes = (
"153 185 OFFCURVE",
"157 186 OFFCURVE",
"159 188 CURVE SMOOTH",
"168 197 OFFCURVE",
"176 202 OFFCURVE",
"188 204 CURVE SMOOTH",
"196 205 OFFCURVE",
"202 206 OFFCURVE",
"207 206 CURVE SMOOTH",
"222 206 OFFCURVE",
"243 208 OFFCURVE",
"258 213 CURVE SMOOTH",
"265 215 OFFCURVE",
"271 216 OFFCURVE",
"279 218 CURVE SMOOTH",
"286 221 OFFCURVE",
"299 221 OFFCURVE",
"302 221 CURVE SMOOTH",
"324 221 OFFCURVE",
"352 243 OFFCURVE",
"363 252 CURVE SMOOTH",
"369 257 OFFCURVE",
"363 263 OFFCURVE",
"357 263 CURVE SMOOTH",
"355 263 OFFCURVE",
"353 262 OFFCURVE",
"351 261 CURVE SMOOTH",
"342 255 OFFCURVE",
"314 249 OFFCURVE",
"297 244 CURVE SMOOTH",
"292 243 OFFCURVE",
"279 242 OFFCURVE",
"272 241 CURVE SMOOTH",
"263 240 OFFCURVE",
"259 237 OFFCURVE",
"250 235 CURVE SMOOTH",
"225 232 LINE SMOOTH",
"216 231 OFFCURVE",
"205 232 OFFCURVE",
"194 232 CURVE SMOOTH",
"160 232 OFFCURVE",
"154 215 OFFCURVE",
"141 200 CURVE SMOOTH",
"134 192 OFFCURVE",
"142 185 OFFCURVE",
"150 185 CURVE SMOOTH"
);
},
{
closed = 1;
nodes = (
"475 -58 OFFCURVE",
"496 -54 OFFCURVE",
"505 -50 CURVE",
"574 -27 OFFCURVE",
"624 55 OFFCURVE",
"624 126 CURVE SMOOTH",
"624 187 OFFCURVE",
"590 268 OFFCURVE",
"540 296 CURVE SMOOTH",
"517 309 OFFCURVE",
"497 309 OFFCURVE",
"475 309 CURVE SMOOTH",
"411 309 OFFCURVE",
"373 237 OFFCURVE",
"373 180 CURVE SMOOTH",
"373 146 OFFCURVE",
"402 86 OFFCURVE",
"449 86 CURVE SMOOTH",
"500 87 OFFCURVE",
"523 124 OFFCURVE",
"524 171 CURVE SMOOTH",
"524 178 OFFCURVE",
"519 182 OFFCURVE",
"513 182 CURVE SMOOTH",
"508 182 OFFCURVE",
"502 178 OFFCURVE",
"502 170 CURVE SMOOTH",
"501 139 OFFCURVE",
"483 116 OFFCURVE",
"447 115 CURVE SMOOTH",
"426 115 OFFCURVE",
"402 151 OFFCURVE",
"402 180 CURVE SMOOTH",
"402 224 OFFCURVE",
"425 282 OFFCURVE",
"474 282 CURVE SMOOTH",
"497 282 OFFCURVE",
"511 281 OFFCURVE",
"526 272 CURVE SMOOTH",
"568 250 OFFCURVE",
"577 176 OFFCURVE",
"577 126 CURVE SMOOTH",
"577 63 OFFCURVE",
"523 -9 OFFCURVE",
"457 -9 CURVE SMOOTH",
"411 -9 OFFCURVE",
"379 8 OFFCURVE",
"349 31 CURVE SMOOTH",
"323 52 OFFCURVE",
"298 75 OFFCURVE",
"271 95 CURVE",
"286 131 OFFCURVE",
"295 169 OFFCURVE",
"295 211 CURVE SMOOTH",
"295 272 OFFCURVE",
"289 289 OFFCURVE",
"280 351 CURVE",
"394 361 OFFCURVE",
"450 488 OFFCURVE",
"450 590 CURVE SMOOTH",
"450 636 OFFCURVE",
"449 700 OFFCURVE",
"412 731 CURVE SMOOTH",
"396 744 OFFCURVE",
"367 757 OFFCURVE",
"351 757 CURVE SMOOTH",
"329 757 OFFCURVE",
"300 730 OFFCURVE",
"287 712 CURVE SMOOTH",
"245 654 OFFCURVE",
"232 583 OFFCURVE",
"232 508 CURVE SMOOTH",
"232 466 OFFCURVE",
"236 423 OFFCURVE",
"241 380 CURVE",
"206 391 OFFCURVE",
"185 419 OFFCURVE",
"164 447 CURVE",
"165 447 LINE",
"163 450 OFFCURVE",
"160 451 OFFCURVE",
"158 451 CURVE SMOOTH",
"152 451 OFFCURVE",
"147 447 OFFCURVE",
"147 442 CURVE SMOOTH",
"147 440 OFFCURVE",
"147 438 OFFCURVE",
"149 436 CURVE SMOOTH",
"161 420 OFFCURVE",
"170 401 OFFCURVE",
"184 386 CURVE SMOOTH",
"198 370 OFFCURVE",
"220 357 OFFCURVE",
"243 352 CURVE",
"251 287 OFFCURVE",
"256 268 OFFCURVE",
"256 211 CURVE SMOOTH",
"256 181 OFFCURVE",
"250 149 OFFCURVE",
"239 118 CURVE",
"202 140 OFFCURVE",
"148 179 OFFCURVE",
"107 179 CURVE SMOOTH",
"62 179 OFFCURVE",
"13 129 OFFCURVE",
"13 83 CURVE SMOOTH",
"13 12 OFFCURVE",
"91 -44 OFFCURVE",
"158 -44 CURVE SMOOTH",
"187 -44 OFFCURVE",
"202 -27 OFFCURVE",
"215 -6 CURVE SMOOTH",
"227 15 OFFCURVE",
"240 35 OFFCURVE",
"251 55 CURVE",
"314 6 OFFCURVE",
"357 -58 OFFCURVE",
"455 -58 CURVE SMOOTH"
);
},
{
closed = 1;
nodes = (
"106 -6 OFFCURVE",
"40 28 OFFCURVE",
"40 83 CURVE SMOOTH",
"40 123 OFFCURVE",
"67 150 OFFCURVE",
"109 151 CURVE SMOOTH",
"136 151 OFFCURVE",
"195 93 OFFCURVE",
"220 77 CURVE",
"221 77 LINE",
"213 60 OFFCURVE",
"204 46 OFFCURVE",
"195 34 CURVE SMOOTH",
"187 21 OFFCURVE",
"175 -6 OFFCURVE",
"158 -6 CURVE SMOOTH"
);
},
{
closed = 1;
nodes = (
"273 417 OFFCURVE",
"268 457 OFFCURVE",
"268 497 CURVE SMOOTH",
"268 517 OFFCURVE",
"269 538 OFFCURVE",
"272 558 CURVE SMOOTH",
"279 609 OFFCURVE",
"295 643 OFFCURVE",
"326 684 CURVE SMOOTH",
"332 692 OFFCURVE",
"343 703 OFFCURVE",
"351 703 CURVE SMOOTH",
"358 703 OFFCURVE",
"370 694 OFFCURVE",
"376 689 CURVE SMOOTH",
"403 666 OFFCURVE",
"410 623 OFFCURVE",
"410 590 CURVE SMOOTH",
"410 525 OFFCURVE",
"393 459 OFFCURVE",
"352 414 CURVE SMOOTH",
"334 395 OFFCURVE",
"304 381 OFFCURVE",
"278 377 CURVE"
);
}
);
width = 643;
}
);
unicode = 0141;
},
{
color = 4;
glyphname = M;
lastChange = "2021-08-24 08:46:40 +0000";
layers = (
{
layerId = "245B06BA-2FC8-4E2B-85DB-2741CBBED619";
paths = (
{
closed = 1;
nodes = (
"150 -102 OFFCURVE",
"207 -35 OFFCURVE",
"223 -6 CURVE SMOOTH",
"268 76 OFFCURVE",
"308 214 OFFCURVE",
"325 306 CURVE",
"339 265 OFFCURVE",
"353 223 OFFCURVE",
"362 179 CURVE SMOOTH",
"367 150 OFFCURVE",
"383 122 OFFCURVE",
"384 92 CURVE",
"389 75 LINE",
"378 52 OFFCURVE",
"372 26 OFFCURVE",
"372 3 CURVE SMOOTH",
"372 -5 OFFCURVE",
"373 -13 OFFCURVE",
"374 -20 CURVE SMOOTH",
"375 -29 OFFCURVE",
"387 -35 OFFCURVE",
"397 -35 CURVE SMOOTH",
"403 -35 OFFCURVE",
"408 -33 OFFCURVE",
"411 -30 CURVE SMOOTH",
"431 -9 OFFCURVE",
"432 24 OFFCURVE",
"431 54 CURVE",
"450 102 OFFCURVE",
"485 141 OFFCURVE",
"511 186 CURVE SMOOTH",
"522 204 OFFCURVE",
"532 222 OFFCURVE",
"542 240 CURVE",
"550 178 OFFCURVE",
"566 130 OFFCURVE",
"584 76 CURVE SMOOTH",
"594 45 OFFCURVE",
"645 -45 OFFCURVE",
"696 -45 CURVE SMOOTH",
"717 -45 OFFCURVE",
"760 -9 OFFCURVE",
"772 3 CURVE SMOOTH",
"790 22 OFFCURVE",
"795 41 OFFCURVE",
"795 67 CURVE SMOOTH",
"794 93 OFFCURVE",
"786 130 OFFCURVE",
"772 153 CURVE SMOOTH",
"764 166 OFFCURVE",
"745 184 OFFCURVE",
"727 184 CURVE SMOOTH",
"698 184 OFFCURVE",
"681 158 OFFCURVE",
"681 136 CURVE SMOOTH",
"681 129 OFFCURVE",
"686 125 OFFCURVE",
"691 125 CURVE SMOOTH",
"696 125 OFFCURVE",
"700 128 OFFCURVE",
"700 133 CURVE SMOOTH",
"702 146 OFFCURVE",
"713 157 OFFCURVE",
"729 157 CURVE",
"736 158 OFFCURVE",
"766 120 OFFCURVE",
"769 110 CURVE SMOOTH",
"772 103 OFFCURVE",
"776 71 OFFCURVE",
"776 67 CURVE SMOOTH",
"775 45 OFFCURVE",
"771 30 OFFCURVE",
"757 16 CURVE SMOOTH",
"749 7 OFFCURVE",
"712 -17 OFFCURVE",
"697 -17 CURVE SMOOTH",
"692 -17 OFFCURVE",
"689 -15 OFFCURVE",
"685 -12 CURVE SMOOTH",
"654 6 OFFCURVE",
"636 58 OFFCURVE",
"625 91 CURVE SMOOTH",
"608 142 OFFCURVE",
"607 193 OFFCURVE",
"599 254 CURVE SMOOTH",
"596 279 OFFCURVE",
"590 299 OFFCURVE",
"585 320 CURVE",
"633 414 OFFCURVE",
"668 511 OFFCURVE",
"668 627 CURVE SMOOTH",
"668 654 OFFCURVE",
"664 692 OFFCURVE",
"628 693 CURVE SMOOTH",
"598 693 OFFCURVE",
"581 670 OFFCURVE",
"572 650 CURVE SMOOTH",
"559 622 OFFCURVE",
"533 516 OFFCURVE",
"530 488 CURVE SMOOTH",
"526 460 OFFCURVE",
"522 432 OFFCURVE",
"522 402 CURVE SMOOTH",
"522 367 OFFCURVE",
"527 342 OFFCURVE",
"531 317 CURVE",
"511 283 OFFCURVE",
"488 249 OFFCURVE",
"467 211 CURVE SMOOTH",
"456 192 OFFCURVE",
"445 176 OFFCURVE",
"433 160 CURVE",
"430 153 OFFCURVE",
"426 148 OFFCURVE",
"421 141 CURVE",
"419 158 OFFCURVE",
"414 174 OFFCURVE",
"411 189 CURVE SMOOTH",
"398 259 OFFCURVE",
"367 323 OFFCURVE",
"342 389 CURVE",
"350 433 OFFCURVE",
"356 476 OFFCURVE",
"356 522 CURVE SMOOTH",
"356 530 OFFCURVE",
"355 539 OFFCURVE",
"355 548 CURVE SMOOTH",
"352 592 OFFCURVE",
"332 704 OFFCURVE",
"268 704 CURVE SMOOTH",
"239 704 OFFCURVE",
"211 634 OFFCURVE",
"211 610 CURVE SMOOTH",
"211 535 OFFCURVE",
"254 473 OFFCURVE",
"286 407 CURVE",
"280 379 OFFCURVE",
"273 349 OFFCURVE",
"268 319 CURVE SMOOTH",
"253 232 OFFCURVE",
"231 91 OFFCURVE",
"189 16 CURVE SMOOTH",
"170 -19 OFFCURVE",
"150 -67 OFFCURVE",
"103 -67 CURVE SMOOTH",
"50 -67 OFFCURVE",
"34 -28 OFFCURVE",
"34 30 CURVE SMOOTH",
"34 90 OFFCURVE",
"50 139 OFFCURVE",
"87 180 CURVE SMOOTH",
"96 189 OFFCURVE",
"100 195 OFFCURVE",
"114 195 CURVE SMOOTH",
"139 195 OFFCURVE",
"177 176 OFFCURVE",
"177 148 CURVE SMOOTH",
"177 119 OFFCURVE",
"149 84 OFFCURVE",
"125 84 CURVE SMOOTH",
"111 84 OFFCURVE",
"102 90 OFFCURVE",
"102 101 CURVE SMOOTH",
"102 112 OFFCURVE",
"115 125 OFFCURVE",
"128 128 CURVE",
"133 128 OFFCURVE",
"136 133 OFFCURVE",
"136 137 CURVE SMOOTH",
"136 141 OFFCURVE",
"133 146 OFFCURVE",
"127 146 CURVE SMOOTH",
"125 146 LINE SMOOTH",
"105 143 OFFCURVE",
"83 123 OFFCURVE",
"83 101 CURVE SMOOTH",
"83 73 OFFCURVE",
"108 65 OFFCURVE",
"125 65 CURVE SMOOTH",
"164 65 OFFCURVE",
"196 113 OFFCURVE",
"196 149 CURVE SMOOTH",
"196 172 OFFCURVE",
"175 205 OFFCURVE",
"159 212 CURVE SMOOTH",
"146 218 OFFCURVE",
"130 222 OFFCURVE",
"113 222 CURVE SMOOTH",
"95 222 OFFCURVE",
"86 218 OFFCURVE",
"75 207 CURVE SMOOTH",
"27 159 OFFCURVE",
"3 97 OFFCURVE",
"3 30 CURVE SMOOTH",
"3 -48 OFFCURVE",
"31 -99 OFFCURVE",
"101 -100 CURVE",
"101 -99 LINE",
"105 -101 OFFCURVE",
"111 -102 OFFCURVE",
"115 -102 CURVE SMOOTH"
);
},
{
closed = 1;
nodes = (
"268 517 OFFCURVE",
"241 563 OFFCURVE",
"241 610 CURVE SMOOTH",
"241 623 OFFCURVE",
"253 664 OFFCURVE",
"269 664 CURVE SMOOTH",
"297 664 OFFCURVE",
"297 559 OFFCURVE",
"298 544 CURVE SMOOTH",
"299 519 OFFCURVE",
"298 495 OFFCURVE",
"296 474 CURVE"
);
},
{
closed = 1;
nodes = (
"571 413 OFFCURVE",
"570 427 OFFCURVE",
"570 441 CURVE SMOOTH",
"570 455 OFFCURVE",
"571 469 OFFCURVE",
"573 483 CURVE SMOOTH",
"577 505 OFFCURVE",
"588 661 OFFCURVE",
"629 661 CURVE SMOOTH",
"631 661 OFFCURVE",
"628 657 OFFCURVE",
"628 655 CURVE",
"629 652 OFFCURVE",
"629 649 OFFCURVE",
"629 646 CURVE SMOOTH",
"629 640 OFFCURVE",
"628 634 OFFCURVE",
"628 628 CURVE SMOOTH",
"629 615 OFFCURVE",
"627 615 OFFCURVE",
"626 600 CURVE SMOOTH",
"619 520 OFFCURVE",
"600 457 OFFCURVE",
"573 398 CURVE",
"572 398 LINE"
);
}
);
width = 788;
}
);
note = M;
unicode = 004D;
},
{
color = 4;
glyphname = N;
lastChange = "2021-08-24 08:46:40 +0000";
layers = (
{
anchors = (
{
name = bottom;
position = "{355, 0}";
},
{
name = top;
position = "{477, 699}";
}
);
layerId = "245B06BA-2FC8-4E2B-85DB-2741CBBED619";
paths = (
{
closed = 1;
nodes = (
"657 -88 OFFCURVE",
"692 31 OFFCURVE",
"693 103 CURVE SMOOTH",
"693 141 OFFCURVE",
"683 232 OFFCURVE",
"630 232 CURVE SMOOTH",
"603 232 OFFCURVE",
"591 209 OFFCURVE",
"582 189 CURVE SMOOTH",
"573 170 OFFCURVE",
"566 158 OFFCURVE",
"566 136 CURVE SMOOTH",
"566 116 OFFCURVE",
"588 71 OFFCURVE",
"613 71 CURVE SMOOTH",
"626 70 OFFCURVE",
"632 81 OFFCURVE",
"632 89 CURVE SMOOTH",
"632 95 OFFCURVE",
"630 99 OFFCURVE",
"626 99 CURVE SMOOTH",
"624 99 OFFCURVE",
"621 98 OFFCURVE",
"618 95 CURVE SMOOTH",
"613 88 LINE",
"596 88 OFFCURVE",
"589 123 OFFCURVE",
"589 136 CURVE SMOOTH",
"590 143 OFFCURVE",
"591 150 OFFCURVE",
"594 157 CURVE SMOOTH",
"599 171 OFFCURVE",
"609 200 OFFCURVE",
"628 200 CURVE SMOOTH",
"668 200 OFFCURVE",
"663 130 OFFCURVE",
"663 103 CURVE SMOOTH",
"663 46 OFFCURVE",
"641 -55 OFFCURVE",
"573 -54 CURVE SMOOTH",
"528 -54 OFFCURVE",
"525 75 OFFCURVE",
"525 125 CURVE SMOOTH",
"525 222 OFFCURVE",
"536 313 OFFCURVE",
"566 399 CURVE SMOOTH",
"588 464 OFFCURVE",
"613 506 OFFCURVE",
"614 578 CURVE SMOOTH",
"614 628 OFFCURVE",
"590 701 OFFCURVE",
"529 701 CURVE SMOOTH",
"438 701 OFFCURVE",
"375 615 OFFCURVE",
"328 548 CURVE SMOOTH",
"309 520 OFFCURVE",
"289 491 OFFCURVE",
"270 460 CURVE",
"269 473 OFFCURVE",
"267 485 OFFCURVE",
"267 497 CURVE SMOOTH",
"263 562 OFFCURVE",
"233 710 OFFCURVE",
"143 711 CURVE SMOOTH",
"64 711 OFFCURVE",
"1 615 OFFCURVE",
"1 518 CURVE SMOOTH",
"1 446 OFFCURVE",
"21 416 OFFCURVE",
"45 383 CURVE SMOOTH",
"56 367 OFFCURVE",
"77 362 OFFCURVE",
"101 362 CURVE SMOOTH",
"148 362 OFFCURVE",
"184 401 OFFCURVE",
"184 448 CURVE SMOOTH",
"184 477 OFFCURVE",
"164 505 OFFCURVE",
"133 505 CURVE SMOOTH",
"127 505 OFFCURVE",
"120 504 OFFCURVE",
"112 501 CURVE SMOOTH",
"108 499 OFFCURVE",
"106 495 OFFCURVE",
"106 491 CURVE SMOOTH",
"106 486 OFFCURVE",
"110 481 OFFCURVE",
"115 481 CURVE SMOOTH",
"117 481 OFFCURVE",
"118 481 OFFCURVE",
"120 482 CURVE SMOOTH",
"125 484 OFFCURVE",
"129 485 OFFCURVE",
"133 485 CURVE SMOOTH",
"151 485 OFFCURVE",
"165 469 OFFCURVE",
"165 448 CURVE SMOOTH",
"165 412 OFFCURVE",
"136 384 OFFCURVE",
"100 384 CURVE SMOOTH",
"85 384 OFFCURVE",
"73 390 OFFCURVE",
"66 399 CURVE SMOOTH",
"43 430 OFFCURVE",
"34 492 OFFCURVE",
"34 534 CURVE SMOOTH",
"34 591 OFFCURVE",
"81 683 OFFCURVE",
"142 683 CURVE SMOOTH",
"208 683 OFFCURVE",
"219 575 OFFCURVE",
"219 480 CURVE SMOOTH",
"219 434 OFFCURVE",
"217 391 OFFCURVE",
"216 366 CURVE",
"217 366 LINE",
"198 330 OFFCURVE",
"183 295 OFFCURVE",
"169 258 CURVE SMOOTH",
"145 189 OFFCURVE",
"122 159 OFFCURVE",
"122 98 CURVE SMOOTH",
"122 86 OFFCURVE",
"123 72 OFFCURVE",
"125 57 CURVE SMOOTH",
"128 34 LINE SMOOTH",
"132 4 OFFCURVE",
"146 -31 OFFCURVE",
"177 -31 CURVE SMOOTH",
"185 -31 OFFCURVE",
"195 -28 OFFCURVE",
"206 -22 CURVE SMOOTH",
"237 -6 OFFCURVE",
"251 32 OFFCURVE",
"258 60 CURVE SMOOTH",
"272 122 OFFCURVE",
"275 183 OFFCURVE",
"275 245 CURVE SMOOTH",
"275 283 OFFCURVE",
"274 320 OFFCURVE",
"274 357 CURVE SMOOTH",
"274 372 LINE",
"304 423 OFFCURVE",
"336 473 OFFCURVE",
"368 520 CURVE SMOOTH",
"407 572 OFFCURVE",
"452 671 OFFCURVE",
"529 671 CURVE SMOOTH",
"539 671 OFFCURVE",
"547 669 OFFCURVE",
"556 664 CURVE SMOOTH",
"578 653 OFFCURVE",
"590 601 OFFCURVE",
"590 577 CURVE SMOOTH",
"590 513 OFFCURVE",
"557 467 OFFCURVE",
"536 409 CURVE SMOOTH",
"506 325 OFFCURVE",
"482 236 OFFCURVE",
"482 141 CURVE SMOOTH",
"482 90 OFFCURVE",
"489 -88 OFFCURVE",
"573 -88 CURVE SMOOTH"
);
},
{
closed = 1;
nodes = (
"173 48 OFFCURVE",
"170 65 OFFCURVE",
"170 82 CURVE SMOOTH",
"170 136 OFFCURVE",
"199 187 OFFCURVE",
"214 241 CURVE SMOOTH",
"216 248 LINE",
"215 162 OFFCURVE",
"208 57 OFFCURVE",
"181 31 CURVE",
"180 31 LINE"
);
}
);
width = 710;
}
);
note = N;
unicode = 004E;
},
{
color = 4;
glyphname = Eng;
lastChange = "2021-08-24 08:46:40 +0000";
layers = (
{
layerId = "245B06BA-2FC8-4E2B-85DB-2741CBBED619";
paths = (
{
closed = 1;
nodes = (
"448 -232 OFFCURVE",
"541 -166 OFFCURVE",
"576 -22 CURVE SMOOTH",
"591 42 OFFCURVE",
"596 92 OFFCURVE",
"596 158 CURVE SMOOTH",
"596 220 OFFCURVE",
"590 393 OFFCURVE",
"590 529 CURVE SMOOTH",
"590 612 OFFCURVE",
"592 682 OFFCURVE",
"599 704 CURVE SMOOTH",
"602 715 OFFCURVE",
"593 722 OFFCURVE",
"585 722 CURVE SMOOTH",
"579 722 OFFCURVE",
"574 719 OFFCURVE",
"572 712 CURVE SMOOTH",
"549 626 OFFCURVE",
"552 508 OFFCURVE",
"544 274 CURVE",
"541 246 LINE",
"474 348 OFFCURVE",
"403 394 OFFCURVE",
"353 505 CURVE SMOOTH",
"297 629 OFFCURVE",
"237 723 OFFCURVE",
"169 723 CURVE SMOOTH",
"156 723 OFFCURVE",
"143 720 OFFCURVE",
"130 713 CURVE SMOOTH",
"100 698 OFFCURVE",
"97 578 OFFCURVE",
"96 562 CURVE SMOOTH",
"92 444 OFFCURVE",
"115 324 OFFCURVE",
"115 205 CURVE SMOOTH",
"115 196 OFFCURVE",
"122 191 OFFCURVE",
"129 191 CURVE SMOOTH",
"136 191 OFFCURVE",
"143 196 OFFCURVE",
"143 205 CURVE SMOOTH",
"143 281 OFFCURVE",
"141 369 OFFCURVE",
"141 452 CURVE SMOOTH",
"141 483 OFFCURVE",
"141 514 OFFCURVE",
"142 542 CURVE SMOOTH",
"144 577 OFFCURVE",
"149 638 OFFCURVE",
"165 669 CURVE",
"245 663 OFFCURVE",
"274 519 OFFCURVE",
"311 458 CURVE SMOOTH",
"377 351 OFFCURVE",
"438 296 OFFCURVE",
"510 192 CURVE SMOOTH",
"521 176 OFFCURVE",
"530 169 OFFCURVE",
"538 169 CURVE",
"538 158 OFFCURVE",
"536 150 OFFCURVE",
"536 148 CURVE SMOOTH",
"532 94 OFFCURVE",
"532 48 OFFCURVE",
"519 -8 CURVE SMOOTH",
"491 -126 OFFCURVE",
"425 -174 OFFCURVE",
"372 -174 CURVE SMOOTH",
"330 -174 OFFCURVE",
"296 -143 OFFCURVE",
"296 -92 CURVE SMOOTH",
"296 -82 OFFCURVE",
"297 -71 OFFCURVE",
"300 -59 CURVE SMOOTH",
"305 -40 OFFCURVE",
"307 -27 OFFCURVE",
"315 -10 CURVE SMOOTH",
"331 25 OFFCURVE",
"385 80 OFFCURVE",
"434 80 CURVE SMOOTH",
"438 80 OFFCURVE",
"443 79 OFFCURVE",
"448 78 CURVE SMOOTH",
"463 75 OFFCURVE",
"467 52 OFFCURVE",
"467 30 CURVE SMOOTH",
"467 18 OFFCURVE",
"466 5 OFFCURVE",
"464 -1 CURVE SMOOTH",
"452 -43 OFFCURVE",
"413 -90 OFFCURVE",
"381 -83 CURVE SMOOTH",
"370 -81 OFFCURVE",
"364 -59 OFFCURVE",
"366 -49 CURVE SMOOTH",
"371 -31 OFFCURVE",
"385 -22 OFFCURVE",
"393 -20 CURVE SMOOTH",
"398 -19 OFFCURVE",
"400 -15 OFFCURVE",
"400 -11 CURVE SMOOTH",
"400 -7 OFFCURVE",
"397 -2 OFFCURVE",
"391 -2 CURVE SMOOTH",
"389 -2 LINE SMOOTH",
"374 -4 OFFCURVE",
"356 -21 OFFCURVE",
"349 -44 CURVE SMOOTH",
"348 -47 OFFCURVE",
"348 -50 OFFCURVE",
"348 -54 CURVE SMOOTH",
"348 -75 OFFCURVE",
"359 -103 OFFCURVE",
"373 -106 CURVE SMOOTH",
"377 -107 OFFCURVE",
"382 -107 OFFCURVE",
"386 -107 CURVE SMOOTH",
"437 -107 OFFCURVE",
"480 -46 OFFCURVE",
"488 -7 CURVE SMOOTH",
"490 2 OFFCURVE",
"491 14 OFFCURVE",
"491 27 CURVE SMOOTH",
"491 58 OFFCURVE",
"483 95 OFFCURVE",
"452 102 CURVE SMOOTH",
"447 103 OFFCURVE",
"442 104 OFFCURVE",
"436 104 CURVE SMOOTH",
"381 104 OFFCURVE",
"317 40 OFFCURVE",
"299 -1 CURVE SMOOTH",
"290 -21 OFFCURVE",
"283 -34 OFFCURVE",
"278 -54 CURVE SMOOTH",
"272 -77 OFFCURVE",
"269 -98 OFFCURVE",
"269 -117 CURVE SMOOTH",
"269 -192 OFFCURVE",
"316 -232 OFFCURVE",
"374 -232 CURVE SMOOTH"
);
}
);
width = 710;
}
);
unicode = 014A;
},
{
glyphname = Ntilde;
lastChange = "2021-08-24 05:23:20 +0000";
layers = (
{
background = {
paths = (
{
closed = 1;
nodes = (
"694 119 OFFCURVE",
"683 211 OFFCURVE",
"629 209 CURVE SMOOTH",
"603 209 OFFCURVE",
"591 187 OFFCURVE",
"582 167 CURVE SMOOTH",
"573 148 OFFCURVE",
"566 136 OFFCURVE",
"566 113 CURVE SMOOTH",
"566 94 OFFCURVE",
"588 48 OFFCURVE",
"613 48 CURVE SMOOTH",
"640 47 OFFCURVE",
"636 91 OFFCURVE",
"618 73 CURVE SMOOTH",
"613 66 LINE",
"597 67 OFFCURVE",
"590 102 OFFCURVE",
"590 114 CURVE SMOOTH",
"590 121 OFFCURVE",
"591 128 OFFCURVE",
"594 134 CURVE SMOOTH",
"600 149 OFFCURVE",
"610 178 OFFCURVE",
"629 178 CURVE SMOOTH",
"668 179 OFFCURVE",
"663 109 OFFCURVE",
"663 82 CURVE SMOOTH",
"663 25 OFFCURVE",
"641 -75 OFFCURVE",
"573 -75 CURVE SMOOTH",
"522 -75 OFFCURVE",
"526 95 OFFCURVE",
"526 119 CURVE SMOOTH",
"526 209 OFFCURVE",
"538 296 OFFCURVE",
"566 376 CURVE SMOOTH",
"589 441 OFFCURVE",
"615 484 OFFCURVE",
"615 556 CURVE SMOOTH",
"615 606 OFFCURVE",
"590 679 OFFCURVE",
"529 679 CURVE SMOOTH",
"438 680 OFFCURVE",
"374 594 OFFCURVE",
"328 526 CURVE SMOOTH",
"308 497 OFFCURVE",
"289 468 OFFCURVE",
"270 438 CURVE",
"270 450 OFFCURVE",
"269 463 OFFCURVE",
"268 475 CURVE SMOOTH",
"264 541 OFFCURVE",
"233 690 OFFCURVE",
"143 690 CURVE SMOOTH",
"68 690 OFFCURVE",
"4 603 OFFCURVE",
"1 512 CURVE SMOOTH",
"-2 428 OFFCURVE",
"21 395 OFFCURVE",
"46 361 CURVE SMOOTH",
"57 345 OFFCURVE",
"77 339 OFFCURVE",
"101 339 CURVE SMOOTH",
"148 339 OFFCURVE",
"183 379 OFFCURVE",
"184 426 CURVE SMOOTH",
"184 460 OFFCURVE",
"156 495 OFFCURVE",
"113 478 CURVE SMOOTH",
"101 474 OFFCURVE",
"108 456 OFFCURVE",
"120 460 CURVE SMOOTH",
"146 470 OFFCURVE",
"166 451 OFFCURVE",
"166 426 CURVE SMOOTH",
"165 390 OFFCURVE",
"136 362 OFFCURVE",
"100 362 CURVE SMOOTH",
"86 362 OFFCURVE",
"74 367 OFFCURVE",
"67 376 CURVE SMOOTH",
"44 408 OFFCURVE",
"35 469 OFFCURVE",
"35 512 CURVE SMOOTH",
"34 569 OFFCURVE",
"81 661 OFFCURVE",
"142 661 CURVE SMOOTH",
"240 661 OFFCURVE",
"218 420 OFFCURVE",
"216 344 CURVE",
"217 344 LINE",
"199 309 OFFCURVE",
"184 273 OFFCURVE",
"170 236 CURVE SMOOTH",
"141 153 OFFCURVE",
"116 127 OFFCURVE",
"127 36 CURVE SMOOTH",
"129 12 LINE SMOOTH",
"136 -27 OFFCURVE",
"156 -74 OFFCURVE",
"207 -45 CURVE SMOOTH",
"237 -28 OFFCURVE",
"251 11 OFFCURVE",
"258 39 CURVE SMOOTH",
"282 137 OFFCURVE",
"276 236 OFFCURVE",
"276 335 CURVE SMOOTH",
"276 349 LINE",
"305 401 OFFCURVE",
"337 450 OFFCURVE",
"370 497 CURVE SMOOTH",
"407 551 OFFCURVE",
"452 650 OFFCURVE",
"529 650 CURVE",
"540 648 OFFCURVE",
"548 646 OFFCURVE",
"557 642 CURVE SMOOTH",
"578 632 OFFCURVE",
"590 580 OFFCURVE",
"590 556 CURVE SMOOTH",
"590 491 OFFCURVE",
"557 445 OFFCURVE",
"536 386 CURVE SMOOTH",
"506 302 OFFCURVE",
"457 203 OFFCURVE",
"457 108 CURVE SMOOTH",
"457 56 OFFCURVE",
"489 -111 OFFCURVE",
"573 -111 CURVE SMOOTH",
"659 -111 OFFCURVE",
"694 9 OFFCURVE",
"694 81 CURVE SMOOTH"
);
},
{
closed = 1;
nodes = (
"542 810 OFFCURVE",
"526 814 OFFCURVE",
"528 803 CURVE SMOOTH",
"530 769 OFFCURVE",
"505 771 OFFCURVE",
"479 771 CURVE SMOOTH",
"427 771 OFFCURVE",
"399 813 OFFCURVE",
"327 805 CURVE SMOOTH",
"312 804 OFFCURVE",
"278 762 OFFCURVE",
"278 743 CURVE SMOOTH",
"278 722 OFFCURVE",
"304 716 OFFCURVE",
"308 749 CURVE SMOOTH",
"312 782 OFFCURVE",
"380 755 OFFCURVE",
"400 747 CURVE SMOOTH",
"435 735 OFFCURVE",
"444 726 OFFCURVE",
"479 726 CURVE SMOOTH",
"516 726 OFFCURVE",
"560 759 OFFCURVE",
"545 801 CURVE SMOOTH"
);
},
{
closed = 1;
nodes = (
"216 225 LINE",
"215 140 OFFCURVE",
"208 35 OFFCURVE",
"181 9 CURVE",
"180 9 LINE",
"150 82 OFFCURVE",
"187 152 OFFCURVE",
"214 220 CURVE SMOOTH"
);
}
);
};
components = (
{
name = N;
},
{
name = tildecomb.case;
transform = "{1, 0, 0, 1, 353, 287}";
}
);
layerId = "245B06BA-2FC8-4E2B-85DB-2741CBBED619";
width = 710;
}
);
note = Ntilde;
unicode = 00D1;
},
{
color = 4;
glyphname = O;
lastChange = "2021-08-24 08:46:40 +0000";
layers = (
{
anchors = (
{
name = bottom;
position = "{323, 0}";
},
{
name = center;
position = "{323, 379}";
},
{
name = ogonek;
position = "{345, 10}";
},
{
name = top;
position = "{323, 680}";
},
{
name = topleft;
position = "{20, 757}";
},
{
name = topright;
position = "{495, 603}";
}
);
layerId = "245B06BA-2FC8-4E2B-85DB-2741CBBED619";
paths = (
{
closed = 1;
nodes = (
"395 -12 OFFCURVE",
"500 39 OFFCURVE",
"543 103 CURVE SMOOTH",
"589 168 OFFCURVE",
"609 236 OFFCURVE",
"609 318 CURVE SMOOTH",
"609 377 OFFCURVE",
"587 419 OFFCURVE",
"562 464 CURVE SMOOTH",
"526 528 OFFCURVE",
"455 559 OFFCURVE",
"381 559 CURVE SMOOTH",
"336 559 OFFCURVE",
"279 522 OFFCURVE",
"252 488 CURVE SMOOTH",
"230 461 OFFCURVE",
"214 421 OFFCURVE",
"214 383 CURVE SMOOTH",
"214 329 OFFCURVE",
"255 301 OFFCURVE",
"306 301 CURVE SMOOTH",
"358 301 OFFCURVE",
"424 358 OFFCURVE",
"424 414 CURVE SMOOTH",
"424 441 OFFCURVE",
"392 474 OFFCURVE",
"365 474 CURVE SMOOTH",
"340 474 OFFCURVE",
"299 433 OFFCURVE",
"292 414 CURVE SMOOTH",
"290 409 OFFCURVE",
"289 404 OFFCURVE",
"289 400 CURVE SMOOTH",
"289 385 OFFCURVE",
"300 376 OFFCURVE",
"307 376 CURVE SMOOTH",
"311 376 OFFCURVE",
"314 378 OFFCURVE",
"314 383 CURVE SMOOTH",
"314 387 OFFCURVE",
"313 391 OFFCURVE",
"310 396 CURVE SMOOTH",
"300 414 OFFCURVE",
"351 445 OFFCURVE",
"364 445 CURVE SMOOTH",
"377 445 OFFCURVE",
"393 428 OFFCURVE",
"393 414 CURVE SMOOTH",
"393 374 OFFCURVE",
"344 335 OFFCURVE",
"306 335 CURVE SMOOTH",
"273 335 OFFCURVE",
"246 350 OFFCURVE",
"246 386 CURVE SMOOTH",
"246 456 OFFCURVE",
"288 488 OFFCURVE",
"345 520 CURVE SMOOTH",
"353 525 OFFCURVE",
"361 525 OFFCURVE",
"370 525 CURVE SMOOTH",
"380 525 LINE SMOOTH",
"441 525 OFFCURVE",
"498 496 OFFCURVE",
"528 445 CURVE SMOOTH",
"550 407 OFFCURVE",
"567 370 OFFCURVE",
"567 319 CURVE SMOOTH",
"567 246 OFFCURVE",
"547 187 OFFCURVE",
"506 129 CURVE SMOOTH",
"470 76 OFFCURVE",
"382 38 OFFCURVE",
"317 38 CURVE SMOOTH",
"193 39 OFFCURVE",
"110 118 OFFCURVE",
"76 227 CURVE SMOOTH",
"69 251 OFFCURVE",
"62 272 OFFCURVE",
"62 299 CURVE SMOOTH",
"62 330 OFFCURVE",
"64 353 OFFCURVE",
"72 379 CURVE SMOOTH",
"109 508 OFFCURVE",
"133 571 OFFCURVE",
"254 634 CURVE SMOOTH",
"278 646 OFFCURVE",
"296 646 OFFCURVE",
"323 646 CURVE SMOOTH",
"390 646 OFFCURVE",
"450 614 OFFCURVE",
"500 570 CURVE",
"501 570 LINE",
"509 562 OFFCURVE",
"518 570 OFFCURVE",
"518 578 CURVE SMOOTH",
"518 580 OFFCURVE",
"517 583 OFFCURVE",
"515 585 CURVE SMOOTH",
"495 603 OFFCURVE",
"483 628 OFFCURVE",
"460 643 CURVE SMOOTH",
"421 668 OFFCURVE",
"373 680 OFFCURVE",
"323 680 CURVE SMOOTH",
"290 680 OFFCURVE",
"270 675 OFFCURVE",
"242 661 CURVE SMOOTH",
"205 642 OFFCURVE",
"168 624 OFFCURVE",
"137 596 CURVE SMOOTH",
"75 540 OFFCURVE",
"12 398 OFFCURVE",
"12 309 CURVE SMOOTH",
"12 138 OFFCURVE",
"129 -12 OFFCURVE",
"318 -12 CURVE SMOOTH"
);
}
);
width = 645;
}
);
note = O;
unicode = 004F;
},
{
glyphname = Oacute;
lastChange = "2021-08-24 05:25:16 +0000";
layers = (
{
background = {
paths = (
{
closed = 1;
nodes = (
"609 377 OFFCURVE",
"587 419 OFFCURVE",
"562 464 CURVE SMOOTH",
"526 528 OFFCURVE",
"455 559 OFFCURVE",
"381 559 CURVE SMOOTH",
"336 559 OFFCURVE",
"279 522 OFFCURVE",
"252 488 CURVE SMOOTH",
"230 461 OFFCURVE",
"214 421 OFFCURVE",
"214 383 CURVE SMOOTH",
"214 329 OFFCURVE",
"255 301 OFFCURVE",
"306 301 CURVE SMOOTH",
"358 301 OFFCURVE",
"424 358 OFFCURVE",
"424 414 CURVE SMOOTH",
"424 441 OFFCURVE",
"391 475 OFFCURVE",
"364 474 CURVE SMOOTH",
"339 474 OFFCURVE",
"299 433 OFFCURVE",
"292 414 CURVE SMOOTH",
"278 374 OFFCURVE",
"329 363 OFFCURVE",
"310 396 CURVE SMOOTH",
"300 414 OFFCURVE",
"351 445 OFFCURVE",
"364 445 CURVE SMOOTH",
"377 445 OFFCURVE",
"393 428 OFFCURVE",
"393 414 CURVE SMOOTH",
"393 374 OFFCURVE",
"344 335 OFFCURVE",
"306 335 CURVE SMOOTH",
"274 335 OFFCURVE",
"246 349 OFFCURVE",
"246 383 CURVE SMOOTH",
"245 455 OFFCURVE",
"287 488 OFFCURVE",
"345 520 CURVE SMOOTH",
"356 526 OFFCURVE",
"366 525 OFFCURVE",
"380 525 CURVE SMOOTH",
"441 525 OFFCURVE",
"498 496 OFFCURVE",
"528 445 CURVE SMOOTH",
"550 407 OFFCURVE",
"567 370 OFFCURVE",
"567 319 CURVE SMOOTH",
"567 246 OFFCURVE",
"547 187 OFFCURVE",
"506 129 CURVE SMOOTH",
"470 76 OFFCURVE",
"382 38 OFFCURVE",
"317 38 CURVE SMOOTH",
"193 39 OFFCURVE",
"110 118 OFFCURVE",
"76 227 CURVE SMOOTH",
"68 254 OFFCURVE",
"60 277 OFFCURVE",
"62 309 CURVE SMOOTH",
"62 335 OFFCURVE",
"65 356 OFFCURVE",
"72 379 CURVE SMOOTH",
"109 508 OFFCURVE",
"133 571 OFFCURVE",
"254 634 CURVE SMOOTH",
"278 646 OFFCURVE",
"296 646 OFFCURVE",
"323 646 CURVE SMOOTH",
"390 646 OFFCURVE",
"450 614 OFFCURVE",
"500 570 CURVE",
"501 570 LINE",
"511 560 OFFCURVE",
"525 576 OFFCURVE",
"515 585 CURVE SMOOTH",
"495 603 OFFCURVE",
"483 628 OFFCURVE",
"460 643 CURVE SMOOTH",
"421 668 OFFCURVE",
"373 680 OFFCURVE",
"323 680 CURVE SMOOTH",
"290 680 OFFCURVE",
"270 675 OFFCURVE",
"242 661 CURVE SMOOTH",
"205 642 OFFCURVE",
"168 624 OFFCURVE",
"137 596 CURVE SMOOTH",
"75 540 OFFCURVE",
"12 398 OFFCURVE",
"12 309 CURVE SMOOTH",
"12 138 OFFCURVE",
"129 -12 OFFCURVE",
"318 -12 CURVE SMOOTH",
"395 -12 OFFCURVE",
"500 39 OFFCURVE",
"543 103 CURVE SMOOTH",
"589 168 OFFCURVE",
"609 236 OFFCURVE",
"609 318 CURVE SMOOTH"
);
},
{
closed = 1;
nodes = (
"411 802 OFFCURVE",
"401 805 OFFCURVE",
"391 801 CURVE SMOOTH",
"352 784 OFFCURVE",
"306 753 OFFCURVE",
"265 738 CURVE SMOOTH",
"250 732 OFFCURVE",
"259 718 OFFCURVE",
"274 724 CURVE SMOOTH",
"316 738 OFFCURVE",
"370 739 OFFCURVE",
"409 757 CURVE SMOOTH",
"429 766 OFFCURVE",
"428 796 OFFCURVE",
"414 801 CURVE SMOOTH"
);
}
);
};
components = (
{
name = O;
},
{
name = acutecomb.case;
transform = "{1, 0, 0, 1, 255, 268}";
}
);
layerId = "245B06BA-2FC8-4E2B-85DB-2741CBBED619";
width = 645;
}
);
note = Oacute;
unicode = 00D3;
},
{
glyphname = Ocircumflex;
lastChange = "2021-08-24 05:25:16 +0000";
layers = (
{
background = {
paths = (
{
closed = 1;
nodes = (
"609 377 OFFCURVE",
"587 419 OFFCURVE",
"562 464 CURVE SMOOTH",
"526 528 OFFCURVE",
"455 559 OFFCURVE",
"381 559 CURVE SMOOTH",
"336 559 OFFCURVE",
"279 522 OFFCURVE",
"252 488 CURVE SMOOTH",
"230 461 OFFCURVE",
"214 421 OFFCURVE",
"214 383 CURVE SMOOTH",
"214 329 OFFCURVE",
"255 301 OFFCURVE",
"306 301 CURVE SMOOTH",
"358 301 OFFCURVE",
"424 358 OFFCURVE",
"424 414 CURVE SMOOTH",
"424 441 OFFCURVE",
"391 475 OFFCURVE",
"364 474 CURVE SMOOTH",
"339 474 OFFCURVE",
"299 433 OFFCURVE",
"292 414 CURVE SMOOTH",
"278 374 OFFCURVE",
"329 363 OFFCURVE",
"310 396 CURVE SMOOTH",
"300 414 OFFCURVE",
"351 445 OFFCURVE",
"364 445 CURVE SMOOTH",
"377 445 OFFCURVE",
"393 428 OFFCURVE",
"393 414 CURVE SMOOTH",
"393 374 OFFCURVE",
"344 335 OFFCURVE",
"306 335 CURVE SMOOTH",
"274 335 OFFCURVE",
"246 349 OFFCURVE",
"246 383 CURVE SMOOTH",
"245 455 OFFCURVE",
"287 488 OFFCURVE",
"345 520 CURVE SMOOTH",
"356 526 OFFCURVE",
"366 525 OFFCURVE",
"380 525 CURVE SMOOTH",
"441 525 OFFCURVE",
"498 496 OFFCURVE",
"528 445 CURVE SMOOTH",
"550 407 OFFCURVE",
"567 370 OFFCURVE",
"567 319 CURVE SMOOTH",
"567 246 OFFCURVE",
"547 187 OFFCURVE",
"506 129 CURVE SMOOTH",
"470 76 OFFCURVE",
"382 38 OFFCURVE",
"317 38 CURVE SMOOTH",
"193 39 OFFCURVE",
"110 118 OFFCURVE",
"76 227 CURVE SMOOTH",
"68 254 OFFCURVE",
"60 277 OFFCURVE",
"62 309 CURVE SMOOTH",
"62 335 OFFCURVE",
"65 356 OFFCURVE",
"72 379 CURVE SMOOTH",
"109 508 OFFCURVE",
"133 571 OFFCURVE",
"254 634 CURVE SMOOTH",
"278 646 OFFCURVE",
"296 646 OFFCURVE",
"323 646 CURVE SMOOTH",
"390 646 OFFCURVE",
"450 614 OFFCURVE",
"500 570 CURVE",
"501 570 LINE",
"511 560 OFFCURVE",
"525 576 OFFCURVE",
"515 585 CURVE SMOOTH",
"495 603 OFFCURVE",
"483 628 OFFCURVE",
"460 643 CURVE SMOOTH",
"421 668 OFFCURVE",
"373 680 OFFCURVE",
"323 680 CURVE SMOOTH",
"290 680 OFFCURVE",
"270 675 OFFCURVE",
"242 661 CURVE SMOOTH",
"205 642 OFFCURVE",
"168 624 OFFCURVE",
"137 596 CURVE SMOOTH",
"75 540 OFFCURVE",
"12 398 OFFCURVE",
"12 309 CURVE SMOOTH",
"12 138 OFFCURVE",
"129 -12 OFFCURVE",
"318 -12 CURVE SMOOTH",
"395 -12 OFFCURVE",
"500 39 OFFCURVE",
"543 103 CURVE SMOOTH",
"589 168 OFFCURVE",
"609 236 OFFCURVE",
"609 318 CURVE SMOOTH"
);
},
{
closed = 1;
nodes = (
"405 752 OFFCURVE",
"334 806 OFFCURVE",
"330 806 CURVE SMOOTH",
"305 806 OFFCURVE",
"248 750 OFFCURVE",
"231 734 CURVE SMOOTH",
"216 719 OFFCURVE",
"226 712 OFFCURVE",
"241 724 CURVE SMOOTH",
"255 735 OFFCURVE",
"282 741 OFFCURVE",
"312 762 CURVE SMOOTH",
"323 768 OFFCURVE",
"332 764 OFFCURVE",
"346 755 CURVE SMOOTH",
"367 741 OFFCURVE",
"396 736 OFFCURVE",
"417 725 CURVE SMOOTH",
"433 716 OFFCURVE",
"437 732 OFFCURVE",
"420 743 CURVE SMOOTH"
);
}
);
};
components = (
{
name = O;
},
{
name = circumflexcomb.case;
transform = "{1, 0, 0, 1, 181, 268}";
}
);
layerId = "245B06BA-2FC8-4E2B-85DB-2741CBBED619";
width = 645;
}
);
note = Ocircumflex;
unicode = 00D4;
},
{
glyphname = Odieresis;
lastChange = "2021-08-24 05:25:16 +0000";
layers = (
{
background = {
paths = (
{
closed = 1;
nodes = (
"430 763 OFFCURVE",
"410 774 OFFCURVE",
"390 774 CURVE SMOOTH",
"370 774 OFFCURVE",
"349 756 OFFCURVE",
"353 735 CURVE SMOOTH",
"356 715 OFFCURVE",
"370 702 OFFCURVE",
"390 702 CURVE SMOOTH",
"410 702 OFFCURVE",
"430 722 OFFCURVE",
"430 743 CURVE SMOOTH"
);
},
{
closed = 1;
nodes = (
"273 758 OFFCURVE",
"260 775 OFFCURVE",
"240 775 CURVE SMOOTH",
"220 775 OFFCURVE",
"205 757 OFFCURVE",
"202 738 CURVE SMOOTH",
"198 718 OFFCURVE",
"220 701 OFFCURVE",
"240 701 CURVE SMOOTH",
"260 701 OFFCURVE",
"273 718 OFFCURVE",
"273 738 CURVE SMOOTH"
);
},
{
closed = 1;
nodes = (
"609 377 OFFCURVE",
"587 419 OFFCURVE",
"562 464 CURVE SMOOTH",
"526 528 OFFCURVE",
"455 559 OFFCURVE",
"381 559 CURVE SMOOTH",
"336 559 OFFCURVE",
"279 522 OFFCURVE",
"252 488 CURVE SMOOTH",
"230 461 OFFCURVE",
"214 421 OFFCURVE",
"214 383 CURVE SMOOTH",
"214 329 OFFCURVE",
"255 301 OFFCURVE",
"306 301 CURVE SMOOTH",
"358 301 OFFCURVE",
"424 358 OFFCURVE",
"424 414 CURVE SMOOTH",
"424 441 OFFCURVE",
"391 475 OFFCURVE",
"364 474 CURVE SMOOTH",
"339 474 OFFCURVE",
"299 433 OFFCURVE",
"292 414 CURVE SMOOTH",
"278 374 OFFCURVE",
"329 363 OFFCURVE",
"310 396 CURVE SMOOTH",
"300 414 OFFCURVE",
"351 445 OFFCURVE",
"364 445 CURVE SMOOTH",
"377 445 OFFCURVE",
"393 428 OFFCURVE",
"393 414 CURVE SMOOTH",
"393 374 OFFCURVE",
"344 335 OFFCURVE",
"306 335 CURVE SMOOTH",
"274 335 OFFCURVE",
"246 349 OFFCURVE",
"246 383 CURVE SMOOTH",
"245 455 OFFCURVE",
"287 488 OFFCURVE",
"345 520 CURVE SMOOTH",
"356 526 OFFCURVE",
"366 525 OFFCURVE",
"380 525 CURVE SMOOTH",
"441 525 OFFCURVE",
"498 496 OFFCURVE",
"528 445 CURVE SMOOTH",
"550 407 OFFCURVE",
"567 370 OFFCURVE",
"567 319 CURVE SMOOTH",
"567 246 OFFCURVE",
"547 187 OFFCURVE",
"506 129 CURVE SMOOTH",
"470 76 OFFCURVE",
"382 38 OFFCURVE",
"317 38 CURVE SMOOTH",
"193 39 OFFCURVE",
"110 118 OFFCURVE",
"76 227 CURVE SMOOTH",
"68 254 OFFCURVE",
"60 277 OFFCURVE",
"62 309 CURVE SMOOTH",
"62 335 OFFCURVE",
"65 356 OFFCURVE",
"72 379 CURVE SMOOTH",
"109 508 OFFCURVE",
"133 571 OFFCURVE",
"254 634 CURVE SMOOTH",
"278 646 OFFCURVE",
"296 646 OFFCURVE",
"323 646 CURVE SMOOTH",
"390 646 OFFCURVE",
"450 614 OFFCURVE",
"500 570 CURVE",
"501 570 LINE",
"511 560 OFFCURVE",
"525 576 OFFCURVE",
"515 585 CURVE SMOOTH",
"495 603 OFFCURVE",
"483 628 OFFCURVE",
"460 643 CURVE SMOOTH",
"421 668 OFFCURVE",
"373 680 OFFCURVE",
"323 680 CURVE SMOOTH",
"290 680 OFFCURVE",
"270 675 OFFCURVE",
"242 661 CURVE SMOOTH",
"205 642 OFFCURVE",
"168 624 OFFCURVE",
"137 596 CURVE SMOOTH",
"75 540 OFFCURVE",
"12 398 OFFCURVE",
"12 309 CURVE SMOOTH",
"12 138 OFFCURVE",
"129 -12 OFFCURVE",
"318 -12 CURVE SMOOTH",
"395 -12 OFFCURVE",
"500 39 OFFCURVE",
"543 103 CURVE SMOOTH",
"589 168 OFFCURVE",
"609 236 OFFCURVE",
"609 318 CURVE SMOOTH"
);
}
);
};
components = (
{
name = O;
},
{
name = dieresiscomb.case;
transform = "{1, 0, 0, 1, 227, 268}";
}
);
layerId = "245B06BA-2FC8-4E2B-85DB-2741CBBED619";
width = 645;
}
);
note = Odieresis;
unicode = 00D6;
},
{
glyphname = Ograve;
lastChange = "2021-08-24 05:25:16 +0000";
layers = (
{
background = {
paths = (
{
closed = 1;
nodes = (
"609 377 OFFCURVE",
"587 419 OFFCURVE",
"562 464 CURVE SMOOTH",
"526 528 OFFCURVE",
"455 559 OFFCURVE",
"381 559 CURVE SMOOTH",
"336 559 OFFCURVE",
"279 522 OFFCURVE",
"252 488 CURVE SMOOTH",
"230 461 OFFCURVE",
"214 421 OFFCURVE",
"214 383 CURVE SMOOTH",
"214 329 OFFCURVE",
"255 301 OFFCURVE",
"306 301 CURVE SMOOTH",
"358 301 OFFCURVE",
"424 358 OFFCURVE",
"424 414 CURVE SMOOTH",
"424 441 OFFCURVE",
"391 475 OFFCURVE",
"364 474 CURVE SMOOTH",
"339 474 OFFCURVE",
"299 433 OFFCURVE",
"292 414 CURVE SMOOTH",
"278 374 OFFCURVE",
"329 363 OFFCURVE",
"310 396 CURVE SMOOTH",
"300 414 OFFCURVE",
"351 445 OFFCURVE",
"364 445 CURVE SMOOTH",
"377 445 OFFCURVE",
"393 428 OFFCURVE",
"393 414 CURVE SMOOTH",
"393 374 OFFCURVE",
"344 335 OFFCURVE",
"306 335 CURVE SMOOTH",
"274 335 OFFCURVE",
"246 349 OFFCURVE",
"246 383 CURVE SMOOTH",
"245 455 OFFCURVE",
"287 488 OFFCURVE",
"345 520 CURVE SMOOTH",
"356 526 OFFCURVE",
"366 525 OFFCURVE",
"380 525 CURVE SMOOTH",
"441 525 OFFCURVE",
"498 496 OFFCURVE",
"528 445 CURVE SMOOTH",
"550 407 OFFCURVE",
"567 370 OFFCURVE",
"567 319 CURVE SMOOTH",
"567 246 OFFCURVE",
"547 187 OFFCURVE",
"506 129 CURVE SMOOTH",
"470 76 OFFCURVE",
"382 38 OFFCURVE",
"317 38 CURVE SMOOTH",
"193 39 OFFCURVE",
"110 118 OFFCURVE",
"76 227 CURVE SMOOTH",
"68 254 OFFCURVE",
"60 277 OFFCURVE",
"62 309 CURVE SMOOTH",
"62 335 OFFCURVE",
"65 356 OFFCURVE",
"72 379 CURVE SMOOTH",
"109 508 OFFCURVE",
"133 571 OFFCURVE",
"254 634 CURVE SMOOTH",
"278 646 OFFCURVE",
"296 646 OFFCURVE",
"323 646 CURVE SMOOTH",
"390 646 OFFCURVE",
"450 614 OFFCURVE",
"500 570 CURVE",
"501 570 LINE",
"511 560 OFFCURVE",
"525 576 OFFCURVE",
"515 585 CURVE SMOOTH",
"495 603 OFFCURVE",
"483 628 OFFCURVE",
"460 643 CURVE SMOOTH",
"421 668 OFFCURVE",
"373 680 OFFCURVE",
"323 680 CURVE SMOOTH",
"290 680 OFFCURVE",
"270 675 OFFCURVE",
"242 661 CURVE SMOOTH",
"205 642 OFFCURVE",
"168 624 OFFCURVE",
"137 596 CURVE SMOOTH",
"75 540 OFFCURVE",
"12 398 OFFCURVE",
"12 309 CURVE SMOOTH",
"12 138 OFFCURVE",
"129 -12 OFFCURVE",
"318 -12 CURVE SMOOTH",
"395 -12 OFFCURVE",
"500 39 OFFCURVE",
"543 103 CURVE SMOOTH",
"589 168 OFFCURVE",
"609 236 OFFCURVE",
"609 318 CURVE SMOOTH"
);
},
{
closed = 1;
nodes = (
"242 805 OFFCURVE",
"241 775 OFFCURVE",
"261 766 CURVE SMOOTH",
"300 748 OFFCURVE",
"354 747 OFFCURVE",
"395 732 CURVE SMOOTH",
"411 727 OFFCURVE",
"420 741 OFFCURVE",
"404 747 CURVE SMOOTH",
"364 762 OFFCURVE",
"318 793 OFFCURVE",
"279 810 CURVE SMOOTH",
"269 814 OFFCURVE",
"259 811 OFFCURVE",
"255 810 CURVE SMOOTH"
);
}
);
};
components = (
{
name = O;
},
{
name = gravecomb.case;
transform = "{1, 0, 0, 1, 222, 268}";
}
);
layerId = "245B06BA-2FC8-4E2B-85DB-2741CBBED619";
width = 645;
}
);
note = Ograve;
unicode = 00D2;
},
{
color = 4;
glyphname = Oslash;
lastChange = "2021-08-24 08:46:40 +0000";
layers = (
{
anchors = (
{
name = bottom;
position = "{323, 0}";
},
{
name = top;
position = "{308, 720}";
}
);
layerId = "245B06BA-2FC8-4E2B-85DB-2741CBBED619";
paths = (
{
closed = 1;
nodes = (
"105 -227 OFFCURVE",
"112 -223 OFFCURVE",
"114 -214 CURVE SMOOTH",
"125 -167 OFFCURVE",
"136 -141 OFFCURVE",
"148 -94 CURVE SMOOTH",
"158 -56 OFFCURVE",
"169 -19 OFFCURVE",
"180 19 CURVE",
"221 -1 OFFCURVE",
"268 -12 OFFCURVE",
"318 -12 CURVE SMOOTH",
"498 -12 OFFCURVE",
"609 152 OFFCURVE",
"609 318 CURVE SMOOTH",
"609 448 OFFCURVE",
"514 559 OFFCURVE",
"381 559 CURVE SMOOTH",
"372 559 LINE",
"402 631 LINE",
"438 617 OFFCURVE",
"472 596 OFFCURVE",
"500 570 CURVE",
"501 570 LINE",
"505 567 OFFCURVE",
"508 566 OFFCURVE",
"511 566 CURVE SMOOTH",
"516 566 OFFCURVE",
"519 570 OFFCURVE",
"519 575 CURVE SMOOTH",
"519 578 OFFCURVE",
"518 582 OFFCURVE",
"515 585 CURVE SMOOTH",
"496 604 OFFCURVE",
"483 628 OFFCURVE",
"460 643 CURVE SMOOTH",
"447 652 OFFCURVE",
"432 659 OFFCURVE",
"417 664 CURVE",
"437 711 OFFCURVE",
"455 757 OFFCURVE",
"467 802 CURVE SMOOTH",
"471 815 OFFCURVE",
"461 823 OFFCURVE",
"451 823 CURVE SMOOTH",
"444 823 OFFCURVE",
"438 819 OFFCURVE",
"436 811 CURVE SMOOTH",
"422 766 OFFCURVE",
"404 720 OFFCURVE",
"384 673 CURVE",
"364 678 OFFCURVE",
"343 680 OFFCURVE",
"323 680 CURVE SMOOTH",
"291 680 OFFCURVE",
"270 674 OFFCURVE",
"242 661 CURVE SMOOTH",
"205 643 OFFCURVE",
"167 624 OFFCURVE",
"137 596 CURVE SMOOTH",
"72 538 OFFCURVE",
"12 395 OFFCURVE",
"12 309 CURVE SMOOTH",
"12 194 OFFCURVE",
"64 93 OFFCURVE",
"151 36 CURVE",
"139 -4 OFFCURVE",
"127 -45 OFFCURVE",
"116 -85 CURVE SMOOTH",
"103 -132 OFFCURVE",
"92 -158 OFFCURVE",
"81 -207 CURVE SMOOTH",
"78 -219 OFFCURVE",
"88 -227 OFFCURVE",
"98 -227 CURVE SMOOTH"
);
},
{
closed = 1;
nodes = (
"102 140 OFFCURVE",
"62 222 OFFCURVE",
"62 309 CURVE SMOOTH",
"62 448 OFFCURVE",
"165 646 OFFCURVE",
"323 646 CURVE SMOOTH",
"339 646 OFFCURVE",
"355 644 OFFCURVE",
"371 641 CURVE",
"332 549 LINE",
"267 523 OFFCURVE",
"214 450 OFFCURVE",
"214 383 CURVE SMOOTH",
"214 354 OFFCURVE",
"226 332 OFFCURVE",
"246 318 CURVE",
"218 242 OFFCURVE",
"193 167 OFFCURVE",
"168 90 CURVE"
);
},
{
closed = 1;
nodes = (
"273 38 OFFCURVE",
"232 50 OFFCURVE",
"197 71 CURVE",
"222 149 OFFCURVE",
"249 227 OFFCURVE",
"277 305 CURVE",
"286 302 OFFCURVE",
"296 301 OFFCURVE",
"306 301 CURVE SMOOTH",
"360 301 OFFCURVE",
"424 360 OFFCURVE",
"424 414 CURVE SMOOTH",
"424 442 OFFCURVE",
"391 474 OFFCURVE",
"364 474 CURVE SMOOTH",
"356 474 OFFCURVE",
"346 469 OFFCURVE",
"335 463 CURVE",
"354 513 LINE",
"358 523 LINE",
"365 524 OFFCURVE",
"372 525 OFFCURVE",
"380 525 CURVE SMOOTH",
"492 525 OFFCURVE",
"567 426 OFFCURVE",
"567 319 CURVE SMOOTH",
"567 174 OFFCURVE",
"474 38 OFFCURVE",
"317 38 CURVE SMOOTH"
);
},
{
closed = 1;
nodes = (
"251 360 OFFCURVE",
"246 370 OFFCURVE",
"246 383 CURVE SMOOTH",
"246 430 OFFCURVE",
"274 478 OFFCURVE",
"316 505 CURVE",
"259 352 LINE"
);
},
{
closed = 1;
nodes = (
"300 335 OFFCURVE",
"295 335 OFFCURVE",
"289 336 CURVE",
"304 377 LINE",
"305 376 OFFCURVE",
"307 376 OFFCURVE",
"308 376 CURVE SMOOTH",
"312 376 OFFCURVE",
"315 380 OFFCURVE",
"315 384 CURVE SMOOTH",
"315 389 OFFCURVE",
"312 392 OFFCURVE",
"310 396 CURVE",
"319 420 LINE",
"333 432 OFFCURVE",
"354 445 OFFCURVE",
"364 445 CURVE SMOOTH",
"377 445 OFFCURVE",
"393 428 OFFCURVE",
"393 414 CURVE SMOOTH",
"393 374 OFFCURVE",
"345 335 OFFCURVE",
"306 335 CURVE SMOOTH"
);
}
);
width = 645;
}
);
note = Oslash;
unicode = 00D8;
},
{
glyphname = Otilde;
lastChange = "2021-08-24 05:25:24 +0000";
layers = (
{
background = {
paths = (
{
closed = 1;
nodes = (
"609 377 OFFCURVE",
"587 419 OFFCURVE",
"562 464 CURVE SMOOTH",
"526 528 OFFCURVE",
"455 559 OFFCURVE",
"381 559 CURVE SMOOTH",
"336 559 OFFCURVE",
"279 522 OFFCURVE",
"252 488 CURVE SMOOTH",
"230 461 OFFCURVE",
"214 421 OFFCURVE",
"214 383 CURVE SMOOTH",
"214 329 OFFCURVE",
"255 301 OFFCURVE",
"306 301 CURVE SMOOTH",
"358 301 OFFCURVE",
"424 358 OFFCURVE",
"424 414 CURVE SMOOTH",
"424 441 OFFCURVE",
"391 475 OFFCURVE",
"364 474 CURVE SMOOTH",
"339 474 OFFCURVE",
"299 433 OFFCURVE",
"292 414 CURVE SMOOTH",
"278 374 OFFCURVE",
"329 363 OFFCURVE",
"310 396 CURVE SMOOTH",
"300 414 OFFCURVE",
"351 445 OFFCURVE",
"364 445 CURVE SMOOTH",
"377 445 OFFCURVE",
"393 428 OFFCURVE",
"393 414 CURVE SMOOTH",
"393 374 OFFCURVE",
"344 335 OFFCURVE",
"306 335 CURVE SMOOTH",
"274 335 OFFCURVE",
"246 349 OFFCURVE",
"246 383 CURVE SMOOTH",
"245 455 OFFCURVE",
"287 488 OFFCURVE",
"345 520 CURVE SMOOTH",
"356 526 OFFCURVE",
"366 525 OFFCURVE",
"380 525 CURVE SMOOTH",
"441 525 OFFCURVE",
"498 496 OFFCURVE",
"528 445 CURVE SMOOTH",
"550 407 OFFCURVE",
"567 370 OFFCURVE",
"567 319 CURVE SMOOTH",
"567 246 OFFCURVE",
"547 187 OFFCURVE",
"506 129 CURVE SMOOTH",
"470 76 OFFCURVE",
"382 38 OFFCURVE",
"317 38 CURVE SMOOTH",
"193 39 OFFCURVE",
"110 118 OFFCURVE",
"76 227 CURVE SMOOTH",
"68 254 OFFCURVE",
"60 277 OFFCURVE",
"62 309 CURVE SMOOTH",
"62 335 OFFCURVE",
"65 356 OFFCURVE",
"72 379 CURVE SMOOTH",
"109 508 OFFCURVE",
"133 571 OFFCURVE",
"254 634 CURVE SMOOTH",
"278 646 OFFCURVE",
"296 646 OFFCURVE",
"323 646 CURVE SMOOTH",
"390 646 OFFCURVE",
"450 614 OFFCURVE",
"500 570 CURVE",
"501 570 LINE",
"511 560 OFFCURVE",
"525 576 OFFCURVE",
"515 585 CURVE SMOOTH",
"495 603 OFFCURVE",
"483 628 OFFCURVE",
"460 643 CURVE SMOOTH",
"421 668 OFFCURVE",
"373 680 OFFCURVE",
"323 680 CURVE SMOOTH",
"290 680 OFFCURVE",
"270 675 OFFCURVE",
"242 661 CURVE SMOOTH",
"205 642 OFFCURVE",
"168 624 OFFCURVE",
"137 596 CURVE SMOOTH",
"75 540 OFFCURVE",
"12 398 OFFCURVE",
"12 309 CURVE SMOOTH",
"12 138 OFFCURVE",
"129 -12 OFFCURVE",
"318 -12 CURVE SMOOTH",
"395 -12 OFFCURVE",
"500 39 OFFCURVE",
"543 103 CURVE SMOOTH",
"589 168 OFFCURVE",
"609 236 OFFCURVE",
"609 318 CURVE SMOOTH"
);
},
{
closed = 1;
nodes = (
"432 816 OFFCURVE",
"410 820 OFFCURVE",
"418 797 CURVE",
"420 777 OFFCURVE",
"400 769 OFFCURVE",
"389 767 CURVE SMOOTH",
"365 763 OFFCURVE",
"314 803 OFFCURVE",
"262 792 CURVE SMOOTH",
"237 786 OFFCURVE",
"224 768 OFFCURVE",
"228 737 CURVE",
"230 727 OFFCURVE",
"241 726 OFFCURVE",
"244 740 CURVE",
"241 758 OFFCURVE",
"253 765 OFFCURVE",
"265 767 CURVE SMOOTH",
"288 772 OFFCURVE",
"347 727 OFFCURVE",
"391 737 CURVE SMOOTH",
"417 743 OFFCURVE",
"438 765 OFFCURVE",
"435 797 CURVE SMOOTH"
);
}
);
};
components = (
{
name = O;
},
{
name = tildecomb.case;
transform = "{1, 0, 0, 1, 199, 268}";
}
);
layerId = "245B06BA-2FC8-4E2B-85DB-2741CBBED619";
width = 645;
}
);
note = Otilde;
unicode = 00D5;
},
{
color = 4;
glyphname = OE;
lastChange = "2021-08-24 08:46:40 +0000";
layers = (
{
layerId = "245B06BA-2FC8-4E2B-85DB-2741CBBED619";
paths = (
{
closed = 1;
nodes = (
"704 -67 OFFCURVE",
"820 -40 OFFCURVE",
"857 -25 CURVE SMOOTH",
"939 9 OFFCURVE",
"1000 116 OFFCURVE",
"1000 203 CURVE SMOOTH",
"1000 255 OFFCURVE",
"956 309 OFFCURVE",
"902 309 CURVE SMOOTH",
"832 309 OFFCURVE",
"791 228 OFFCURVE",
"791 167 CURVE SMOOTH",
"791 137 OFFCURVE",
"802 101 OFFCURVE",
"838 101 CURVE SMOOTH",
"874 101 OFFCURVE",
"900 137 OFFCURVE",
"900 170 CURVE SMOOTH",
"900 188 OFFCURVE",
"893 204 OFFCURVE",
"874 204 CURVE SMOOTH",
"868 204 OFFCURVE",
"859 202 OFFCURVE",
"859 194 CURVE SMOOTH",
"859 175 OFFCURVE",
"883 194 OFFCURVE",
"883 170 CURVE SMOOTH",
"883 147 OFFCURVE",
"861 120 OFFCURVE",
"837 120 CURVE SMOOTH",
"818 120 OFFCURVE",
"809 147 OFFCURVE",
"809 162 CURVE SMOOTH",
"809 215 OFFCURVE",
"844 277 OFFCURVE",
"902 277 CURVE SMOOTH",
"937 277 OFFCURVE",
"952 231 OFFCURVE",
"952 202 CURVE SMOOTH",
"952 152 OFFCURVE",
"924 92 OFFCURVE",
"887 59 CURVE SMOOTH",
"855 30 OFFCURVE",
"709 -9 OFFCURVE",
"663 -9 CURVE SMOOTH",
"600 -9 OFFCURVE",
"563 62 OFFCURVE",
"553 121 CURVE",
"586 172 OFFCURVE",
"606 235 OFFCURVE",
"609 299 CURVE",
"622 315 OFFCURVE",
"636 330 OFFCURVE",
"651 344 CURVE",
"670 327 OFFCURVE",
"692 318 OFFCURVE",
"717 318 CURVE SMOOTH",
"764 318 OFFCURVE",
"821 352 OFFCURVE",
"821 403 CURVE SMOOTH",
"821 432 OFFCURVE",
"795 441 OFFCURVE",
"769 441 CURVE SMOOTH",
"727 441 OFFCURVE",
"687 411 OFFCURVE",
"654 384 CURVE",
"640 409 OFFCURVE",
"633 439 OFFCURVE",
"633 468 CURVE SMOOTH",
"633 522 OFFCURVE",
"666 586 OFFCURVE",
"702 625 CURVE SMOOTH",
"729 653 OFFCURVE",
"781 656 OFFCURVE",
"816 656 CURVE SMOOTH",
"867 656 OFFCURVE",
"909 615 OFFCURVE",
"909 564 CURVE SMOOTH",
"909 536 OFFCURVE",
"894 467 OFFCURVE",
"857 467 CURVE SMOOTH",
"837 467 OFFCURVE",
"818 486 OFFCURVE",
"818 506 CURVE SMOOTH",
"818 529 OFFCURVE",
"836 547 OFFCURVE",
"850 561 CURVE",
"853 568 LINE",
"853 573 OFFCURVE",
"849 578 OFFCURVE",
"843 578 CURVE SMOOTH",
"825 578 OFFCURVE",
"799 524 OFFCURVE",
"799 507 CURVE SMOOTH",
"799 476 OFFCURVE",
"827 448 OFFCURVE",
"858 448 CURVE SMOOTH",
"906 448 OFFCURVE",
"952 521 OFFCURVE",
"952 564 CURVE SMOOTH",
"952 648 OFFCURVE",
"902 706 OFFCURVE",
"815 706 CURVE SMOOTH",
"697 706 OFFCURVE",
"607 579 OFFCURVE",
"607 468 CURVE SMOOTH",
"607 433 OFFCURVE",
"615 395 OFFCURVE",
"634 366 CURVE",
"608 342 LINE",
"598 461 OFFCURVE",
"506 559 OFFCURVE",
"381 559 CURVE SMOOTH",
"295 559 OFFCURVE",
"214 466 OFFCURVE",
"214 383 CURVE SMOOTH",
"214 329 OFFCURVE",
"255 301 OFFCURVE",
"306 301 CURVE SMOOTH",
"360 301 OFFCURVE",
"424 360 OFFCURVE",
"424 414 CURVE SMOOTH",
"424 442 OFFCURVE",
"391 474 OFFCURVE",
"364 474 CURVE SMOOTH",
"338 474 OFFCURVE",
"290 428 OFFCURVE",
"290 401 CURVE SMOOTH",
"290 391 OFFCURVE",
"296 376 OFFCURVE",
"308 376 CURVE SMOOTH",
"312 376 OFFCURVE",
"315 380 OFFCURVE",
"315 384 CURVE SMOOTH",
"315 391 OFFCURVE",
"309 395 OFFCURVE",
"309 403 CURVE SMOOTH",
"309 418 OFFCURVE",
"349 445 OFFCURVE",
"364 445 CURVE SMOOTH",
"377 445 OFFCURVE",
"393 428 OFFCURVE",
"393 414 CURVE SMOOTH",
"393 374 OFFCURVE",
"345 335 OFFCURVE",
"306 335 CURVE SMOOTH",
"276 335 OFFCURVE",
"246 349 OFFCURVE",
"246 383 CURVE SMOOTH",
"246 452 OFFCURVE",
"308 525 OFFCURVE",
"380 525 CURVE SMOOTH",
"492 525 OFFCURVE",
"567 426 OFFCURVE",
"567 319 CURVE SMOOTH",
"567 309 OFFCURVE",
"567 299 OFFCURVE",
"566 289 CURVE",
"538 249 OFFCURVE",
"519 202 OFFCURVE",
"519 152 CURVE SMOOTH",
"519 149 LINE",
"477 83 OFFCURVE",
"408 38 OFFCURVE",
"317 38 CURVE SMOOTH",
"171 38 OFFCURVE",
"62 167 OFFCURVE",
"62 309 CURVE SMOOTH",
"62 448 OFFCURVE",
"165 646 OFFCURVE",
"323 646 CURVE SMOOTH",
"390 646 OFFCURVE",
"450 614 OFFCURVE",
"500 570 CURVE",
"501 570 LINE",
"505 567 OFFCURVE",
"508 566 OFFCURVE",
"511 566 CURVE SMOOTH",
"516 566 OFFCURVE",
"519 570 OFFCURVE",
"519 575 CURVE SMOOTH",
"519 578 OFFCURVE",
"518 582 OFFCURVE",
"515 585 CURVE SMOOTH",
"496 604 OFFCURVE",
"483 628 OFFCURVE",
"460 643 CURVE SMOOTH",
"421 669 OFFCURVE",
"370 680 OFFCURVE",
"323 680 CURVE SMOOTH",
"291 680 OFFCURVE",
"270 674 OFFCURVE",
"242 661 CURVE SMOOTH",
"205 643 OFFCURVE",
"167 624 OFFCURVE",
"137 596 CURVE SMOOTH",
"72 538 OFFCURVE",
"12 395 OFFCURVE",
"12 309 CURVE SMOOTH",
"12 131 OFFCURVE",
"136 -12 OFFCURVE",
"318 -12 CURVE SMOOTH",
"404 -12 OFFCURVE",
"475 26 OFFCURVE",
"524 83 CURVE",
"538 7 OFFCURVE",
"576 -67 OFFCURVE",
"664 -67 CURVE SMOOTH"
);
},
{
closed = 1;
nodes = (
"702 349 OFFCURVE",
"687 354 OFFCURVE",
"674 364 CURVE",
"700 384 OFFCURVE",
"736 414 OFFCURVE",
"769 414 CURVE SMOOTH",
"778 414 OFFCURVE",
"790 414 OFFCURVE",
"790 403 CURVE SMOOTH",
"790 370 OFFCURVE",
"746 349 OFFCURVE",
"717 349 CURVE SMOOTH"
);
}
);
width = 1043;
}
);
note = OE;
unicode = 0152;
},
{
color = 4;
glyphname = P;
lastChange = "2021-08-24 08:46:40 +0000";
layers = (
{
layerId = "245B06BA-2FC8-4E2B-85DB-2741CBBED619";
paths = (
{
closed = 1;
nodes = (
"157 -67 OFFCURVE",
"179 -27 OFFCURVE",
"189 1 CURVE SMOOTH",
"208 50 OFFCURVE",
"224 101 OFFCURVE",
"224 152 CURVE SMOOTH",
"224 157 LINE SMOOTH",
"224 184 OFFCURVE",
"225 203 OFFCURVE",
"225 225 CURVE SMOOTH",
"225 236 OFFCURVE",
"225 247 OFFCURVE",
"224 261 CURVE SMOOTH",
"221 317 OFFCURVE",
"200 364 OFFCURVE",
"192 414 CURVE SMOOTH",
"183 463 OFFCURVE",
"166 510 OFFCURVE",
"165 566 CURVE SMOOTH",
"165 588 OFFCURVE",
"166 608 OFFCURVE",
"170 628 CURVE",
"226 670 OFFCURVE",
"292 697 OFFCURVE",
"348 697 CURVE SMOOTH",
"384 697 OFFCURVE",
"408 674 OFFCURVE",
"436 656 CURVE SMOOTH",
"495 618 OFFCURVE",
"526 559 OFFCURVE",
"526 488 CURVE SMOOTH",
"526 396 OFFCURVE",
"466 252 OFFCURVE",
"367 252 CURVE SMOOTH",
"362 252 OFFCURVE",
"356 249 OFFCURVE",
"351 248 CURVE",
"308 248 OFFCURVE",
"276 274 OFFCURVE",
"274 318 CURVE SMOOTH",
"274 338 OFFCURVE",
"297 360 OFFCURVE",
"318 357 CURVE",
"326 357 OFFCURVE",
"330 362 OFFCURVE",
"330 368 CURVE SMOOTH",
"330 372 OFFCURVE",
"327 377 OFFCURVE",
"321 377 CURVE SMOOTH",
"289 380 OFFCURVE",
"254 350 OFFCURVE",
"254 319 CURVE SMOOTH",
"254 305 OFFCURVE",
"261 292 OFFCURVE",
"264 279 CURVE SMOOTH",
"273 244 OFFCURVE",
"319 205 OFFCURVE",
"353 205 CURVE SMOOTH",
"367 205 LINE SMOOTH",
"491 205 OFFCURVE",
"585 374 OFFCURVE",
"585 488 CURVE SMOOTH",
"585 579 OFFCURVE",
"540 653 OFFCURVE",
"465 701 CURVE SMOOTH",
"429 724 OFFCURVE",
"391 737 OFFCURVE",
"348 737 CURVE SMOOTH",
"228 737 OFFCURVE",
"36 590 OFFCURVE",
"36 454 CURVE SMOOTH",
"36 449 OFFCURVE",
"36 444 OFFCURVE",
"37 439 CURVE SMOOTH",
"40 429 OFFCURVE",
"47 421 OFFCURVE",
"61 421 CURVE SMOOTH",
"83 421 OFFCURVE",
"105 441 OFFCURVE",
"116 465 CURVE SMOOTH",
"120 472 OFFCURVE",
"114 478 OFFCURVE",
"108 478 CURVE SMOOTH",
"105 478 OFFCURVE",
"102 477 OFFCURVE",
"100 473 CURVE SMOOTH",
"92 458 OFFCURVE",
"77 448 OFFCURVE",
"63 450 CURVE",
"62 457 OFFCURVE",
"58 470 OFFCURVE",
"58 478 CURVE SMOOTH",
"58 482 LINE",
"71 529 OFFCURVE",
"104 575 OFFCURVE",
"148 612 CURVE",
"147 597 OFFCURVE",
"146 582 OFFCURVE",
"146 567 CURVE SMOOTH",
"145 543 OFFCURVE",
"144 520 OFFCURVE",
"144 498 CURVE SMOOTH",
"144 467 OFFCURVE",
"146 437 OFFCURVE",
"152 408 CURVE SMOOTH",
"168 327 OFFCURVE",
"167 242 OFFCURVE",
"167 160 CURVE",
"159 113 OFFCURVE",
"155 66 OFFCURVE",
"138 21 CURVE",
"136 18 OFFCURVE",
"136 12 OFFCURVE",
"133 7 CURVE",
"132 2 OFFCURVE",
"125 -22 OFFCURVE",
"123 -22 CURVE SMOOTH",
"77 -22 OFFCURVE",
"55 73 OFFCURVE",
"55 111 CURVE SMOOTH",
"55 143 OFFCURVE",
"61 206 OFFCURVE",
"92 207 CURVE SMOOTH",
"105 207 OFFCURVE",
"108 179 OFFCURVE",
"110 169 CURVE SMOOTH",
"111 163 OFFCURVE",
"115 161 OFFCURVE",
"120 161 CURVE SMOOTH",
"124 161 OFFCURVE",
"129 164 OFFCURVE",
"129 169 CURVE SMOOTH",
"129 171 LINE",
"124 194 OFFCURVE",
"121 227 OFFCURVE",
"91 227 CURVE SMOOTH",
"54 226 OFFCURVE",
"36 153 OFFCURVE",
"35 112 CURVE SMOOTH",
"35 86 OFFCURVE",
"35 69 OFFCURVE",
"41 44 CURVE SMOOTH",
"50 13 OFFCURVE",
"75 -67 OFFCURVE",
"123 -67 CURVE SMOOTH"
);
}
);
width = 603;
}
);
note = P;
unicode = 0050;
},
{
color = 4;
glyphname = Thorn;
lastChange = "2021-08-24 08:46:40 +0000";
layers = (
{
layerId = "245B06BA-2FC8-4E2B-85DB-2741CBBED619";
paths = (
{
closed = 1;
nodes = (
"155 -196 OFFCURVE",
"180 -148 OFFCURVE",
"193 -114 CURVE SMOOTH",
"215 -56 OFFCURVE",
"234 3 OFFCURVE",
"234 65 CURVE SMOOTH",
"234 69 LINE SMOOTH",
"234 107 OFFCURVE",
"241 78 OFFCURVE",
"241 120 CURVE SMOOTH",
"241 132 OFFCURVE",
"240 149 OFFCURVE",
"239 174 CURVE SMOOTH",
"235 230 OFFCURVE",
"213 277 OFFCURVE",
"206 327 CURVE SMOOTH",
"201 363 OFFCURVE",
"199 396 OFFCURVE",
"199 427 CURVE SMOOTH",
"199 497 OFFCURVE",
"209 551 OFFCURVE",
"213 579 CURVE",
"249 607 OFFCURVE",
"307 609 OFFCURVE",
"363 609 CURVE SMOOTH",
"399 609 OFFCURVE",
"422 587 OFFCURVE",
"450 569 CURVE SMOOTH",
"510 531 OFFCURVE",
"541 472 OFFCURVE",
"541 401 CURVE SMOOTH",
"541 309 OFFCURVE",
"480 165 OFFCURVE",
"382 165 CURVE SMOOTH",
"376 165 OFFCURVE",
"371 161 OFFCURVE",
"365 160 CURVE",
"323 160 OFFCURVE",
"289 187 OFFCURVE",
"289 231 CURVE SMOOTH",
"289 251 OFFCURVE",
"311 271 OFFCURVE",
"333 270 CURVE SMOOTH",
"341 269 OFFCURVE",
"344 275 OFFCURVE",
"344 280 CURVE SMOOTH",
"344 285 OFFCURVE",
"342 290 OFFCURVE",
"336 290 CURVE SMOOTH",
"304 293 OFFCURVE",
"269 262 OFFCURVE",
"269 231 CURVE SMOOTH",
"269 216 OFFCURVE",
"276 205 OFFCURVE",
"279 192 CURVE SMOOTH",
"288 157 OFFCURVE",
"334 118 OFFCURVE",
"367 118 CURVE SMOOTH",
"382 118 LINE SMOOTH",
"505 118 OFFCURVE",
"599 287 OFFCURVE",
"599 401 CURVE SMOOTH",
"599 492 OFFCURVE",
"556 567 OFFCURVE",
"479 614 CURVE SMOOTH",
"444 636 OFFCURVE",
"405 650 OFFCURVE",
"363 650 CURVE",
"336 658 OFFCURVE",
"311 661 OFFCURVE",
"289 661 CURVE SMOOTH",
"255 661 OFFCURVE",
"227 653 OFFCURVE",
"206 640 CURVE",
"200 687 OFFCURVE",
"199 839 OFFCURVE",
"188 866 CURVE SMOOTH",
"184 875 OFFCURVE",
"175 878 OFFCURVE",
"166 878 CURVE SMOOTH",
"156 878 OFFCURVE",
"146 874 OFFCURVE",
"144 872 CURVE SMOOTH",
"143 871 OFFCURVE",
"142 855 OFFCURVE",
"142 830 CURVE SMOOTH",
"142 732 OFFCURVE",
"150 491 OFFCURVE",
"150 450 CURVE SMOOTH",
"150 320 OFFCURVE",
"166 170 OFFCURVE",
"166 74 CURVE",
"157 18 OFFCURVE",
"151 -38 OFFCURVE",
"132 -91 CURVE",
"129 -95 OFFCURVE",
"129 -101 OFFCURVE",
"127 -108 CURVE SMOOTH",
"125 -113 OFFCURVE",
"118 -142 OFFCURVE",
"114 -142 CURVE SMOOTH",
"62 -142 OFFCURVE",
"35 -36 OFFCURVE",
"35 11 CURVE SMOOTH",
"35 46 OFFCURVE",
"41 128 OFFCURVE",
"77 130 CURVE SMOOTH",
"94 130 OFFCURVE",
"96 96 OFFCURVE",
"99 84 CURVE SMOOTH",
"100 77 OFFCURVE",
"105 74 OFFCURVE",
"110 74 CURVE SMOOTH",
"116 74 OFFCURVE",
"121 78 OFFCURVE",
"121 84 CURVE SMOOTH",
"121 87 LINE",
"116 113 OFFCURVE",
"112 153 OFFCURVE",
"76 153 CURVE SMOOTH",
"32 152 OFFCURVE",
"12 66 OFFCURVE",
"10 17 CURVE SMOOTH",
"10 -13 OFFCURVE",
"10 -34 OFFCURVE",
"18 -64 CURVE SMOOTH",
"29 -100 OFFCURVE",
"58 -196 OFFCURVE",
"114 -196 CURVE SMOOTH"
);
}
);
width = 603;
}
);
unicode = 00DE;
},
{
color = 4;
glyphname = Q;
lastChange = "2021-08-24 08:46:40 +0000";
layers = (
{
layerId = "245B06BA-2FC8-4E2B-85DB-2741CBBED619";
paths = (
{
closed = 1;
nodes = (
"542 -318 OFFCURVE",
"576 -296 OFFCURVE",
"599 -262 CURVE SMOOTH",
"619 -233 OFFCURVE",
"626 -212 OFFCURVE",
"626 -177 CURVE SMOOTH",
"626 -116 OFFCURVE",
"584 -36 OFFCURVE",
"519 -36 CURVE SMOOTH",
"484 -36 OFFCURVE",
"458 -85 OFFCURVE",
"458 -112 CURVE SMOOTH",
"458 -133 OFFCURVE",
"472 -147 OFFCURVE",
"480 -147 CURVE SMOOTH",
"484 -147 OFFCURVE",
"486 -144 OFFCURVE",
"486 -139 CURVE SMOOTH",
"486 -135 OFFCURVE",
"484 -130 OFFCURVE",
"482 -124 CURVE SMOOTH",
"481 -121 OFFCURVE",
"480 -118 OFFCURVE",
"480 -114 CURVE SMOOTH",
"480 -93 OFFCURVE",
"499 -64 OFFCURVE",
"519 -64 CURVE SMOOTH",
"568 -64 OFFCURVE",
"590 -131 OFFCURVE",
"590 -177 CURVE SMOOTH",
"590 -203 OFFCURVE",
"578 -215 OFFCURVE",
"563 -236 CURVE SMOOTH",
"550 -256 OFFCURVE",
"525 -260 OFFCURVE",
"501 -260 CURVE SMOOTH",
"388 -260 OFFCURVE",
"370 -112 OFFCURVE",
"362 -18 CURVE",
"504 1 OFFCURVE",
"590 141 OFFCURVE",
"590 282 CURVE SMOOTH",
"590 370 OFFCURVE",
"533 468 OFFCURVE",
"451 497 CURVE",
"461 515 OFFCURVE",
"466 536 OFFCURVE",
"466 557 CURVE SMOOTH",
"466 639 OFFCURVE",
"401 683 OFFCURVE",
"323 683 CURVE SMOOTH",
"137 683 OFFCURVE",
"2 450 OFFCURVE",
"2 287 CURVE SMOOTH",
"2 186 OFFCURVE",
"44 104 OFFCURVE",
"114 45 CURVE SMOOTH",
"166 1 OFFCURVE",
"234 -17 OFFCURVE",
"306 -20 CURVE",
"310 -83 OFFCURVE",
"318 -148 OFFCURVE",
"342 -206 CURVE SMOOTH",
"368 -273 OFFCURVE",
"431 -318 OFFCURVE",
"501 -318 CURVE SMOOTH"
);
},
{
closed = 1;
nodes = (
"245 39 OFFCURVE",
"193 55 OFFCURVE",
"151 90 CURVE SMOOTH",
"94 138 OFFCURVE",
"60 204 OFFCURVE",
"60 286 CURVE SMOOTH",
"60 372 OFFCURVE",
"71 450 OFFCURVE",
"114 520 CURVE SMOOTH",
"158 589 OFFCURVE",
"233 654 OFFCURVE",
"324 655 CURVE SMOOTH",
"386 655 OFFCURVE",
"439 623 OFFCURVE",
"439 557 CURVE SMOOTH",
"439 538 OFFCURVE",
"433 519 OFFCURVE",
"424 504 CURVE",
"416 505 OFFCURVE",
"407 505 OFFCURVE",
"398 505 CURVE SMOOTH",
"389 505 OFFCURVE",
"383 500 OFFCURVE",
"383 495 CURVE SMOOTH",
"383 491 OFFCURVE",
"387 487 OFFCURVE",
"399 487 CURVE",
"402 486 OFFCURVE",
"405 486 OFFCURVE",
"409 486 CURVE",
"398 477 OFFCURVE",
"385 473 OFFCURVE",
"372 473 CURVE SMOOTH",
"338 473 OFFCURVE",
"304 502 OFFCURVE",
"304 533 CURVE SMOOTH",
"304 551 OFFCURVE",
"317 569 OFFCURVE",
"334 569 CURVE SMOOTH",
"345 568 OFFCURVE",
"356 563 OFFCURVE",
"356 551 CURVE SMOOTH",
"356 545 OFFCURVE",
"360 542 OFFCURVE",
"365 542 CURVE SMOOTH",
"369 542 OFFCURVE",
"374 545 OFFCURVE",
"374 551 CURVE SMOOTH",
"375 566 OFFCURVE",
"375 579 OFFCURVE",
"364 587 CURVE SMOOTH",
"354 593 OFFCURVE",
"336 596 OFFCURVE",
"334 596 CURVE SMOOTH",
"303 596 OFFCURVE",
"279 565 OFFCURVE",
"279 534 CURVE SMOOTH",
"279 488 OFFCURVE",
"325 446 OFFCURVE",
"372 446 CURVE SMOOTH",
"400 446 OFFCURVE",
"421 458 OFFCURVE",
"437 476 CURVE",
"458 463 OFFCURVE",
"475 442 OFFCURVE",
"493 424 CURVE SMOOTH",
"529 388 OFFCURVE",
"539 340 OFFCURVE",
"539 282 CURVE SMOOTH",
"539 168 OFFCURVE",
"472 53 OFFCURVE",
"357 36 CURVE",
"355 54 OFFCURVE",
"352 74 OFFCURVE",
"351 94 CURVE SMOOTH",
"348 124 OFFCURVE",
"340 156 OFFCURVE",
"334 185 CURVE SMOOTH",
"320 248 OFFCURVE",
"284 291 OFFCURVE",
"218 291 CURVE SMOOTH",
"183 291 OFFCURVE",
"147 244 OFFCURVE",
"147 211 CURVE SMOOTH",
"147 180 OFFCURVE",
"149 133 OFFCURVE",
"192 133 CURVE SMOOTH",
"221 133 OFFCURVE",
"232 164 OFFCURVE",
"232 189 CURVE SMOOTH",
"232 194 OFFCURVE",
"232 199 OFFCURVE",
"231 203 CURVE",
"230 203 LINE",
"229 208 OFFCURVE",
"224 210 OFFCURVE",
"220 210 CURVE SMOOTH",
"215 210 OFFCURVE",
"210 207 OFFCURVE",
"210 201 CURVE SMOOTH",
"210 200 OFFCURVE",
"211 199 OFFCURVE",
"211 198 CURVE SMOOTH",
"212 194 OFFCURVE",
"212 190 OFFCURVE",
"212 185 CURVE SMOOTH",
"212 167 OFFCURVE",
"204 152 OFFCURVE",
"192 152 CURVE SMOOTH",
"164 152 OFFCURVE",
"166 193 OFFCURVE",
"166 211 CURVE SMOOTH",
"166 236 OFFCURVE",
"197 272 OFFCURVE",
"218 272 CURVE SMOOTH",
"302 272 OFFCURVE",
"297 147 OFFCURVE",
"301 91 CURVE SMOOTH",
"302 72 OFFCURVE",
"302 53 OFFCURVE",
"302 36 CURVE"
);
}
);
width = 612;
}
);
note = Q;
unicode = 0051;
},
{
color = 4;
glyphname = R;
lastChange = "2021-08-24 08:46:40 +0000";
layers = (
{
anchors = (
{
name = bottom;
position = "{290, 0}";
},
{
name = top;
position = "{290, 746}";
}
);
layerId = "245B06BA-2FC8-4E2B-85DB-2741CBBED619";
paths = (
{
closed = 1;
nodes = (
"544 -35 OFFCURVE",
"572 49 OFFCURVE",
"572 110 CURVE SMOOTH",
"572 149 OFFCURVE",
"549 179 OFFCURVE",
"532 203 CURVE SMOOTH",
"517 223 OFFCURVE",
"503 244 OFFCURVE",
"474 244 CURVE",
"468 245 OFFCURVE",
"463 243 OFFCURVE",
"458 241 CURVE SMOOTH",
"453 240 OFFCURVE",
"450 235 OFFCURVE",
"450 231 CURVE SMOOTH",
"450 226 OFFCURVE",
"453 221 OFFCURVE",
"459 221 CURVE",
"460 222 OFFCURVE",
"463 222 OFFCURVE",
"465 223 CURVE",
"466 223 OFFCURVE",
"473 226 OFFCURVE",
"474 226 CURVE SMOOTH",
"483 226 OFFCURVE",
"489 223 OFFCURVE",
"496 217 CURVE SMOOTH",
"526 188 OFFCURVE",
"534 149 OFFCURVE",
"534 109 CURVE SMOOTH",
"534 69 OFFCURVE",
"526 8 OFFCURVE",
"488 8 CURVE SMOOTH",
"442 8 OFFCURVE",
"401 53 OFFCURVE",
"389 94 CURVE SMOOTH",
"371 151 OFFCURVE",
"357 202 OFFCURVE",
"346 256 CURVE",
"388 279 OFFCURVE",
"427 316 OFFCURVE",
"451 351 CURVE SMOOTH",
"478 386 OFFCURVE",
"503 431 OFFCURVE",
"514 479 CURVE SMOOTH",
"520 501 OFFCURVE",
"526 524 OFFCURVE",
"526 547 CURVE SMOOTH",
"526 677 OFFCURVE",
"417 745 OFFCURVE",
"289 745 CURVE SMOOTH",
"279 745 OFFCURVE",
"268 745 OFFCURVE",
"258 744 CURVE SMOOTH",
"208 739 OFFCURVE",
"184 717 OFFCURVE",
"142 692 CURVE SMOOTH",
"110 673 OFFCURVE",
"81 650 OFFCURVE",
"57 619 CURVE SMOOTH",
"19 570 OFFCURVE",
"-10 524 OFFCURVE",
"-10 460 CURVE SMOOTH",
"-10 437 OFFCURVE",
"-13 396 OFFCURVE",
"19 396 CURVE SMOOTH",
"53 396 OFFCURVE",
"85 448 OFFCURVE",
"86 479 CURVE",
"87 479 LINE",
"87 486 OFFCURVE",
"82 489 OFFCURVE",
"77 489 CURVE SMOOTH",
"72 489 OFFCURVE",
"68 486 OFFCURVE",
"68 480 CURVE SMOOTH",
"67 457 OFFCURVE",
"46 418 OFFCURVE",
"21 418 CURVE SMOOTH",
"7 418 OFFCURVE",
"9 451 OFFCURVE",
"9 460 CURVE SMOOTH",
"9 520 OFFCURVE",
"47 558 OFFCURVE",
"81 601 CURVE SMOOTH",
"101 627 OFFCURVE",
"137 640 OFFCURVE",
"165 656 CURVE SMOOTH",
"206 681 OFFCURVE",
"257 695 OFFCURVE",
"305 695 CURVE SMOOTH",
"390 695 OFFCURVE",
"467 650 OFFCURVE",
"467 547 CURVE",
"468 542 OFFCURVE",
"467 533 OFFCURVE",
"465 522 CURVE SMOOTH",
"455 474 OFFCURVE",
"444 414 OFFCURVE",
"414 375 CURVE SMOOTH",
"395 349 OFFCURVE",
"367 318 OFFCURVE",
"338 297 CURVE",
"335 310 OFFCURVE",
"333 324 OFFCURVE",
"330 338 CURVE SMOOTH",
"328 351 OFFCURVE",
"321 356 OFFCURVE",
"317 371 CURVE",
"311 384 OFFCURVE",
"301 399 OFFCURVE",
"281 399 CURVE SMOOTH",
"253 399 OFFCURVE",
"230 362 OFFCURVE",
"225 339 CURVE SMOOTH",
"223 332 OFFCURVE",
"223 325 OFFCURVE",
"223 319 CURVE SMOOTH",
"223 309 OFFCURVE",
"224 301 OFFCURVE",
"226 291 CURVE SMOOTH",
"230 277 OFFCURVE",
"259 237 OFFCURVE",
"277 237 CURVE SMOOTH",
"290 237 OFFCURVE",
"302 240 OFFCURVE",
"315 244 CURVE",
"323 189 OFFCURVE",
"329 138 OFFCURVE",
"346 81 CURVE SMOOTH",
"363 24 OFFCURVE",
"423 -35 OFFCURVE",
"487 -35 CURVE SMOOTH"
);
},
{
closed = 1;
nodes = (
"158 -72 OFFCURVE",
"197 -1 OFFCURVE",
"200 54 CURVE SMOOTH",
"202 77 OFFCURVE",
"211 97 OFFCURVE",
"211 125 CURVE SMOOTH",
"211 169 LINE SMOOTH",
"211 196 OFFCURVE",
"211 219 OFFCURVE",
"208 252 CURVE SMOOTH",
"207 269 OFFCURVE",
"207 286 OFFCURVE",
"207 303 CURVE SMOOTH",
"207 355 LINE SMOOTH",
"207 377 OFFCURVE",
"207 400 OFFCURVE",
"205 423 CURVE SMOOTH",
"202 451 OFFCURVE",
"199 475 OFFCURVE",
"199 499 CURVE SMOOTH",
"199 527 OFFCURVE",
"204 553 OFFCURVE",
"222 579 CURVE",
"226 587 OFFCURVE",
"220 595 OFFCURVE",
"213 595 CURVE SMOOTH",
"210 595 OFFCURVE",
"208 594 OFFCURVE",
"206 591 CURVE SMOOTH",
"172 540 OFFCURVE",
"145 497 OFFCURVE",
"145 439 CURVE SMOOTH",
"145 432 OFFCURVE",
"145 425 OFFCURVE",
"146 418 CURVE SMOOTH",
"148 390 OFFCURVE",
"148 352 OFFCURVE",
"149 320 CURVE SMOOTH",
"150 293 OFFCURVE",
"156 273 OFFCURVE",
"157 250 CURVE SMOOTH",
"160 200 OFFCURVE",
"177 175 OFFCURVE",
"177 125 CURVE SMOOTH",
"177 97 OFFCURVE",
"176 77 OFFCURVE",
"175 54 CURVE SMOOTH",
"171 12 OFFCURVE",
"144 -45 OFFCURVE",
"100 -45 CURVE SMOOTH",
"87 -44 OFFCURVE",
"63 -30 OFFCURVE",
"58 -24 CURVE",
"52 -13 OFFCURVE",
"48 4 OFFCURVE",
"48 17 CURVE SMOOTH",
"48 40 OFFCURVE",
"59 112 OFFCURVE",
"93 113 CURVE SMOOTH",
"105 113 OFFCURVE",
"117 83 OFFCURVE",
"117 59 CURVE SMOOTH",
"117 45 OFFCURVE",
"113 33 OFFCURVE",
"103 30 CURVE",
"101 30 OFFCURVE",
"99 32 OFFCURVE",
"95 34 CURVE",
"87 35 OFFCURVE",
"82 31 OFFCURVE",
"82 25 CURVE SMOOTH",
"82 20 OFFCURVE",
"87 13 OFFCURVE",
"97 10 CURVE SMOOTH",
"119 4 OFFCURVE",
"128 29 OFFCURVE",
"128 58 CURVE SMOOTH",
"128 92 OFFCURVE",
"115 132 OFFCURVE",
"95 132 CURVE SMOOTH",
"45 133 OFFCURVE",
"29 54 OFFCURVE",
"29 18 CURVE SMOOTH",
"29 2 OFFCURVE",
"32 -20 OFFCURVE",
"41 -35 CURVE",
"49 -45 OFFCURVE",
"81 -72 OFFCURVE",
"100 -72 CURVE SMOOTH"
);
},
{
closed = 1;
nodes = (
"260 273 OFFCURVE",
"243 317 OFFCURVE",
"246 334 CURVE SMOOTH",
"252 356 OFFCURVE",
"271 381 OFFCURVE",
"282 381 CURVE SMOOTH",
"304 381 OFFCURVE",
"300 346 OFFCURVE",
"302 334 CURVE SMOOTH",
"306 315 OFFCURVE",
"308 297 OFFCURVE",
"310 280 CURVE",
"311 280 LINE",
"300 276 OFFCURVE",
"289 273 OFFCURVE",
"278 273 CURVE SMOOTH"
);
}
);
width = 580;
}
);
note = R;
unicode = 0052;
},
{
color = 4;
glyphname = S;
lastChange = "2021-08-24 08:46:40 +0000";
layers = (
{
anchors = (
{
name = bottom;
position = "{304, -65}";
},
{
name = top;
position = "{332, 723}";
}
);
layerId = "245B06BA-2FC8-4E2B-85DB-2741CBBED619";
paths = (
{
closed = 1;
nodes = (
"39 -113 OFFCURVE",
"44 -109 OFFCURVE",
"44 -104 CURVE SMOOTH",
"44 -102 LINE SMOOTH",
"41 -87 OFFCURVE",
"41 -78 OFFCURVE",
"41 -65 CURVE SMOOTH",
"41 -32 OFFCURVE",
"59 -8 OFFCURVE",
"74 20 CURVE SMOOTH",
"83 38 OFFCURVE",
"93 55 OFFCURVE",
"104 72 CURVE",
"111 59 OFFCURVE",
"119 47 OFFCURVE",
"127 37 CURVE SMOOTH",
"175 -26 OFFCURVE",
"235 -73 OFFCURVE",
"330 -73 CURVE SMOOTH",
"438 -73 OFFCURVE",
"552 66 OFFCURVE",
"552 162 CURVE SMOOTH",
"553 268 OFFCURVE",
"522 366 OFFCURVE",
"448 442 CURVE SMOOTH",
"435 457 OFFCURVE",
"421 467 OFFCURVE",
"412 480 CURVE SMOOTH",
"402 494 OFFCURVE",
"387 505 OFFCURVE",
"375 523 CURVE SMOOTH",
"373 526 LINE",
"379 555 OFFCURVE",
"382 585 OFFCURVE",
"382 615 CURVE SMOOTH",
"382 645 OFFCURVE",
"359 722 OFFCURVE",
"326 724 CURVE SMOOTH",
"296 724 OFFCURVE",
"279 673 OFFCURVE",
"279 652 CURVE SMOOTH",
"278 586 OFFCURVE",
"300 554 OFFCURVE",
"335 511 CURVE",
"327 480 OFFCURVE",
"315 450 OFFCURVE",
"300 421 CURVE",
"284 432 OFFCURVE",
"268 439 OFFCURVE",
"250 439 CURVE SMOOTH",
"232 439 OFFCURVE",
"217 431 OFFCURVE",
"200 428 CURVE SMOOTH",
"125 411 OFFCURVE",
"87 321 OFFCURVE",
"80 249 CURVE SMOOTH",
"77 228 OFFCURVE",
"74 209 OFFCURVE",
"74 185 CURVE SMOOTH",
"74 158 OFFCURVE",
"80 130 OFFCURVE",
"90 104 CURVE",
"75 81 OFFCURVE",
"63 57 OFFCURVE",
"49 32 CURVE SMOOTH",
"32 0 OFFCURVE",
"19 -27 OFFCURVE",
"19 -66 CURVE SMOOTH",
"19 -81 OFFCURVE",
"24 -90 OFFCURVE",
"26 -105 CURVE",
"25 -104 LINE",
"26 -110 OFFCURVE",
"30 -113 OFFCURVE",
"34 -113 CURVE SMOOTH"
);
},
{
closed = 1;
nodes = (
"123 167 OFFCURVE",
"122 176 OFFCURVE",
"122 185 CURVE SMOOTH",
"122 249 OFFCURVE",
"131 382 OFFCURVE",
"206 399 CURVE SMOOTH",
"221 402 OFFCURVE",
"235 410 OFFCURVE",
"250 410 CURVE SMOOTH",
"261 410 OFFCURVE",
"276 407 OFFCURVE",
"289 401 CURVE",
"264 354 OFFCURVE",
"235 310 OFFCURVE",
"207 272 CURVE SMOOTH",
"179 234 OFFCURVE",
"151 197 OFFCURVE",
"125 159 CURVE"
);
},
{
closed = 1;
nodes = (
"260 -16 OFFCURVE",
"215 18 OFFCURVE",
"174 72 CURVE SMOOTH",
"162 86 OFFCURVE",
"150 104 OFFCURVE",
"140 123 CURVE",
"170 167 OFFCURVE",
"204 208 OFFCURVE",
"235 251 CURVE SMOOTH",
"264 291 OFFCURVE",
"293 335 OFFCURVE",
"318 382 CURVE",
"326 374 LINE",
"353 340 OFFCURVE",
"385 286 OFFCURVE",
"385 240 CURVE SMOOTH",
"385 179 OFFCURVE",
"358 93 OFFCURVE",
"292 93 CURVE SMOOTH",
"270 93 OFFCURVE",
"255 133 OFFCURVE",
"255 150 CURVE SMOOTH",
"255 175 OFFCURVE",
"272 218 OFFCURVE",
"298 218 CURVE SMOOTH",
"307 218 OFFCURVE",
"297 207 OFFCURVE",
"297 199 CURVE SMOOTH",
"297 185 OFFCURVE",
"308 177 OFFCURVE",
"319 177 CURVE SMOOTH",
"329 177 OFFCURVE",
"340 185 OFFCURVE",
"340 199 CURVE SMOOTH",
"340 225 OFFCURVE",
"329 252 OFFCURVE",
"298 252 CURVE SMOOTH",
"259 252 OFFCURVE",
"230 190 OFFCURVE",
"230 152 CURVE SMOOTH",
"230 116 OFFCURVE",
"253 68 OFFCURVE",
"293 68 CURVE SMOOTH",
"371 68 OFFCURVE",
"404 168 OFFCURVE",
"404 240 CURVE SMOOTH",
"404 283 OFFCURVE",
"372 355 OFFCURVE",
"327 399 CURVE",
"328 399 LINE",
"340 424 OFFCURVE",
"352 450 OFFCURVE",
"361 477 CURVE",
"375 451 OFFCURVE",
"386 422 OFFCURVE",
"408 401 CURVE SMOOTH",
"468 338 OFFCURVE",
"494 255 OFFCURVE",
"495 161 CURVE SMOOTH",
"495 92 OFFCURVE",
"402 -16 OFFCURVE",
"332 -16 CURVE SMOOTH"
);
},
{
closed = 1;
nodes = (
"326 582 OFFCURVE",
"311 607 OFFCURVE",
"311 651 CURVE SMOOTH",
"312 662 OFFCURVE",
"310 693 OFFCURVE",
"326 693 CURVE SMOOTH",
"346 692 OFFCURVE",
"352 640 OFFCURVE",
"352 616 CURVE SMOOTH",
"352 598 OFFCURVE",
"346 578 OFFCURVE",
"346 558 CURVE SMOOTH",
"346 557 LINE"
);
}
);
width = 580;
}
);
note = S;
unicode = 0053;
},
